font0.ufo
<glyph name="dieresis" format="1">
  <advance width="400"/>
  <unicode hex="00A8"/>
  <outline>
    <contour>
      <point x="294" y="644" type="curve" smooth="yes"/>
      <point x="309" y="644"/>
      <point x="323" y="655"/>
      <point x="323" y="674" type="curve" smooth="yes"/>
      <point x="323" y="692"/>
      <point x="309" y="703"/>
      <point x="294" y="703" type="curve" smooth="yes"/>
      <point x="279" y="703"/>
      <point x="265" y="692"/>
      <point x="265" y="674" type="curve" smooth="yes"/>
      <point x="265" y="655"/>
      <point x="279" y="644"/>
    </contour>
    <contour>
      <point x="106" y="644" type="curve" smooth="yes"/>
      <point x="121" y="644"/>
      <point x="135" y="655"/>
      <point x="135" y="674" type="curve" smooth="yes"/>
      <point x="135" y="692"/>
      <point x="121" y="703"/>
      <point x="106" y="703" type="curve" smooth="yes"/>
      <point x="91" y="703"/>
      <point x="77" y="692"/>
      <point x="77" y="674" type="curve" smooth="yes"/>
      <point x="77" y="655"/>
      <point x="91" y="644"/>
    </contour>
    <contour>
      <point x="200" y="500" type="move" name="_aboveLC"/>
    </contour>
  </outline>
</glyph>
<glyph name="guillemotleft" format="1">
  <advance width="473"/>
  <unicode hex="00AB"/>
  <outline>
    <contour>
      <point x="242" y="48" type="line"/>
      <point x="254" y="61" type="line"/>
      <point x="50" y="262" type="line"/>
      <point x="50" y="243" type="line"/>
      <point x="254" y="444" type="line"/>
      <point x="242" y="457" type="line"/>
      <point x="20" y="260" type="line"/>
      <point x="20" y="245" type="line"/>
    </contour>
    <contour>
      <point x="431" y="48" type="line"/>
      <point x="443" y="61" type="line"/>
      <point x="239" y="262" type="line"/>
      <point x="239" y="243" type="line"/>
      <point x="443" y="444" type="line"/>
      <point x="431" y="457" type="line"/>
      <point x="209" y="260" type="line"/>
      <point x="209" y="245" type="line"/>
    </contour>
  </outline>
</glyph>
<glyph name="guillemotright" format="1">
  <advance width="473"/>
  <unicode hex="00BB"/>
  <outline>
    <contour>
      <point x="42" y="457" type="line"/>
      <point x="30" y="444" type="line"/>
      <point x="234" y="243" type="line"/>
      <point x="234" y="262" type="line"/>
      <point x="30" y="61" type="line"/>
      <point x="42" y="48" type="line"/>
      <point x="264" y="245" type="line"/>
      <point x="264" y="260" type="line"/>
    </contour>
    <contour>
      <point x="231" y="457" type="line"/>
      <point x="219" y="444" type="line"/>
      <point x="423" y="243" type="line"/>
      <point x="423" y="262" type="line"/>
      <point x="219" y="61" type="line"/>
      <point x="231" y="48" type="line"/>
      <point x="453" y="245" type="line"/>
      <point x="453" y="260" type="line"/>
    </contour>
  </outline>
</glyph>
<glyph name="questiondown" format="1">
  <advance width="363"/>
  <unicode hex="00BF"/>
  <outline>
    <contour>
      <point x="228" y="498" type="curve" smooth="yes"/>
      <point x="209" y="498"/>
      <point x="197" y="483"/>
      <point x="197" y="468" type="curve" smooth="yes"/>
      <point x="197" y="451"/>
      <point x="209" y="438"/>
      <point x="228" y="438" type="curve" smooth="yes"/>
      <point x="247" y="438"/>
      <point x="259" y="451"/>
      <point x="259" y="468" type="curve" smooth="yes"/>
      <point x="259" y="483"/>
      <point x="247" y="498"/>
    </contour>
    <contour>
      <point x="44" y="-14" type="curve" smooth="yes"/>
      <point x="44" y="-133"/>
      <point x="139" y="-179"/>
      <point x="263" y="-210" type="curve"/>
      <point x="277" y="-206"/>
      <point x="286" y="-198"/>
      <point x="286" y="-184" type="curve" smooth="yes"/>
      <point x="286" y="-168"/>
      <point x="277" y="-155"/>
      <point x="250" y="-152" type="curve" smooth="yes"/>
      <point x="103" y="-133" type="line"/>
      <point x="214" y="-185" type="line"/>
      <point x="109" y="-135"/>
      <point x="68" y="-95"/>
      <point x="68" y="-20" type="curve" smooth="yes"/>
      <point x="68" y="39"/>
      <point x="85" y="72"/>
      <point x="151" y="115" type="curve" smooth="yes"/>
      <point x="179" y="133" type="line" smooth="yes"/>
      <point x="233" y="168"/>
      <point x="249" y="186"/>
      <point x="249" y="215" type="curve" smooth="yes"/>
      <point x="249" y="234"/>
      <point x="245" y="248"/>
      <point x="240" y="279" type="curve" smooth="yes"/>
      <point x="234" y="315" type="line"/>
      <point x="218" y="315" type="line"/>
      <point x="223" y="230" type="line" smooth="yes"/>
      <point x="225" y="194"/>
      <point x="212" y="183"/>
      <point x="165" y="154" type="curve" smooth="yes"/>
      <point x="131" y="133" type="line" smooth="yes"/>
      <point x="74" y="98"/>
      <point x="44" y="57"/>
    </contour>
  </outline>
</glyph>
<glyph name="Aacute" format="1">
  <advance width="653"/>
  <unicode hex="00C1"/>
  <outline>
    <contour>
      <point x="12" y="0" type="line"/>
      <point x="210" y="0" type="line"/>
      <point x="210" y="20" type="line"/>
      <point x="113" y="26" type="line"/>
      <point x="99" y="26" type="line"/>
      <point x="12" y="20" type="line"/>
    </contour>
    <contour>
      <point x="173" y="247" type="line"/>
      <point x="468" y="247" type="line"/>
      <point x="460" y="267" type="line"/>
      <point x="182" y="267" type="line"/>
    </contour>
    <contour>
      <point x="403" y="0" type="line"/>
      <point x="651" y="0" type="line"/>
      <point x="651" y="20" type="line"/>
      <point x="537" y="26" type="line"/>
      <point x="523" y="26" type="line"/>
      <point x="403" y="20" type="line"/>
    </contour>
    <contour>
      <point x="85" y="0" type="line"/>
      <point x="114" y="0" type="line"/>
      <point x="315" y="636" type="line"/>
      <point x="524" y="0" type="line"/>
      <point x="556" y="0" type="line"/>
      <point x="327" y="684" type="line"/>
      <point x="307" y="684" type="line"/>
    </contour>
    <contour>
      <point x="258" y="741" type="curve"/>
      <point x="266" y="730" type="line"/>
      <point x="305" y="754"/>
      <point x="344" y="779"/>
      <point x="381" y="802" type="curve" smooth="yes"/>
      <point x="414" y="822"/>
      <point x="426" y="830"/>
      <point x="426" y="842" type="curve" smooth="yes"/>
      <point x="426" y="852"/>
      <point x="418" y="859"/>
      <point x="408" y="859" type="curve" smooth="yes"/>
      <point x="398" y="859"/>
      <point x="389" y="852"/>
      <point x="361" y="829" type="curve" smooth="yes"/>
      <point x="330" y="803"/>
      <point x="294" y="772"/>
    </contour>
  </outline>
</glyph>
<glyph name="Igrave" format="1">
  <advance width="364"/>
  <unicode hex="00CC"/>
  <outline>
    <contour>
      <point x="175" y="27" type="line"/>
      <point x="58" y="20" type="line"/>
      <point x="58" y="0" type="line"/>
      <point x="306" y="0" type="line"/>
      <point x="306" y="20" type="line"/>
      <point x="189" y="27" type="line"/>
    </contour>
    <contour>
      <point x="175" y="650" type="line"/>
      <point x="189" y="650" type="line"/>
      <point x="306" y="657" type="line"/>
      <point x="306" y="677" type="line"/>
      <point x="58" y="677" type="line"/>
      <point x="58" y="657" type="line"/>
    </contour>
    <contour>
      <point x="167" y="310" type="line" smooth="yes"/>
      <point x="167" y="206"/>
      <point x="167" y="102"/>
      <point x="165" y="0" type="curve"/>
      <point x="199" y="0" type="line"/>
      <point x="197" y="102"/>
      <point x="197" y="206"/>
      <point x="197" y="310" type="curve" smooth="yes"/>
      <point x="197" y="367" type="line" smooth="yes"/>
      <point x="197" y="471"/>
      <point x="197" y="575"/>
      <point x="199" y="677" type="curve"/>
      <point x="165" y="677" type="line"/>
      <point x="167" y="575"/>
      <point x="167" y="471"/>
      <point x="167" y="367" type="curve" smooth="yes"/>
    </contour>
    <contour>
      <point x="226" y="741" type="line"/>
      <point x="190" y="771"/>
      <point x="154" y="802"/>
      <point x="123" y="828" type="curve" smooth="yes"/>
      <point x="95" y="852"/>
      <point x="86" y="859"/>
      <point x="76" y="859" type="curve" smooth="yes"/>
      <point x="66" y="859"/>
      <point x="58" y="852"/>
      <point x="58" y="842" type="curve" smooth="yes"/>
      <point x="58" y="830"/>
      <point x="71" y="823"/>
      <point x="104" y="801" type="curve" smooth="yes"/>
      <point x="140" y="778"/>
      <point x="179" y="753"/>
      <point x="218" y="730" type="curve"/>
    </contour>
  </outline>
</glyph>
<glyph name="Idieresis" format="1">
  <advance width="364"/>
  <unicode hex="00CF"/>
  <outline>
    <contour>
      <point x="175" y="27" type="line"/>
      <point x="58" y="20" type="line"/>
      <point x="58" y="0" type="line"/>
      <point x="306" y="0" type="line"/>
      <point x="306" y="20" type="line"/>
      <point x="189" y="27" type="line"/>
    </contour>
    <contour>
      <point x="175" y="650" type="line"/>
      <point x="189" y="650" type="line"/>
      <point x="306" y="657" type="line"/>
      <point x="306" y="677" type="line"/>
      <point x="58" y="677" type="line"/>
      <point x="58" y="657" type="line"/>
    </contour>
    <contour>
      <point x="167" y="310" type="line" smooth="yes"/>
      <point x="167" y="206"/>
      <point x="167" y="102"/>
      <point x="165" y="0" type="curve"/>
      <point x="199" y="0" type="line"/>
      <point x="197" y="102"/>
      <point x="197" y="206"/>
      <point x="197" y="310" type="curve" smooth="yes"/>
      <point x="197" y="367" type="line" smooth="yes"/>
      <point x="197" y="471"/>
      <point x="197" y="575"/>
      <point x="199" y="677" type="curve"/>
      <point x="165" y="677" type="line"/>
      <point x="167" y="575"/>
      <point x="167" y="471"/>
      <point x="167" y="367" type="curve" smooth="yes"/>
    </contour>
    <contour>
      <point x="79" y="756" type="curve" smooth="yes"/>
      <point x="96" y="756"/>
      <point x="111" y="768"/>
      <point x="111" y="788" type="curve" smooth="yes"/>
      <point x="111" y="808"/>
      <point x="96" y="820"/>
      <point x="79" y="820" type="curve" smooth="yes"/>
      <point x="63" y="820"/>
      <point x="47" y="808"/>
      <point x="47" y="788" type="curve" smooth="yes"/>
      <point x="47" y="768"/>
      <point x="63" y="756"/>
    </contour>
    <contour>
      <point x="285" y="756" type="curve" smooth="yes"/>
      <point x="301" y="756"/>
      <point x="317" y="768"/>
      <point x="317" y="788" type="curve" smooth="yes"/>
      <point x="317" y="808"/>
      <point x="301" y="820"/>
      <point x="285" y="820" type="curve" smooth="yes"/>
      <point x="268" y="820"/>
      <point x="253" y="808"/>
      <point x="253" y="788" type="curve" smooth="yes"/>
      <point x="253" y="768"/>
      <point x="268" y="756"/>
    </contour>
  </outline>
</glyph>
<glyph name="Ntilde" format="1">
  <advance width="732"/>
  <unicode hex="00D1"/>
  <outline>
    <contour>
      <point x="48" y="0" type="line"/>
      <point x="276" y="0" type="line"/>
      <point x="276" y="20" type="line"/>
      <point x="159" y="27" type="line"/>
      <point x="145" y="27" type="line"/>
      <point x="48" y="20" type="line"/>
    </contour>
    <contour>
      <point x="139" y="0" type="line"/>
      <point x="163" y="0" type="line"/>
      <point x="163" y="654" type="line"/>
      <point x="139" y="654" type="line"/>
    </contour>
    <contour>
      <point x="466" y="657" type="line"/>
      <point x="583" y="650" type="line"/>
      <point x="597" y="650" type="line"/>
      <point x="694" y="657" type="line"/>
      <point x="694" y="677" type="line"/>
      <point x="466" y="677" type="line"/>
    </contour>
    <contour>
      <point x="582" y="-7" type="line"/>
      <point x="602" y="-7" type="line"/>
      <point x="602" y="677" type="line"/>
      <point x="578" y="677" type="line"/>
      <point x="578" y="48" type="line"/>
      <point x="155" y="677" type="line"/>
      <point x="38" y="677" type="line"/>
      <point x="38" y="657" type="line"/>
      <point x="137" y="653" type="line"/>
    </contour>
    <contour>
      <point x="192" y="753" type="curve"/>
      <point x="208" y="748" type="line"/>
      <point x="222" y="796"/>
      <point x="244" y="822"/>
      <point x="280" y="822" type="curve" smooth="yes"/>
      <point x="310" y="822"/>
      <point x="326" y="806"/>
      <point x="347" y="783" type="curve" smooth="yes"/>
      <point x="365" y="762"/>
      <point x="389" y="741"/>
      <point x="428" y="741" type="curve" smooth="yes"/>
      <point x="478" y="741"/>
      <point x="511" y="779"/>
      <point x="520" y="832" type="curve"/>
      <point x="504" y="837" type="line"/>
      <point x="490" y="789"/>
      <point x="468" y="764"/>
      <point x="432" y="764" type="curve" smooth="yes"/>
      <point x="402" y="764"/>
      <point x="386" y="779"/>
      <point x="365" y="802" type="curve" smooth="yes"/>
      <point x="346" y="824"/>
      <point x="321" y="845"/>
      <point x="283" y="845" type="curve" smooth="yes"/>
      <point x="234" y="845"/>
      <point x="201" y="807"/>
    </contour>
  </outline>
</glyph>
<glyph name="Ograve" format="1">
  <advance width="706"/>
  <unicode hex="00D2"/>
  <outline>
    <contour>
      <point x="95" y="338" type="curve" smooth="yes"/>
      <point x="95" y="518"/>
      <point x="193" y="668"/>
      <point x="353" y="668" type="curve" smooth="yes"/>
      <point x="513" y="668"/>
      <point x="611" y="518"/>
      <point x="611" y="338" type="curve" smooth="yes"/>
      <point x="611" y="158"/>
      <point x="513" y="9"/>
      <point x="353" y="9" type="curve" smooth="yes"/>
      <point x="193" y="9"/>
      <point x="95" y="158"/>
    </contour>
    <contour>
      <point x="353" y="690" type="curve" smooth="yes"/>
      <point x="188" y="690"/>
      <point x="63" y="550"/>
      <point x="63" y="338" type="curve" smooth="yes"/>
      <point x="63" y="126"/>
      <point x="188" y="-13"/>
      <point x="353" y="-13" type="curve" smooth="yes"/>
      <point x="518" y="-13"/>
      <point x="643" y="126"/>
      <point x="643" y="338" type="curve" smooth="yes"/>
      <point x="643" y="550"/>
      <point x="518" y="690"/>
    </contour>
    <contour>
      <point x="398" y="741" type="line"/>
      <point x="362" y="771"/>
      <point x="326" y="802"/>
      <point x="295" y="828" type="curve" smooth="yes"/>
      <point x="267" y="852"/>
      <point x="258" y="859"/>
      <point x="248" y="859" type="curve" smooth="yes"/>
      <point x="238" y="859"/>
      <point x="230" y="852"/>
      <point x="230" y="842" type="curve" smooth="yes"/>
      <point x="230" y="830"/>
      <point x="243" y="823"/>
      <point x="276" y="801" type="curve" smooth="yes"/>
      <point x="312" y="778"/>
      <point x="351" y="753"/>
      <point x="390" y="730" type="curve"/>
    </contour>
  </outline>
</glyph>
<glyph name="Oacute" format="1">
  <advance width="706"/>
  <unicode hex="00D3"/>
  <outline>
    <contour>
      <point x="95" y="338" type="curve" smooth="yes"/>
      <point x="95" y="518"/>
      <point x="193" y="668"/>
      <point x="353" y="668" type="curve" smooth="yes"/>
      <point x="513" y="668"/>
      <point x="611" y="518"/>
      <point x="611" y="338" type="curve" smooth="yes"/>
      <point x="611" y="158"/>
      <point x="513" y="9"/>
      <point x="353" y="9" type="curve" smooth="yes"/>
      <point x="193" y="9"/>
      <point x="95" y="158"/>
    </contour>
    <contour>
      <point x="353" y="690" type="curve" smooth="yes"/>
      <point x="188" y="690"/>
      <point x="63" y="550"/>
      <point x="63" y="338" type="curve" smooth="yes"/>
      <point x="63" y="126"/>
      <point x="188" y="-13"/>
      <point x="353" y="-13" type="curve" smooth="yes"/>
      <point x="518" y="-13"/>
      <point x="643" y="126"/>
      <point x="643" y="338" type="curve" smooth="yes"/>
      <point x="643" y="550"/>
      <point x="518" y="690"/>
    </contour>
    <contour>
      <point x="310" y="741" type="curve"/>
      <point x="318" y="730" type="line"/>
      <point x="357" y="754"/>
      <point x="396" y="779"/>
      <point x="433" y="802" type="curve" smooth="yes"/>
      <point x="466" y="822"/>
      <point x="478" y="830"/>
      <point x="478" y="842" type="curve" smooth="yes"/>
      <point x="478" y="852"/>
      <point x="470" y="859"/>
      <point x="460" y="859" type="curve" smooth="yes"/>
      <point x="450" y="859"/>
      <point x="441" y="852"/>
      <point x="413" y="829" type="curve" smooth="yes"/>
      <point x="382" y="803"/>
      <point x="346" y="772"/>
    </contour>
  </outline>
</glyph>
<glyph name="Otilde" format="1">
  <advance width="706"/>
  <unicode hex="00D5"/>
  <outline>
    <contour>
      <point x="95" y="338" type="curve" smooth="yes"/>
      <point x="95" y="518"/>
      <point x="193" y="668"/>
      <point x="353" y="668" type="curve" smooth="yes"/>
      <point x="513" y="668"/>
      <point x="611" y="518"/>
      <point x="611" y="338" type="curve" smooth="yes"/>
      <point x="611" y="158"/>
      <point x="513" y="9"/>
      <point x="353" y="9" type="curve" smooth="yes"/>
      <point x="193" y="9"/>
      <point x="95" y="158"/>
    </contour>
    <contour>
      <point x="353" y="690" type="curve" smooth="yes"/>
      <point x="188" y="690"/>
      <point x="63" y="550"/>
      <point x="63" y="338" type="curve" smooth="yes"/>
      <point x="63" y="126"/>
      <point x="188" y="-13"/>
      <point x="353" y="-13" type="curve" smooth="yes"/>
      <point x="518" y="-13"/>
      <point x="643" y="126"/>
      <point x="643" y="338" type="curve" smooth="yes"/>
      <point x="643" y="550"/>
      <point x="518" y="690"/>
    </contour>
    <contour>
      <point x="190" y="753" type="curve"/>
      <point x="206" y="748" type="line"/>
      <point x="220" y="796"/>
      <point x="242" y="822"/>
      <point x="278" y="822" type="curve" smooth="yes"/>
      <point x="308" y="822"/>
      <point x="324" y="806"/>
      <point x="345" y="783" type="curve" smooth="yes"/>
      <point x="363" y="762"/>
      <point x="387" y="741"/>
      <point x="426" y="741" type="curve" smooth="yes"/>
      <point x="476" y="741"/>
      <point x="509" y="779"/>
      <point x="518" y="832" type="curve"/>
      <point x="502" y="837" type="line"/>
      <point x="488" y="789"/>
      <point x="466" y="764"/>
      <point x="430" y="764" type="curve" smooth="yes"/>
      <point x="400" y="764"/>
      <point x="384" y="779"/>
      <point x="363" y="802" type="curve" smooth="yes"/>
      <point x="344" y="824"/>
      <point x="319" y="845"/>
      <point x="281" y="845" type="curve" smooth="yes"/>
      <point x="232" y="845"/>
      <point x="199" y="807"/>
    </contour>
  </outline>
</glyph>
<glyph name="Yacute" format="1">
  <advance width="635"/>
  <unicode hex="00DD"/>
  <outline>
    <contour>
      <point x="311" y="27" type="line"/>
      <point x="184" y="20" type="line"/>
      <point x="184" y="0" type="line"/>
      <point x="452" y="0" type="line"/>
      <point x="452" y="20" type="line"/>
      <point x="325" y="27" type="line"/>
    </contour>
    <contour>
      <point x="123" y="650" type="line"/>
      <point x="137" y="650" type="line"/>
      <point x="254" y="657" type="line"/>
      <point x="254" y="677" type="line"/>
      <point x="31" y="677" type="line"/>
      <point x="31" y="657" type="line"/>
    </contour>
    <contour>
      <point x="516" y="650" type="line"/>
      <point x="609" y="657" type="line"/>
      <point x="609" y="677" type="line"/>
      <point x="386" y="677" type="line"/>
      <point x="386" y="657" type="line"/>
      <point x="502" y="650" type="line"/>
    </contour>
    <contour>
      <point x="301" y="0" type="curve"/>
      <point x="335" y="0" type="line"/>
      <point x="333" y="97"/>
      <point x="333" y="115"/>
      <point x="333" y="289" type="curve"/>
      <point x="303" y="289" type="line"/>
      <point x="303" y="115"/>
      <point x="303" y="97"/>
    </contour>
    <contour>
      <point x="323" y="253" type="line"/>
      <point x="536" y="677" type="line"/>
      <point x="510" y="677" type="line"/>
      <point x="313" y="279" type="line"/>
      <point x="328" y="283" type="line"/>
      <point x="131" y="677" type="line"/>
      <point x="99" y="677" type="line"/>
      <point x="314" y="250" type="line"/>
    </contour>
    <contour>
      <point x="296" y="741" type="curve"/>
      <point x="304" y="730" type="line"/>
      <point x="343" y="754"/>
      <point x="382" y="779"/>
      <point x="419" y="802" type="curve" smooth="yes"/>
      <point x="452" y="822"/>
      <point x="464" y="830"/>
      <point x="464" y="842" type="curve" smooth="yes"/>
      <point x="464" y="852"/>
      <point x="456" y="859"/>
      <point x="446" y="859" type="curve" smooth="yes"/>
      <point x="436" y="859"/>
      <point x="427" y="852"/>
      <point x="399" y="829" type="curve" smooth="yes"/>
      <point x="368" y="803"/>
      <point x="332" y="772"/>
    </contour>
  </outline>
</glyph>
<glyph name="ccedilla" format="1">
  <advance width="488"/>
  <unicode hex="00E7"/>
  <outline>
    <contour>
      <point x="278" y="463" type="curve" smooth="yes"/>
      <point x="319" y="463"/>
      <point x="353" y="451"/>
      <point x="396" y="418" type="curve"/>
      <point x="364" y="451" type="line"/>
      <point x="393" y="377" type="line" smooth="yes"/>
      <point x="398" y="364"/>
      <point x="406" y="358"/>
      <point x="419" y="358" type="curve" smooth="yes"/>
      <point x="430" y="358"/>
      <point x="438" y="365"/>
      <point x="441" y="378" type="curve"/>
      <point x="411" y="448"/>
      <point x="350" y="483"/>
      <point x="280" y="483" type="curve" smooth="yes"/>
      <point x="162" y="483"/>
      <point x="52" y="392"/>
      <point x="52" y="235" type="curve" smooth="yes"/>
      <point x="52" y="88"/>
      <point x="143" y="-13"/>
      <point x="272" y="-13" type="curve" smooth="yes"/>
      <point x="349" y="-13"/>
      <point x="402" y="21"/>
      <point x="442" y="69" type="curve"/>
      <point x="431" y="79" type="line"/>
      <point x="388" y="35"/>
      <point x="333" y="13"/>
      <point x="274" y="13" type="curve" smooth="yes"/>
      <point x="164" y="13"/>
      <point x="84" y="105"/>
      <point x="84" y="236" type="curve" smooth="yes"/>
      <point x="84" y="371"/>
      <point x="169" y="463"/>
    </contour>
    <contour>
      <point x="243" y="-77" type="line"/>
      <point x="309" y="-77"/>
      <point x="332" y="-102"/>
      <point x="332" y="-138" type="curve" smooth="yes"/>
      <point x="332" y="-172"/>
      <point x="311" y="-195"/>
      <point x="265" y="-195" type="curve" smooth="yes"/>
      <point x="249" y="-195"/>
      <point x="231" y="-192"/>
      <point x="211" y="-188" type="curve"/>
      <point x="207" y="-203" type="line"/>
      <point x="228" y="-210"/>
      <point x="247" y="-214"/>
      <point x="269" y="-214" type="curve" smooth="yes"/>
      <point x="329" y="-214"/>
      <point x="362" y="-182"/>
      <point x="362" y="-137" type="curve" smooth="yes"/>
      <point x="362" y="-93"/>
      <point x="323" y="-60"/>
      <point x="258" y="-59" type="curve"/>
      <point x="266" y="-74" type="line"/>
      <point x="276" y="0" type="line"/>
      <point x="256" y="0" type="line"/>
    </contour>
  </outline>
</glyph>
<glyph name="egrave" format="1">
  <advance width="491"/>
  <unicode hex="00E8"/>
  <outline>
    <contour>
      <point x="265" y="483" type="curve" smooth="yes"/>
      <point x="154" y="483"/>
      <point x="52" y="389"/>
      <point x="52" y="237" type="curve" smooth="yes"/>
      <point x="52" y="62"/>
      <point x="163" y="-13"/>
      <point x="273" y="-13" type="curve" smooth="yes"/>
      <point x="338" y="-13"/>
      <point x="401" y="16"/>
      <point x="441" y="66" type="curve"/>
      <point x="430" y="77" type="line"/>
      <point x="390" y="35"/>
      <point x="337" y="13"/>
      <point x="273" y="13" type="curve" smooth="yes"/>
      <point x="178" y="13"/>
      <point x="84" y="80"/>
      <point x="84" y="248" type="curve" smooth="yes"/>
      <point x="84" y="360"/>
      <point x="158" y="463"/>
      <point x="265" y="463" type="curve" smooth="yes"/>
      <point x="363" y="463"/>
      <point x="415" y="385"/>
      <point x="415" y="302" type="curve" smooth="yes"/>
      <point x="415" y="273"/>
      <point x="409" y="263"/>
      <point x="395" y="263" type="curve" smooth="yes"/>
      <point x="70" y="264" type="line"/>
      <point x="70" y="243" type="line"/>
      <point x="439" y="242" type="line"/>
      <point x="443" y="257"/>
      <point x="445" y="275"/>
      <point x="445" y="299" type="curve" smooth="yes"/>
      <point x="445" y="397"/>
      <point x="381" y="483"/>
    </contour>
    <contour>
      <point x="302" y="572" type="line"/>
      <point x="266" y="621"/>
      <point x="229" y="671"/>
      <point x="201" y="707" type="curve" smooth="yes"/>
      <point x="183" y="730"/>
      <point x="177" y="738"/>
      <point x="167" y="738" type="curve" smooth="yes"/>
      <point x="158" y="738"/>
      <point x="150" y="732"/>
      <point x="150" y="721" type="curve" smooth="yes"/>
      <point x="150" y="711"/>
      <point x="159" y="702"/>
      <point x="179" y="681" type="curve" smooth="yes"/>
      <point x="208" y="651"/>
      <point x="249" y="607"/>
      <point x="291" y="563" type="curve"/>
    </contour>
  </outline>
</glyph>
<glyph name="igrave" format="1">
  <advance width="303"/>
  <unicode hex="00EC"/>
  <outline>
    <contour>
      <point x="137" y="0" type="curve"/>
      <point x="171" y="0" type="line"/>
      <point x="169" y="45"/>
      <point x="168" y="148"/>
      <point x="168" y="210" type="curve" smooth="yes"/>
      <point x="168" y="356" type="line"/>
      <point x="170" y="472" type="line"/>
      <point x="160" y="478" type="line"/>
      <point x="44" y="466" type="line"/>
      <point x="44" y="446" type="line"/>
      <point x="137" y="446" type="line"/>
      <point x="139" y="395"/>
      <point x="140" y="329"/>
      <point x="140" y="259" type="curve" smooth="yes"/>
      <point x="140" y="210" type="line" smooth="yes"/>
      <point x="140" y="148"/>
      <point x="139" y="45"/>
    </contour>
    <contour>
      <point x="48" y="0" type="line"/>
      <point x="251" y="0" type="line"/>
      <point x="251" y="20" type="line"/>
      <point x="157" y="26" type="line"/>
      <point x="148" y="26" type="line"/>
      <point x="48" y="20" type="line"/>
    </contour>
    <contour>
      <point x="164" y="572" type="line"/>
      <point x="128" y="621"/>
      <point x="91" y="671"/>
      <point x="63" y="707" type="curve" smooth="yes"/>
      <point x="45" y="730"/>
      <point x="39" y="738"/>
      <point x="29" y="738" type="curve" smooth="yes"/>
      <point x="20" y="738"/>
      <point x="12" y="732"/>
      <point x="12" y="721" type="curve" smooth="yes"/>
      <point x="12" y="711"/>
      <point x="21" y="702"/>
      <point x="41" y="681" type="curve" smooth="yes"/>
      <point x="70" y="651"/>
      <point x="111" y="607"/>
      <point x="153" y="563" type="curve"/>
    </contour>
  </outline>
</glyph>
<glyph name="ntilde" format="1">
  <advance width="604"/>
  <unicode hex="00F1"/>
  <outline>
    <contour>
      <point x="166" y="0" type="line"/>
      <point x="164" y="45"/>
      <point x="163" y="148"/>
      <point x="163" y="210" type="curve" smooth="yes"/>
      <point x="163" y="364" type="line"/>
      <point x="161" y="472" type="line"/>
      <point x="151" y="478" type="line"/>
      <point x="39" y="466" type="line"/>
      <point x="39" y="446" type="line"/>
      <point x="132" y="446" type="line"/>
      <point x="134" y="395"/>
      <point x="135" y="329"/>
      <point x="135" y="259" type="curve" smooth="yes"/>
      <point x="135" y="210" type="line" smooth="yes"/>
      <point x="135" y="148"/>
      <point x="134" y="45"/>
      <point x="132" y="0" type="curve"/>
    </contour>
    <contour>
      <point x="152" y="26" type="line"/>
      <point x="143" y="26" type="line"/>
      <point x="43" y="20" type="line"/>
      <point x="43" y="0" type="line"/>
      <point x="246" y="0" type="line"/>
      <point x="246" y="20" type="line"/>
    </contour>
    <contour>
      <point x="464" y="26" type="line"/>
      <point x="364" y="20" type="line"/>
      <point x="364" y="0" type="line"/>
      <point x="567" y="0" type="line"/>
      <point x="567" y="20" type="line"/>
      <point x="473" y="26" type="line"/>
    </contour>
    <contour>
      <point x="363" y="483" type="curve" smooth="yes"/>
      <point x="300" y="483"/>
      <point x="228" y="451"/>
      <point x="149" y="354" type="curve"/>
      <point x="156" y="337" type="line"/>
      <point x="240" y="435"/>
      <point x="313" y="455"/>
      <point x="356" y="455" type="curve" smooth="yes"/>
      <point x="415" y="455"/>
      <point x="456" y="417"/>
      <point x="456" y="315" type="curve" smooth="yes"/>
      <point x="456" y="210" type="line" smooth="yes"/>
      <point x="456" y="146"/>
      <point x="455" y="45"/>
      <point x="453" y="0" type="curve"/>
      <point x="487" y="0" type="line"/>
      <point x="485" y="45"/>
      <point x="484" y="146"/>
      <point x="484" y="210" type="curve" smooth="yes"/>
      <point x="484" y="314" type="line" smooth="yes"/>
      <point x="484" y="439"/>
      <point x="437" y="483"/>
    </contour>
    <contour>
      <point x="154" y="600" type="curve"/>
      <point x="169" y="595" type="line"/>
      <point x="181" y="643"/>
      <point x="201" y="669"/>
      <point x="234" y="669" type="curve" smooth="yes"/>
      <point x="261" y="669"/>
      <point x="274" y="653"/>
      <point x="293" y="630" type="curve" smooth="yes"/>
      <point x="309" y="609"/>
      <point x="332" y="588"/>
      <point x="367" y="588" type="curve" smooth="yes"/>
      <point x="412" y="588"/>
      <point x="442" y="626"/>
      <point x="450" y="679" type="curve"/>
      <point x="435" y="684" type="line"/>
      <point x="423" y="636"/>
      <point x="403" y="611"/>
      <point x="370" y="611" type="curve" smooth="yes"/>
      <point x="343" y="611"/>
      <point x="330" y="626"/>
      <point x="311" y="649" type="curve" smooth="yes"/>
      <point x="294" y="671"/>
      <point x="270" y="692"/>
      <point x="237" y="692" type="curve" smooth="yes"/>
      <point x="192" y="692"/>
      <point x="162" y="654"/>
    </contour>
  </outline>
</glyph>
<glyph name="ocircumflex" format="1">
  <advance width="538"/>
  <unicode hex="00F4"/>
  <outline>
    <contour>
      <point x="269" y="-13" type="curve" smooth="yes"/>
      <point x="376" y="-13"/>
      <point x="486" y="62"/>
      <point x="486" y="233" type="curve" smooth="yes"/>
      <point x="486" y="404"/>
      <point x="376" y="483"/>
      <point x="269" y="483" type="curve" smooth="yes"/>
      <point x="162" y="483"/>
      <point x="52" y="404"/>
      <point x="52" y="233" type="curve" smooth="yes"/>
      <point x="52" y="62"/>
      <point x="162" y="-13"/>
    </contour>
    <contour>
      <point x="269" y="7" type="curve" smooth="yes"/>
      <point x="158" y="7"/>
      <point x="84" y="92"/>
      <point x="84" y="233" type="curve" smooth="yes"/>
      <point x="84" y="374"/>
      <point x="158" y="463"/>
      <point x="269" y="463" type="curve" smooth="yes"/>
      <point x="380" y="463"/>
      <point x="454" y="374"/>
      <point x="454" y="233" type="curve" smooth="yes"/>
      <point x="454" y="92"/>
      <point x="380" y="7"/>
    </contour>
    <contour>
      <point x="378" y="553" type="line"/>
      <point x="389" y="562" type="line"/>
      <point x="276" y="719" type="line"/>
      <point x="262" y="719" type="line"/>
      <point x="149" y="562" type="line"/>
      <point x="160" y="553" type="line"/>
      <point x="276" y="688" type="line"/>
      <point x="262" y="688" type="line"/>
    </contour>
  </outline>
</glyph>
<glyph name="ugrave" format="1">
  <advance width="604"/>
  <unicode hex="00F9"/>
  <outline>
    <contour>
      <point x="153" y="324" type="line"/>
      <point x="157" y="462" type="line"/>
      <point x="148" y="474" type="line"/>
      <point x="39" y="468" type="line"/>
      <point x="39" y="448" type="line"/>
      <point x="140" y="441" type="line"/>
      <point x="127" y="452" type="line"/>
      <point x="125" y="175" type="line" smooth="yes"/>
      <point x="124" y="33"/>
      <point x="168" y="-13"/>
      <point x="261" y="-13" type="curve" smooth="yes"/>
      <point x="344" y="-13"/>
      <point x="404" y="39"/>
      <point x="452" y="103" type="curve"/>
      <point x="446" y="122" type="line"/>
      <point x="395" y="54"/>
      <point x="333" y="15"/>
      <point x="266" y="15" type="curve" smooth="yes"/>
      <point x="194" y="15"/>
      <point x="153" y="57"/>
      <point x="153" y="178" type="curve" smooth="yes"/>
    </contour>
    <contour>
      <point x="553" y="0" type="line"/>
      <point x="553" y="20" type="line"/>
      <point x="474" y="25" type="line"/>
      <point x="474" y="324" type="line"/>
      <point x="478" y="462" type="line"/>
      <point x="469" y="474" type="line"/>
      <point x="360" y="468" type="line"/>
      <point x="360" y="447" type="line"/>
      <point x="446" y="442" type="line"/>
      <point x="446" y="110" type="line"/>
      <point x="443" y="-6" type="line"/>
    </contour>
    <contour>
      <point x="329" y="572" type="line"/>
      <point x="293" y="621"/>
      <point x="256" y="671"/>
      <point x="228" y="707" type="curve" smooth="yes"/>
      <point x="210" y="730"/>
      <point x="204" y="738"/>
      <point x="194" y="738" type="curve" smooth="yes"/>
      <point x="185" y="738"/>
      <point x="177" y="732"/>
      <point x="177" y="721" type="curve" smooth="yes"/>
      <point x="177" y="711"/>
      <point x="186" y="702"/>
      <point x="206" y="681" type="curve" smooth="yes"/>
      <point x="235" y="651"/>
      <point x="276" y="607"/>
      <point x="318" y="563" type="curve"/>
    </contour>
  </outline>
</glyph>
<glyph name="ydieresis" format="1">
  <advance width="492"/>
  <unicode hex="00FF"/>
  <outline>
    <contour>
      <point x="415" y="444" type="line"/>
      <point x="493" y="450" type="line"/>
      <point x="493" y="470" type="line"/>
      <point x="310" y="470" type="line"/>
      <point x="310" y="450" type="line"/>
      <point x="406" y="444" type="line"/>
    </contour>
    <contour>
      <point x="84" y="444" type="line"/>
      <point x="180" y="450" type="line"/>
      <point x="180" y="470" type="line"/>
      <point x="-14" y="470" type="line"/>
      <point x="-14" y="450" type="line"/>
      <point x="75" y="444" type="line"/>
    </contour>
    <contour>
      <point x="256" y="6" type="line"/>
      <point x="83" y="470" type="line"/>
      <point x="50" y="470" type="line"/>
      <point x="242" y="-26" type="line"/>
    </contour>
    <contour>
      <point x="51" y="-255" type="curve" smooth="yes"/>
      <point x="120" y="-255"/>
      <point x="187" y="-196"/>
      <point x="232" y="-75" type="curve" smooth="yes"/>
      <point x="434" y="470" type="line"/>
      <point x="408" y="470" type="line"/>
      <point x="243" y="13" type="line"/>
      <point x="211" y="-73" type="line" smooth="yes"/>
      <point x="174" y="-173"/>
      <point x="113" y="-236"/>
      <point x="51" y="-236" type="curve"/>
      <point x="68" y="-248" type="line"/>
      <point x="88" y="-244" type="line"/>
      <point x="65" y="-227" type="line" smooth="yes"/>
      <point x="47" y="-214"/>
      <point x="29" y="-205"/>
      <point x="13" y="-205" type="curve" smooth="yes"/>
      <point x="-3" y="-205"/>
      <point x="-16" y="-212"/>
      <point x="-19" y="-225" type="curve"/>
      <point x="-11" y="-247"/>
      <point x="21" y="-255"/>
    </contour>
    <contour>
      <point x="350" y="644" type="curve" smooth="yes"/>
      <point x="365" y="644"/>
      <point x="379" y="655"/>
      <point x="379" y="674" type="curve" smooth="yes"/>
      <point x="379" y="692"/>
      <point x="365" y="703"/>
      <point x="350" y="703" type="curve" smooth="yes"/>
      <point x="335" y="703"/>
      <point x="321" y="692"/>
      <point x="321" y="674" type="curve" smooth="yes"/>
      <point x="321" y="655"/>
      <point x="335" y="644"/>
    </contour>
    <contour>
      <point x="162" y="644" type="curve" smooth="yes"/>
      <point x="177" y="644"/>
      <point x="191" y="655"/>
      <point x="191" y="674" type="curve" smooth="yes"/>
      <point x="191" y="692"/>
      <point x="177" y="703"/>
      <point x="162" y="703" type="curve" smooth="yes"/>
      <point x="147" y="703"/>
      <point x="133" y="692"/>
      <point x="133" y="674" type="curve" smooth="yes"/>
      <point x="133" y="655"/>
      <point x="147" y="644"/>
    </contour>
  </outline>
</glyph>
<glyph name="Cacute" format="1">
  <advance width="644"/>
  <unicode hex="0106"/>
  <outline>
    <contour>
      <point x="386" y="9" type="curve" smooth="yes"/>
      <point x="219" y="9"/>
      <point x="96" y="135"/>
      <point x="96" y="338" type="curve" smooth="yes"/>
      <point x="96" y="537"/>
      <point x="212" y="668"/>
      <point x="392" y="668" type="curve" smooth="yes"/>
      <point x="465" y="668"/>
      <point x="505" y="651"/>
      <point x="561" y="614" type="curve"/>
      <point x="561" y="634" type="line"/>
      <point x="540" y="643" type="line"/>
      <point x="558" y="498" type="line"/>
      <point x="582" y="498" type="line"/>
      <point x="578" y="637" type="line"/>
      <point x="518" y="672"/>
      <point x="469" y="690"/>
      <point x="389" y="690" type="curve" smooth="yes"/>
      <point x="199" y="690"/>
      <point x="64" y="548"/>
      <point x="64" y="338" type="curve" smooth="yes"/>
      <point x="64" y="129"/>
      <point x="193" y="-13"/>
      <point x="388" y="-13" type="curve" smooth="yes"/>
      <point x="460" y="-13"/>
      <point x="517" y="-1"/>
      <point x="584" y="40" type="curve"/>
      <point x="588" y="179" type="line"/>
      <point x="564" y="179" type="line"/>
      <point x="546" y="40" type="line"/>
      <point x="563" y="44" type="line"/>
      <point x="563" y="60" type="line"/>
      <point x="508" y="23"/>
      <point x="453" y="9"/>
    </contour>
    <contour>
      <point x="332" y="741" type="curve"/>
      <point x="340" y="730" type="line"/>
      <point x="379" y="754"/>
      <point x="418" y="779"/>
      <point x="455" y="802" type="curve" smooth="yes"/>
      <point x="488" y="822"/>
      <point x="500" y="830"/>
      <point x="500" y="842" type="curve" smooth="yes"/>
      <point x="500" y="852"/>
      <point x="492" y="859"/>
      <point x="482" y="859" type="curve" smooth="yes"/>
      <point x="472" y="859"/>
      <point x="463" y="852"/>
      <point x="435" y="829" type="curve" smooth="yes"/>
      <point x="404" y="803"/>
      <point x="368" y="772"/>
    </contour>
  </outline>
</glyph>
<glyph name="ccircumflex" format="1">
  <advance width="488"/>
  <unicode hex="0109"/>
  <outline>
    <contour>
      <point x="278" y="463" type="curve" smooth="yes"/>
      <point x="319" y="463"/>
      <point x="353" y="451"/>
      <point x="396" y="418" type="curve"/>
      <point x="364" y="451" type="line"/>
      <point x="393" y="377" type="line" smooth="yes"/>
      <point x="398" y="364"/>
      <point x="406" y="358"/>
      <point x="419" y="358" type="curve" smooth="yes"/>
      <point x="430" y="358"/>
      <point x="438" y="365"/>
      <point x="441" y="378" type="curve"/>
      <point x="411" y="448"/>
      <point x="350" y="483"/>
      <point x="280" y="483" type="curve" smooth="yes"/>
      <point x="162" y="483"/>
      <point x="52" y="392"/>
      <point x="52" y="235" type="curve" smooth="yes"/>
      <point x="52" y="88"/>
      <point x="143" y="-13"/>
      <point x="272" y="-13" type="curve" smooth="yes"/>
      <point x="349" y="-13"/>
      <point x="402" y="21"/>
      <point x="442" y="69" type="curve"/>
      <point x="431" y="79" type="line"/>
      <point x="388" y="35"/>
      <point x="333" y="13"/>
      <point x="274" y="13" type="curve" smooth="yes"/>
      <point x="164" y="13"/>
      <point x="84" y="105"/>
      <point x="84" y="236" type="curve" smooth="yes"/>
      <point x="84" y="371"/>
      <point x="169" y="463"/>
    </contour>
    <contour>
      <point x="389" y="553" type="line"/>
      <point x="400" y="562" type="line"/>
      <point x="287" y="719" type="line"/>
      <point x="273" y="719" type="line"/>
      <point x="160" y="562" type="line"/>
      <point x="171" y="553" type="line"/>
      <point x="287" y="688" type="line"/>
      <point x="273" y="688" type="line"/>
    </contour>
  </outline>
</glyph>
<glyph name="Ccaron" format="1">
  <advance width="644"/>
  <unicode hex="010C"/>
  <outline>
    <contour>
      <point x="386" y="9" type="curve" smooth="yes"/>
      <point x="219" y="9"/>
      <point x="96" y="135"/>
      <point x="96" y="338" type="curve" smooth="yes"/>
      <point x="96" y="537"/>
      <point x="212" y="668"/>
      <point x="392" y="668" type="curve" smooth="yes"/>
      <point x="465" y="668"/>
      <point x="505" y="651"/>
      <point x="561" y="614" type="curve"/>
      <point x="561" y="634" type="line"/>
      <point x="540" y="643" type="line"/>
      <point x="558" y="498" type="line"/>
      <point x="582" y="498" type="line"/>
      <point x="578" y="637" type="line"/>
      <point x="518" y="672"/>
      <point x="469" y="690"/>
      <point x="389" y="690" type="curve" smooth="yes"/>
      <point x="199" y="690"/>
      <point x="64" y="548"/>
      <point x="64" y="338" type="curve" smooth="yes"/>
      <point x="64" y="129"/>
      <point x="193" y="-13"/>
      <point x="388" y="-13" type="curve" smooth="yes"/>
      <point x="460" y="-13"/>
      <point x="517" y="-1"/>
      <point x="584" y="40" type="curve"/>
      <point x="588" y="179" type="line"/>
      <point x="564" y="179" type="line"/>
      <point x="546" y="40" type="line"/>
      <point x="563" y="44" type="line"/>
      <point x="563" y="60" type="line"/>
      <point x="508" y="23"/>
      <point x="453" y="9"/>
    </contour>
    <contour>
      <point x="266" y="865" type="line"/>
      <point x="255" y="854" type="line"/>
      <point x="366" y="740" type="line"/>
      <point x="386" y="740" type="line"/>
      <point x="497" y="854" type="line"/>
      <point x="486" y="865" type="line"/>
      <point x="367" y="764" type="line"/>
      <point x="385" y="764" type="line"/>
    </contour>
  </outline>
</glyph>
<glyph name="dcaron" format="1">
  <advance width="585"/>
  <unicode hex="010F"/>
  <outline>
    <contour>
      <point x="84" y="227" type="curve" smooth="yes"/>
      <point x="84" y="385"/>
      <point x="164" y="458"/>
      <point x="264" y="458" type="curve" smooth="yes"/>
      <point x="325" y="458"/>
      <point x="371" y="429"/>
      <point x="417" y="373" type="curve"/>
      <point x="425" y="386" type="line"/>
      <point x="378" y="454"/>
      <point x="317" y="483"/>
      <point x="264" y="483" type="curve" smooth="yes"/>
      <point x="144" y="483"/>
      <point x="52" y="387"/>
      <point x="52" y="227" type="curve" smooth="yes"/>
      <point x="52" y="88"/>
      <point x="133" y="-13"/>
      <point x="249" y="-13" type="curve" smooth="yes"/>
      <point x="313" y="-13"/>
      <point x="376" y="14"/>
      <point x="426" y="89" type="curve"/>
      <point x="417" y="104" type="line"/>
      <point x="366" y="38"/>
      <point x="316" y="12"/>
      <point x="252" y="12" type="curve" smooth="yes"/>
      <point x="158" y="12"/>
      <point x="84" y="87"/>
    </contour>
    <contour>
      <point x="546" y="0" type="line"/>
      <point x="546" y="20" type="line"/>
      <point x="440" y="25" type="line"/>
      <point x="440" y="602" type="line"/>
      <point x="442" y="740" type="line"/>
      <point x="428" y="748" type="line"/>
      <point x="321" y="736" type="line"/>
      <point x="321" y="716" type="line"/>
      <point x="412" y="716" type="line"/>
      <point x="412" y="394" type="line"/>
      <point x="412" y="389" type="line"/>
      <point x="412" y="87" type="line"/>
      <point x="409" y="-6" type="line"/>
    </contour>
    <contour>
      <point x="555" y="754" type="curve" smooth="yes"/>
      <point x="548" y="754"/>
      <point x="542" y="752"/>
      <point x="537" y="748" type="curve"/>
      <point x="535" y="530" type="line"/>
      <point x="550" y="530" type="line"/>
      <point x="558" y="602" type="line" smooth="yes"/>
      <point x="564" y="659"/>
      <point x="571" y="704"/>
      <point x="571" y="732" type="curve" smooth="yes"/>
      <point x="571" y="747"/>
      <point x="566" y="754"/>
    </contour>
  </outline>
</glyph>
<glyph name="ebreve" format="1">
  <advance width="491"/>
  <unicode hex="0115"/>
  <outline>
    <contour>
      <point x="265" y="483" type="curve" smooth="yes"/>
      <point x="154" y="483"/>
      <point x="52" y="389"/>
      <point x="52" y="237" type="curve" smooth="yes"/>
      <point x="52" y="62"/>
      <point x="163" y="-13"/>
      <point x="273" y="-13" type="curve" smooth="yes"/>
      <point x="338" y="-13"/>
      <point x="401" y="16"/>
      <point x="441" y="66" type="curve"/>
      <point x="430" y="77" type="line"/>
      <point x="390" y="35"/>
      <point x="337" y="13"/>
      <point x="273" y="13" type="curve" smooth="yes"/>
      <point x="178" y="13"/>
      <point x="84" y="80"/>
      <point x="84" y="248" type="curve" smooth="yes"/>
      <point x="84" y="360"/>
      <point x="158" y="463"/>
      <point x="265" y="463" type="curve" smooth="yes"/>
      <point x="363" y="463"/>
      <point x="415" y="385"/>
      <point x="415" y="302" type="curve" smooth="yes"/>
      <point x="415" y="273"/>
      <point x="409" y="263"/>
      <point x="395" y="263" type="curve" smooth="yes"/>
      <point x="70" y="264" type="line"/>
      <point x="70" y="243" type="line"/>
      <point x="439" y="242" type="line"/>
      <point x="443" y="257"/>
      <point x="445" y="275"/>
      <point x="445" y="299" type="curve" smooth="yes"/>
      <point x="445" y="397"/>
      <point x="381" y="483"/>
    </contour>
    <contour>
      <point x="128" y="726" type="line"/>
      <point x="140" y="643"/>
      <point x="194" y="585"/>
      <point x="269" y="585" type="curve" smooth="yes"/>
      <point x="344" y="585"/>
      <point x="398" y="643"/>
      <point x="410" y="726" type="curve"/>
      <point x="395" y="730" type="line"/>
      <point x="375" y="661"/>
      <point x="338" y="612"/>
      <point x="269" y="612" type="curve" smooth="yes"/>
      <point x="200" y="612"/>
      <point x="163" y="661"/>
      <point x="143" y="730" type="curve"/>
    </contour>
  </outline>
</glyph>
<glyph name="edotaccent" format="1">
  <advance width="491"/>
  <unicode hex="0117"/>
  <outline>
    <contour>
      <point x="265" y="483" type="curve" smooth="yes"/>
      <point x="154" y="483"/>
      <point x="52" y="389"/>
      <point x="52" y="237" type="curve" smooth="yes"/>
      <point x="52" y="62"/>
      <point x="163" y="-13"/>
      <point x="273" y="-13" type="curve" smooth="yes"/>
      <point x="338" y="-13"/>
      <point x="401" y="16"/>
      <point x="441" y="66" type="curve"/>
      <point x="430" y="77" type="line"/>
      <point x="390" y="35"/>
      <point x="337" y="13"/>
      <point x="273" y="13" type="curve" smooth="yes"/>
      <point x="178" y="13"/>
      <point x="84" y="80"/>
      <point x="84" y="248" type="curve" smooth="yes"/>
      <point x="84" y="360"/>
      <point x="158" y="463"/>
      <point x="265" y="463" type="curve" smooth="yes"/>
      <point x="363" y="463"/>
      <point x="415" y="385"/>
      <point x="415" y="302" type="curve" smooth="yes"/>
      <point x="415" y="273"/>
      <point x="409" y="263"/>
      <point x="395" y="263" type="curve" smooth="yes"/>
      <point x="70" y="264" type="line"/>
      <point x="70" y="243" type="line"/>
      <point x="439" y="242" type="line"/>
      <point x="443" y="257"/>
      <point x="445" y="275"/>
      <point x="445" y="299" type="curve" smooth="yes"/>
      <point x="445" y="397"/>
      <point x="381" y="483"/>
    </contour>
    <contour>
      <point x="269" y="625" type="curve" smooth="yes"/>
      <point x="285" y="625"/>
      <point x="301" y="638"/>
      <point x="301" y="657" type="curve" smooth="yes"/>
      <point x="301" y="676"/>
      <point x="285" y="689"/>
      <point x="269" y="689" type="curve" smooth="yes"/>
      <point x="253" y="689"/>
      <point x="237" y="676"/>
      <point x="237" y="657" type="curve" smooth="yes"/>
      <point x="237" y="638"/>
      <point x="253" y="625"/>
    </contour>
  </outline>
</glyph>
<glyph name="Eogonek" format="1">
  <advance width="601"/>
  <unicode hex="0118"/>
  <outline>
    <contour>
      <point x="175" y="650" type="line"/>
      <point x="182" y="650" type="line"/>
      <point x="182" y="677" type="line"/>
      <point x="58" y="677" type="line"/>
      <point x="58" y="657" type="line"/>
    </contour>
    <contour>
      <point x="175" y="27" type="line"/>
      <point x="58" y="20" type="line"/>
      <point x="58" y="0" type="line"/>
      <point x="182" y="0" type="line"/>
      <point x="182" y="27" type="line"/>
    </contour>
    <contour>
      <point x="167" y="310" type="line" smooth="yes"/>
      <point x="167" y="206"/>
      <point x="167" y="102"/>
      <point x="165" y="0" type="curve"/>
      <point x="199" y="0" type="line"/>
      <point x="197" y="102"/>
      <point x="197" y="206"/>
      <point x="197" y="340" type="curve" smooth="yes"/>
      <point x="197" y="347" type="line" smooth="yes"/>
      <point x="197" y="471"/>
      <point x="197" y="575"/>
      <point x="199" y="677" type="curve"/>
      <point x="165" y="677" type="line"/>
      <point x="167" y="575"/>
      <point x="167" y="471"/>
      <point x="167" y="367" type="curve" smooth="yes"/>
    </contour>
    <contour>
      <point x="394" y="332" type="line"/>
      <point x="404" y="234" type="line"/>
      <point x="423" y="234" type="line"/>
      <point x="423" y="450" type="line"/>
      <point x="404" y="450" type="line"/>
      <point x="394" y="352" type="line"/>
    </contour>
    <contour>
      <point x="403" y="353" type="line"/>
      <point x="182" y="353" type="line"/>
      <point x="182" y="331" type="line"/>
      <point x="403" y="331" type="line"/>
    </contour>
    <contour>
      <point x="518" y="524" type="line"/>
      <point x="542" y="524" type="line"/>
      <point x="532" y="677" type="line"/>
      <point x="182" y="677" type="line"/>
      <point x="182" y="655" type="line"/>
      <point x="502" y="655" type="line"/>
    </contour>
    <contour>
      <point x="532" y="153" type="line"/>
      <point x="516" y="22" type="line"/>
      <point x="182" y="22" type="line"/>
      <point x="182" y="0" type="line"/>
      <point x="546" y="0" type="line"/>
      <point x="556" y="153" type="line"/>
    </contour>
    <contour>
      <point x="399" y="-133" type="curve" smooth="yes"/>
      <point x="399" y="-192"/>
      <point x="438" y="-223"/>
      <point x="485" y="-223" type="curve" smooth="yes"/>
      <point x="523" y="-223"/>
      <point x="553" y="-207"/>
      <point x="570" y="-183" type="curve"/>
      <point x="560" y="-173" type="line"/>
      <point x="536" y="-193"/>
      <point x="518" y="-199"/>
      <point x="494" y="-199" type="curve" smooth="yes"/>
      <point x="455" y="-199"/>
      <point x="427" y="-173"/>
      <point x="427" y="-122" type="curve" smooth="yes"/>
      <point x="427" y="-81"/>
      <point x="454" y="-29"/>
      <point x="493" y="5" type="curve"/>
      <point x="474" y="5" type="line"/>
      <point x="438" y="-26"/>
      <point x="399" y="-77"/>
    </contour>
    <contour>
      <point x="325" y="682" type="move" name="aboveUC"/>
    </contour>
  </outline>
</glyph>
<glyph name="Gcommaaccent" format="1">
  <advance width="685"/>
  <unicode hex="0122"/>
  <outline>
    <contour>
      <point x="577" y="293" type="line"/>
      <point x="591" y="293" type="line"/>
      <point x="677" y="300" type="line"/>
      <point x="677" y="320" type="line"/>
      <point x="447" y="320" type="line"/>
      <point x="447" y="300" type="line"/>
    </contour>
    <contour>
      <point x="599" y="99" type="line" smooth="yes"/>
      <point x="599" y="193"/>
      <point x="600" y="257"/>
      <point x="602" y="320" type="curve"/>
      <point x="566" y="320" type="line"/>
      <point x="568" y="246"/>
      <point x="569" y="173"/>
      <point x="569" y="99" type="curve" smooth="yes"/>
      <point x="569" y="52" type="line"/>
      <point x="582" y="68" type="line"/>
      <point x="522" y="27"/>
      <point x="461" y="9"/>
      <point x="388" y="9" type="curve" smooth="yes"/>
      <point x="212" y="9"/>
      <point x="96" y="138"/>
      <point x="96" y="338" type="curve" smooth="yes"/>
      <point x="96" y="537"/>
      <point x="213" y="668"/>
      <point x="394" y="668" type="curve" smooth="yes"/>
      <point x="473" y="668"/>
      <point x="520" y="648"/>
      <point x="576" y="608" type="curve"/>
      <point x="576" y="628" type="line"/>
      <point x="555" y="637" type="line"/>
      <point x="573" y="492" type="line"/>
      <point x="597" y="492" type="line"/>
      <point x="593" y="631" type="line"/>
      <point x="533" y="669"/>
      <point x="477" y="690"/>
      <point x="391" y="690" type="curve" smooth="yes"/>
      <point x="199" y="690"/>
      <point x="64" y="548"/>
      <point x="64" y="338" type="curve" smooth="yes"/>
      <point x="64" y="129"/>
      <point x="194" y="-13"/>
      <point x="390" y="-13" type="curve" smooth="yes"/>
      <point x="468" y="-13"/>
      <point x="525" y="3"/>
      <point x="599" y="48" type="curve"/>
    </contour>
    <contour>
      <point x="423" y="-104" type="curve" smooth="yes"/>
      <point x="423" y="-95"/>
      <point x="421" y="-84"/>
      <point x="418" y="-78" type="curve"/>
      <point x="410" y="-70"/>
      <point x="398" y="-67"/>
      <point x="388" y="-67" type="curve" smooth="yes"/>
      <point x="371" y="-67"/>
      <point x="357" y="-76"/>
      <point x="357" y="-96" type="curve" smooth="yes"/>
      <point x="357" y="-113"/>
      <point x="375" y="-130"/>
      <point x="402" y="-137" type="curve"/>
      <point x="397" y="-127" type="line"/>
      <point x="387" y="-164"/>
      <point x="358" y="-197"/>
      <point x="310" y="-215" type="curve"/>
      <point x="316" y="-231" type="line"/>
      <point x="373" y="-215"/>
      <point x="423" y="-165"/>
    </contour>
  </outline>
</glyph>
<glyph name="hcircumflex" format="1">
  <advance width="609"/>
  <unicode hex="0125"/>
  <outline>
    <contour>
      <point x="368" y="483" type="curve" smooth="yes"/>
      <point x="305" y="483"/>
      <point x="233" y="451"/>
      <point x="154" y="354" type="curve"/>
      <point x="161" y="337" type="line"/>
      <point x="245" y="435"/>
      <point x="318" y="455"/>
      <point x="361" y="455" type="curve" smooth="yes"/>
      <point x="420" y="455"/>
      <point x="461" y="417"/>
      <point x="461" y="315" type="curve" smooth="yes"/>
      <point x="461" y="210" type="line" smooth="yes"/>
      <point x="461" y="146"/>
      <point x="460" y="45"/>
      <point x="458" y="0" type="curve"/>
      <point x="492" y="0" type="line"/>
      <point x="490" y="45"/>
      <point x="489" y="146"/>
      <point x="489" y="210" type="curve" smooth="yes"/>
      <point x="489" y="314" type="line" smooth="yes"/>
      <point x="489" y="439"/>
      <point x="442" y="483"/>
    </contour>
    <contour>
      <point x="469" y="26" type="line"/>
      <point x="369" y="20" type="line"/>
      <point x="369" y="0" type="line"/>
      <point x="572" y="0" type="line"/>
      <point x="572" y="20" type="line"/>
      <point x="478" y="26" type="line"/>
    </contour>
    <contour>
      <point x="157" y="26" type="line"/>
      <point x="148" y="26" type="line"/>
      <point x="48" y="20" type="line"/>
      <point x="48" y="0" type="line"/>
      <point x="251" y="0" type="line"/>
      <point x="251" y="20" type="line"/>
    </contour>
    <contour>
      <point x="140" y="210" type="line" smooth="yes"/>
      <point x="140" y="148"/>
      <point x="139" y="45"/>
      <point x="137" y="0" type="curve"/>
      <point x="171" y="0" type="line"/>
      <point x="169" y="45"/>
      <point x="168" y="148"/>
      <point x="168" y="210" type="curve" smooth="yes"/>
      <point x="168" y="350" type="line"/>
      <point x="168" y="359" type="line"/>
      <point x="168" y="598" type="line"/>
      <point x="170" y="740" type="line"/>
      <point x="154" y="748" type="line"/>
      <point x="49" y="736" type="line"/>
      <point x="49" y="716" type="line"/>
      <point x="140" y="716" type="line"/>
    </contour>
    <contour>
      <point x="289" y="884" type="line"/>
      <point x="275" y="884" type="line"/>
      <point x="145" y="772" type="line"/>
      <point x="153" y="762" type="line"/>
      <point x="291" y="853" type="line"/>
      <point x="273" y="853" type="line"/>
      <point x="411" y="762" type="line"/>
      <point x="419" y="772" type="line"/>
    </contour>
  </outline>
</glyph>
<glyph name="Iogonek" format="1">
  <advance width="364"/>
  <unicode hex="012E"/>
  <outline>
    <contour>
      <point x="175" y="27" type="line"/>
      <point x="58" y="20" type="line"/>
      <point x="58" y="0" type="line"/>
      <point x="306" y="0" type="line"/>
      <point x="306" y="20" type="line"/>
      <point x="189" y="27" type="line"/>
    </contour>
    <contour>
      <point x="175" y="650" type="line"/>
      <point x="189" y="650" type="line"/>
      <point x="306" y="657" type="line"/>
      <point x="306" y="677" type="line"/>
      <point x="58" y="677" type="line"/>
      <point x="58" y="657" type="line"/>
    </contour>
    <contour>
      <point x="167" y="310" type="line" smooth="yes"/>
      <point x="167" y="206"/>
      <point x="167" y="102"/>
      <point x="165" y="0" type="curve"/>
      <point x="199" y="0" type="line"/>
      <point x="197" y="102"/>
      <point x="197" y="206"/>
      <point x="197" y="310" type="curve" smooth="yes"/>
      <point x="197" y="367" type="line" smooth="yes"/>
      <point x="197" y="471"/>
      <point x="197" y="575"/>
      <point x="199" y="677" type="curve"/>
      <point x="165" y="677" type="line"/>
      <point x="167" y="575"/>
      <point x="167" y="471"/>
      <point x="167" y="367" type="curve" smooth="yes"/>
    </contour>
    <contour>
      <point x="111" y="-133" type="curve" smooth="yes"/>
      <point x="111" y="-192"/>
      <point x="150" y="-223"/>
      <point x="197" y="-223" type="curve" smooth="yes"/>
      <point x="235" y="-223"/>
      <point x="265" y="-207"/>
      <point x="282" y="-183" type="curve"/>
      <point x="272" y="-173" type="line"/>
      <point x="248" y="-193"/>
      <point x="230" y="-199"/>
      <point x="206" y="-199" type="curve" smooth="yes"/>
      <point x="167" y="-199"/>
      <point x="139" y="-173"/>
      <point x="139" y="-122" type="curve" smooth="yes"/>
      <point x="139" y="-81"/>
      <point x="166" y="-29"/>
      <point x="205" y="5" type="curve"/>
      <point x="186" y="5" type="line"/>
      <point x="150" y="-26"/>
      <point x="111" y="-77"/>
    </contour>
    <contour>
      <point x="182" y="682" type="move" name="aboveUC"/>
    </contour>
  </outline>
</glyph>
<glyph name="ij" format="1">
  <advance width="582"/>
  <unicode hex="0133"/>
  <outline>
    <contour>
      <point x="147" y="645" type="curve" smooth="yes"/>
      <point x="164" y="645"/>
      <point x="179" y="657"/>
      <point x="179" y="677" type="curve" smooth="yes"/>
      <point x="179" y="697"/>
      <point x="164" y="709"/>
      <point x="147" y="709" type="curve" smooth="yes"/>
      <point x="130" y="709"/>
      <point x="115" y="697"/>
      <point x="115" y="677" type="curve" smooth="yes"/>
      <point x="115" y="657"/>
      <point x="130" y="645"/>
    </contour>
    <contour>
      <point x="171" y="0" type="line"/>
      <point x="169" y="45"/>
      <point x="168" y="148"/>
      <point x="168" y="210" type="curve" smooth="yes"/>
      <point x="168" y="356" type="line"/>
      <point x="170" y="472" type="line"/>
      <point x="160" y="478" type="line"/>
      <point x="44" y="466" type="line"/>
      <point x="44" y="446" type="line"/>
      <point x="138" y="446" type="line"/>
      <point x="140" y="384"/>
      <point x="140" y="321"/>
      <point x="140" y="259" type="curve" smooth="yes"/>
      <point x="140" y="210" type="line" smooth="yes"/>
      <point x="140" y="148"/>
      <point x="139" y="45"/>
      <point x="137" y="0" type="curve"/>
    </contour>
    <contour>
      <point x="157" y="26" type="line"/>
      <point x="148" y="26" type="line"/>
      <point x="48" y="20" type="line"/>
      <point x="48" y="0" type="line"/>
      <point x="251" y="0" type="line"/>
      <point x="251" y="20" type="line"/>
    </contour>
    <contour>
      <point x="445" y="645" type="curve" smooth="yes"/>
      <point x="462" y="645"/>
      <point x="477" y="657"/>
      <point x="477" y="677" type="curve" smooth="yes"/>
      <point x="477" y="697"/>
      <point x="462" y="709"/>
      <point x="445" y="709" type="curve" smooth="yes"/>
      <point x="428" y="709"/>
      <point x="413" y="697"/>
      <point x="413" y="677" type="curve" smooth="yes"/>
      <point x="413" y="657"/>
      <point x="428" y="645"/>
    </contour>
    <contour>
      <point x="438" y="75" type="line" smooth="yes"/>
      <point x="438" y="-44"/>
      <point x="432" y="-141"/>
      <point x="399" y="-187" type="curve" smooth="yes"/>
      <point x="378" y="-216"/>
      <point x="333" y="-240"/>
      <point x="308" y="-240" type="curve" smooth="yes"/>
      <point x="290" y="-240"/>
      <point x="276" y="-236"/>
      <point x="266" y="-234" type="curve"/>
      <point x="286" y="-247" type="line"/>
      <point x="359" y="-239" type="line"/>
      <point x="332" y="-227" type="line" smooth="yes"/>
      <point x="310" y="-217"/>
      <point x="295" y="-214"/>
      <point x="282" y="-214" type="curve" smooth="yes"/>
      <point x="262" y="-214"/>
      <point x="251" y="-222"/>
      <point x="248" y="-236" type="curve"/>
      <point x="252" y="-245"/>
      <point x="270" y="-255"/>
      <point x="308" y="-255" type="curve" smooth="yes"/>
      <point x="344" y="-255"/>
      <point x="384" y="-242"/>
      <point x="418" y="-198" type="curve" smooth="yes"/>
      <point x="458" y="-146"/>
      <point x="466" y="-84"/>
      <point x="466" y="135" type="curve" smooth="yes"/>
      <point x="466" y="356" type="line"/>
      <point x="468" y="472" type="line"/>
      <point x="458" y="478" type="line"/>
      <point x="342" y="466" type="line"/>
      <point x="342" y="446" type="line"/>
      <point x="435" y="446" type="line"/>
      <point x="437" y="395"/>
      <point x="438" y="329"/>
      <point x="438" y="259" type="curve" smooth="yes"/>
    </contour>
  </outline>
</glyph>
<glyph name="Jcircumflex" format="1">
  <advance width="356"/>
  <unicode hex="0134"/>
  <outline>
    <contour>
      <point x="177" y="677" type="line"/>
      <point x="182" y="154"/>
      <point x="179" y="124"/>
      <point x="179" y="95" type="curve" smooth="yes"/>
      <point x="179" y="-60"/>
      <point x="106" y="-114"/>
      <point x="59" y="-128" type="curve"/>
      <point x="56" y="-135" type="line"/>
      <point x="67" y="-136" type="line"/>
      <point x="82" y="-129" type="line"/>
      <point x="65" y="-119" type="line" smooth="yes"/>
      <point x="42" y="-106"/>
      <point x="26" y="-102"/>
      <point x="7" y="-102" type="curve" smooth="yes"/>
      <point x="-12" y="-102"/>
      <point x="-29" y="-110"/>
      <point x="-33" y="-126" type="curve"/>
      <point x="-25" y="-141"/>
      <point x="-6" y="-147"/>
      <point x="25" y="-147" type="curve" smooth="yes"/>
      <point x="121" y="-147"/>
      <point x="201" y="-63"/>
      <point x="207" y="74" type="curve" smooth="yes"/>
      <point x="208" y="99"/>
      <point x="210" y="124"/>
      <point x="210" y="198" type="curve" smooth="yes"/>
      <point x="210" y="362" type="line" smooth="yes"/>
      <point x="210" y="469"/>
      <point x="210" y="574"/>
      <point x="212" y="677" type="curve"/>
    </contour>
    <contour>
      <point x="60" y="657" type="line"/>
      <point x="187" y="650" type="line"/>
      <point x="201" y="650" type="line"/>
      <point x="318" y="657" type="line"/>
      <point x="318" y="677" type="line"/>
      <point x="60" y="677" type="line"/>
    </contour>
    <contour>
      <point x="196" y="842" type="line"/>
      <point x="182" y="842" type="line"/>
      <point x="52" y="730" type="line"/>
      <point x="60" y="720" type="line"/>
      <point x="198" y="811" type="line"/>
      <point x="180" y="811" type="line"/>
      <point x="318" y="720" type="line"/>
      <point x="326" y="730" type="line"/>
    </contour>
  </outline>
</glyph>
<glyph name="jcircumflex" format="1">
  <advance width="279"/>
  <unicode hex="0135"/>
  <outline>
    <contour>
      <point x="135" y="75" type="line" smooth="yes"/>
      <point x="135" y="-44"/>
      <point x="129" y="-141"/>
      <point x="96" y="-187" type="curve" smooth="yes"/>
      <point x="75" y="-216"/>
      <point x="30" y="-240"/>
      <point x="5" y="-240" type="curve" smooth="yes"/>
      <point x="-13" y="-240"/>
      <point x="-27" y="-236"/>
      <point x="-37" y="-234" type="curve"/>
      <point x="-17" y="-247" type="line"/>
      <point x="56" y="-239" type="line"/>
      <point x="29" y="-227" type="line" smooth="yes"/>
      <point x="7" y="-217"/>
      <point x="-8" y="-214"/>
      <point x="-21" y="-214" type="curve" smooth="yes"/>
      <point x="-41" y="-214"/>
      <point x="-52" y="-222"/>
      <point x="-55" y="-236" type="curve"/>
      <point x="-51" y="-245"/>
      <point x="-33" y="-255"/>
      <point x="5" y="-255" type="curve" smooth="yes"/>
      <point x="41" y="-255"/>
      <point x="81" y="-242"/>
      <point x="115" y="-198" type="curve" smooth="yes"/>
      <point x="155" y="-146"/>
      <point x="163" y="-84"/>
      <point x="163" y="135" type="curve" smooth="yes"/>
      <point x="163" y="352" type="line"/>
      <point x="165" y="468" type="line"/>
      <point x="155" y="474" type="line"/>
      <point x="39" y="462" type="line"/>
      <point x="39" y="442" type="line"/>
      <point x="132" y="442" type="line"/>
      <point x="134" y="391"/>
      <point x="135" y="325"/>
      <point x="135" y="255" type="curve" smooth="yes"/>
    </contour>
    <contour>
      <point x="248" y="553" type="line"/>
      <point x="259" y="562" type="line"/>
      <point x="146" y="719" type="line"/>
      <point x="132" y="719" type="line"/>
      <point x="19" y="562" type="line"/>
      <point x="30" y="553" type="line"/>
      <point x="146" y="688" type="line"/>
      <point x="132" y="688" type="line"/>
    </contour>
  </outline>
</glyph>
<glyph name="kcommaaccent" format="1">
  <advance width="543"/>
  <unicode hex="0137"/>
  <outline>
    <contour>
      <point x="408" y="444" type="line"/>
      <point x="518" y="450" type="line"/>
      <point x="518" y="470" type="line"/>
      <point x="298" y="470" type="line"/>
      <point x="298" y="450" type="line"/>
      <point x="399" y="444" type="line"/>
    </contour>
    <contour>
      <point x="419" y="470" type="line"/>
      <point x="155" y="204" type="line"/>
      <point x="155" y="176" type="line"/>
      <point x="451" y="470" type="line"/>
    </contour>
    <contour>
      <point x="49" y="736" type="line"/>
      <point x="49" y="716" type="line"/>
      <point x="140" y="716" type="line"/>
      <point x="140" y="210" type="line" smooth="yes"/>
      <point x="140" y="148"/>
      <point x="139" y="45"/>
      <point x="137" y="0" type="curve"/>
      <point x="171" y="0" type="line"/>
      <point x="169" y="45"/>
      <point x="168" y="148"/>
      <point x="168" y="210" type="curve" smooth="yes"/>
      <point x="168" y="598" type="line"/>
      <point x="170" y="740" type="line"/>
      <point x="156" y="748" type="line"/>
    </contour>
    <contour>
      <point x="157" y="26" type="line"/>
      <point x="148" y="26" type="line"/>
      <point x="48" y="20" type="line"/>
      <point x="48" y="0" type="line"/>
      <point x="251" y="0" type="line"/>
      <point x="251" y="20" type="line"/>
    </contour>
    <contour>
      <point x="538" y="20" type="line"/>
      <point x="454" y="25" type="line"/>
      <point x="278" y="308" type="line"/>
      <point x="257" y="287" type="line"/>
      <point x="436" y="0" type="line"/>
      <point x="538" y="0" type="line"/>
    </contour>
    <contour>
      <point x="346" y="-104" type="curve" smooth="yes"/>
      <point x="346" y="-95"/>
      <point x="344" y="-84"/>
      <point x="341" y="-78" type="curve"/>
      <point x="333" y="-70"/>
      <point x="321" y="-67"/>
      <point x="311" y="-67" type="curve" smooth="yes"/>
      <point x="294" y="-67"/>
      <point x="280" y="-76"/>
      <point x="280" y="-96" type="curve" smooth="yes"/>
      <point x="280" y="-113"/>
      <point x="298" y="-130"/>
      <point x="325" y="-137" type="curve"/>
      <point x="320" y="-127" type="line"/>
      <point x="310" y="-164"/>
      <point x="281" y="-197"/>
      <point x="233" y="-215" type="curve"/>
      <point x="239" y="-231" type="line"/>
      <point x="296" y="-215"/>
      <point x="346" y="-165"/>
    </contour>
  </outline>
</glyph>
<glyph name="lacute" format="1">
  <advance width="303"/>
  <unicode hex="013A"/>
  <outline>
    <contour>
      <point x="157" y="26" type="line"/>
      <point x="148" y="26" type="line"/>
      <point x="38" y="20" type="line"/>
      <point x="38" y="0" type="line"/>
      <point x="266" y="0" type="line"/>
      <point x="266" y="20" type="line"/>
    </contour>
    <contour>
      <point x="49" y="736" type="line"/>
      <point x="49" y="716" type="line"/>
      <point x="140" y="716" type="line"/>
      <point x="140" y="210" type="line" smooth="yes"/>
      <point x="140" y="148"/>
      <point x="139" y="45"/>
      <point x="137" y="0" type="curve"/>
      <point x="171" y="0" type="line"/>
      <point x="169" y="45"/>
      <point x="168" y="148"/>
      <point x="168" y="210" type="curve" smooth="yes"/>
      <point x="168" y="598" type="line"/>
      <point x="170" y="740" type="line"/>
      <point x="156" y="748" type="line"/>
    </contour>
    <contour>
      <point x="137" y="782" type="curve"/>
      <point x="145" y="771" type="line"/>
      <point x="184" y="795"/>
      <point x="223" y="820"/>
      <point x="260" y="843" type="curve" smooth="yes"/>
      <point x="293" y="863"/>
      <point x="305" y="871"/>
      <point x="305" y="883" type="curve" smooth="yes"/>
      <point x="305" y="893"/>
      <point x="297" y="900"/>
      <point x="287" y="900" type="curve" smooth="yes"/>
      <point x="277" y="900"/>
      <point x="268" y="893"/>
      <point x="240" y="870" type="curve" smooth="yes"/>
      <point x="209" y="844"/>
      <point x="173" y="813"/>
    </contour>
  </outline>
</glyph>
<glyph name="Lcaron" format="1">
  <advance width="564"/>
  <unicode hex="013D"/>
  <outline>
    <contour>
      <point x="175" y="27" type="line"/>
      <point x="58" y="20" type="line"/>
      <point x="58" y="0" type="line"/>
      <point x="182" y="0" type="line"/>
      <point x="182" y="27" type="line"/>
    </contour>
    <contour>
      <point x="175" y="650" type="line"/>
      <point x="189" y="650" type="line"/>
      <point x="306" y="657" type="line"/>
      <point x="306" y="677" type="line"/>
      <point x="58" y="677" type="line"/>
      <point x="58" y="657" type="line"/>
    </contour>
    <contour>
      <point x="167" y="367" type="curve" smooth="yes"/>
      <point x="167" y="310" type="line" smooth="yes"/>
      <point x="167" y="206"/>
      <point x="167" y="102"/>
      <point x="165" y="0" type="curve"/>
      <point x="199" y="0" type="line"/>
      <point x="197" y="102"/>
      <point x="197" y="206"/>
      <point x="197" y="289" type="curve" smooth="yes"/>
      <point x="197" y="329" type="line" smooth="yes"/>
      <point x="197" y="471"/>
      <point x="197" y="575"/>
      <point x="199" y="677" type="curve"/>
      <point x="165" y="677" type="line"/>
      <point x="167" y="575"/>
      <point x="167" y="471"/>
    </contour>
    <contour>
      <point x="510" y="163" type="line"/>
      <point x="494" y="22" type="line"/>
      <point x="182" y="22" type="line"/>
      <point x="182" y="0" type="line"/>
      <point x="524" y="0" type="line"/>
      <point x="534" y="163" type="line"/>
    </contour>
    <contour>
      <point x="454" y="744" type="curve" smooth="yes"/>
      <point x="447" y="744"/>
      <point x="441" y="742"/>
      <point x="436" y="738" type="curve"/>
      <point x="434" y="520" type="line"/>
      <point x="449" y="520" type="line"/>
      <point x="457" y="592" type="line" smooth="yes"/>
      <point x="463" y="649"/>
      <point x="470" y="694"/>
      <point x="470" y="722" type="curve" smooth="yes"/>
      <point x="470" y="737"/>
      <point x="465" y="744"/>
    </contour>
  </outline>
</glyph>
<glyph name="Ldot" format="1">
  <advance width="564"/>
  <unicode hex="013F"/>
  <outline>
    <contour>
      <point x="175" y="27" type="line"/>
      <point x="58" y="20" type="line"/>
      <point x="58" y="0" type="line"/>
      <point x="182" y="0" type="line"/>
      <point x="182" y="27" type="line"/>
    </contour>
    <contour>
      <point x="175" y="650" type="line"/>
      <point x="189" y="650" type="line"/>
      <point x="306" y="657" type="line"/>
      <point x="306" y="677" type="line"/>
      <point x="58" y="677" type="line"/>
      <point x="58" y="657" type="line"/>
    </contour>
    <contour>
      <point x="167" y="367" type="curve" smooth="yes"/>
      <point x="167" y="310" type="line" smooth="yes"/>
      <point x="167" y="206"/>
      <point x="167" y="102"/>
      <point x="165" y="0" type="curve"/>
      <point x="199" y="0" type="line"/>
      <point x="197" y="102"/>
      <point x="197" y="206"/>
      <point x="197" y="289" type="curve" smooth="yes"/>
      <point x="197" y="329" type="line" smooth="yes"/>
      <point x="197" y="471"/>
      <point x="197" y="575"/>
      <point x="199" y="677" type="curve"/>
      <point x="165" y="677" type="line"/>
      <point x="167" y="575"/>
      <point x="167" y="471"/>
    </contour>
    <contour>
      <point x="510" y="163" type="line"/>
      <point x="494" y="22" type="line"/>
      <point x="182" y="22" type="line"/>
      <point x="182" y="0" type="line"/>
      <point x="524" y="0" type="line"/>
      <point x="534" y="163" type="line"/>
    </contour>
    <contour>
      <point x="448" y="341" type="curve" smooth="yes"/>
      <point x="469" y="341"/>
      <point x="482" y="358"/>
      <point x="482" y="374" type="curve" smooth="yes"/>
      <point x="482" y="393"/>
      <point x="469" y="407"/>
      <point x="448" y="407" type="curve" smooth="yes"/>
      <point x="427" y="407"/>
      <point x="414" y="393"/>
      <point x="414" y="374" type="curve" smooth="yes"/>
      <point x="414" y="358"/>
      <point x="427" y="341"/>
    </contour>
  </outline>
</glyph>
<glyph name="ldot" format="1">
  <advance width="303"/>
  <unicode hex="0140"/>
  <outline>
    <contour>
      <point x="157" y="26" type="line"/>
      <point x="148" y="26" type="line"/>
      <point x="38" y="20" type="line"/>
      <point x="38" y="0" type="line"/>
      <point x="266" y="0" type="line"/>
      <point x="266" y="20" type="line"/>
    </contour>
    <contour>
      <point x="49" y="736" type="line"/>
      <point x="49" y="716" type="line"/>
      <point x="140" y="716" type="line"/>
      <point x="140" y="210" type="line" smooth="yes"/>
      <point x="140" y="148"/>
      <point x="139" y="45"/>
      <point x="137" y="0" type="curve"/>
      <point x="171" y="0" type="line"/>
      <point x="169" y="45"/>
      <point x="168" y="148"/>
      <point x="168" y="210" type="curve" smooth="yes"/>
      <point x="168" y="598" type="line"/>
      <point x="170" y="740" type="line"/>
      <point x="156" y="748" type="line"/>
    </contour>
    <contour>
      <point x="302" y="342" type="curve" smooth="yes"/>
      <point x="323" y="342"/>
      <point x="336" y="359"/>
      <point x="336" y="375" type="curve" smooth="yes"/>
      <point x="336" y="394"/>
      <point x="323" y="408"/>
      <point x="302" y="408" type="curve" smooth="yes"/>
      <point x="281" y="408"/>
      <point x="268" y="394"/>
      <point x="268" y="375" type="curve" smooth="yes"/>
      <point x="268" y="359"/>
      <point x="281" y="342"/>
    </contour>
  </outline>
</glyph>
<glyph name="Nacute" format="1">
  <advance width="732"/>
  <unicode hex="0143"/>
  <outline>
    <contour>
      <point x="48" y="0" type="line"/>
      <point x="276" y="0" type="line"/>
      <point x="276" y="20" type="line"/>
      <point x="159" y="27" type="line"/>
      <point x="145" y="27" type="line"/>
      <point x="48" y="20" type="line"/>
    </contour>
    <contour>
      <point x="139" y="0" type="line"/>
      <point x="163" y="0" type="line"/>
      <point x="163" y="654" type="line"/>
      <point x="139" y="654" type="line"/>
    </contour>
    <contour>
      <point x="466" y="657" type="line"/>
      <point x="583" y="650" type="line"/>
      <point x="597" y="650" type="line"/>
      <point x="694" y="657" type="line"/>
      <point x="694" y="677" type="line"/>
      <point x="466" y="677" type="line"/>
    </contour>
    <contour>
      <point x="582" y="-7" type="line"/>
      <point x="602" y="-7" type="line"/>
      <point x="602" y="677" type="line"/>
      <point x="578" y="677" type="line"/>
      <point x="578" y="48" type="line"/>
      <point x="155" y="677" type="line"/>
      <point x="38" y="677" type="line"/>
      <point x="38" y="657" type="line"/>
      <point x="137" y="653" type="line"/>
    </contour>
    <contour>
      <point x="332" y="741" type="curve"/>
      <point x="340" y="730" type="line"/>
      <point x="379" y="754"/>
      <point x="418" y="779"/>
      <point x="455" y="802" type="curve" smooth="yes"/>
      <point x="488" y="822"/>
      <point x="500" y="830"/>
      <point x="500" y="842" type="curve" smooth="yes"/>
      <point x="500" y="852"/>
      <point x="492" y="859"/>
      <point x="482" y="859" type="curve" smooth="yes"/>
      <point x="472" y="859"/>
      <point x="463" y="852"/>
      <point x="435" y="829" type="curve" smooth="yes"/>
      <point x="404" y="803"/>
      <point x="368" y="772"/>
    </contour>
  </outline>
</glyph>
<glyph name="ncommaaccent" format="1">
  <advance width="604"/>
  <unicode hex="0146"/>
  <outline>
    <contour>
      <point x="166" y="0" type="line"/>
      <point x="164" y="45"/>
      <point x="163" y="148"/>
      <point x="163" y="210" type="curve" smooth="yes"/>
      <point x="163" y="364" type="line"/>
      <point x="161" y="472" type="line"/>
      <point x="151" y="478" type="line"/>
      <point x="39" y="466" type="line"/>
      <point x="39" y="446" type="line"/>
      <point x="132" y="446" type="line"/>
      <point x="134" y="395"/>
      <point x="135" y="329"/>
      <point x="135" y="259" type="curve" smooth="yes"/>
      <point x="135" y="210" type="line" smooth="yes"/>
      <point x="135" y="148"/>
      <point x="134" y="45"/>
      <point x="132" y="0" type="curve"/>
    </contour>
    <contour>
      <point x="152" y="26" type="line"/>
      <point x="143" y="26" type="line"/>
      <point x="43" y="20" type="line"/>
      <point x="43" y="0" type="line"/>
      <point x="246" y="0" type="line"/>
      <point x="246" y="20" type="line"/>
    </contour>
    <contour>
      <point x="464" y="26" type="line"/>
      <point x="364" y="20" type="line"/>
      <point x="364" y="0" type="line"/>
      <point x="567" y="0" type="line"/>
      <point x="567" y="20" type="line"/>
      <point x="473" y="26" type="line"/>
    </contour>
    <contour>
      <point x="363" y="483" type="curve" smooth="yes"/>
      <point x="300" y="483"/>
      <point x="228" y="451"/>
      <point x="149" y="354" type="curve"/>
      <point x="156" y="337" type="line"/>
      <point x="240" y="435"/>
      <point x="313" y="455"/>
      <point x="356" y="455" type="curve" smooth="yes"/>
      <point x="415" y="455"/>
      <point x="456" y="417"/>
      <point x="456" y="315" type="curve" smooth="yes"/>
      <point x="456" y="210" type="line" smooth="yes"/>
      <point x="456" y="146"/>
      <point x="455" y="45"/>
      <point x="453" y="0" type="curve"/>
      <point x="487" y="0" type="line"/>
      <point x="485" y="45"/>
      <point x="484" y="146"/>
      <point x="484" y="210" type="curve" smooth="yes"/>
      <point x="484" y="314" type="line" smooth="yes"/>
      <point x="484" y="439"/>
      <point x="437" y="483"/>
    </contour>
    <contour>
      <point x="341" y="-104" type="curve" smooth="yes"/>
      <point x="341" y="-95"/>
      <point x="339" y="-84"/>
      <point x="336" y="-78" type="curve"/>
      <point x="328" y="-70"/>
      <point x="316" y="-67"/>
      <point x="306" y="-67" type="curve" smooth="yes"/>
      <point x="289" y="-67"/>
      <point x="275" y="-76"/>
      <point x="275" y="-96" type="curve" smooth="yes"/>
      <point x="275" y="-113"/>
      <point x="293" y="-130"/>
      <point x="320" y="-137" type="curve"/>
      <point x="315" y="-127" type="line"/>
      <point x="305" y="-164"/>
      <point x="276" y="-197"/>
      <point x="228" y="-215" type="curve"/>
      <point x="234" y="-231" type="line"/>
      <point x="291" y="-215"/>
      <point x="341" y="-165"/>
    </contour>
  </outline>
</glyph>
<glyph name="napostrophe" format="1">
  <advance width="743"/>
  <unicode hex="0149"/>
  <outline>
    <contour>
      <point x="305" y="0" type="line"/>
      <point x="303" y="45"/>
      <point x="302" y="148"/>
      <point x="302" y="210" type="curve" smooth="yes"/>
      <point x="302" y="364" type="line"/>
      <point x="300" y="472" type="line"/>
      <point x="290" y="478" type="line"/>
      <point x="178" y="466" type="line"/>
      <point x="178" y="446" type="line"/>
      <point x="271" y="446" type="line"/>
      <point x="273" y="395"/>
      <point x="274" y="329"/>
      <point x="274" y="259" type="curve" smooth="yes"/>
      <point x="274" y="210" type="line" smooth="yes"/>
      <point x="274" y="148"/>
      <point x="273" y="45"/>
      <point x="271" y="0" type="curve"/>
    </contour>
    <contour>
      <point x="291" y="26" type="line"/>
      <point x="282" y="26" type="line"/>
      <point x="182" y="20" type="line"/>
      <point x="182" y="0" type="line"/>
      <point x="385" y="0" type="line"/>
      <point x="385" y="20" type="line"/>
    </contour>
    <contour>
      <point x="603" y="26" type="line"/>
      <point x="503" y="20" type="line"/>
      <point x="503" y="0" type="line"/>
      <point x="706" y="0" type="line"/>
      <point x="706" y="20" type="line"/>
      <point x="612" y="26" type="line"/>
    </contour>
    <contour>
      <point x="502" y="483" type="curve" smooth="yes"/>
      <point x="439" y="483"/>
      <point x="367" y="451"/>
      <point x="288" y="354" type="curve"/>
      <point x="295" y="337" type="line"/>
      <point x="379" y="435"/>
      <point x="452" y="455"/>
      <point x="495" y="455" type="curve" smooth="yes"/>
      <point x="554" y="455"/>
      <point x="595" y="417"/>
      <point x="595" y="315" type="curve" smooth="yes"/>
      <point x="595" y="210" type="line" smooth="yes"/>
      <point x="595" y="146"/>
      <point x="594" y="45"/>
      <point x="592" y="0" type="curve"/>
      <point x="626" y="0" type="line"/>
      <point x="624" y="45"/>
      <point x="623" y="146"/>
      <point x="623" y="210" type="curve" smooth="yes"/>
      <point x="623" y="314" type="line" smooth="yes"/>
      <point x="623" y="439"/>
      <point x="576" y="483"/>
    </contour>
    <contour>
      <point x="154" y="687" type="curve" smooth="yes"/>
      <point x="154" y="711"/>
      <point x="146" y="736"/>
      <point x="130" y="755" type="curve"/>
      <point x="125" y="757"/>
      <point x="120" y="758"/>
      <point x="112" y="758" type="curve" smooth="yes"/>
      <point x="100" y="758"/>
      <point x="88" y="747"/>
      <point x="88" y="733" type="curve" smooth="yes"/>
      <point x="88" y="719"/>
      <point x="93" y="709"/>
      <point x="112" y="695" type="curve" smooth="yes"/>
      <point x="141" y="673" type="line"/>
      <point x="135" y="689" type="line"/>
      <point x="133" y="623"/>
      <point x="105" y="583"/>
      <point x="53" y="542" type="curve"/>
      <point x="62" y="531" type="line"/>
      <point x="121" y="571"/>
      <point x="154" y="627"/>
    </contour>
  </outline>
</glyph>
<glyph name="omacron" format="1">
  <advance width="538"/>
  <unicode hex="014D"/>
  <outline>
    <contour>
      <point x="269" y="-13" type="curve" smooth="yes"/>
      <point x="376" y="-13"/>
      <point x="486" y="62"/>
      <point x="486" y="233" type="curve" smooth="yes"/>
      <point x="486" y="404"/>
      <point x="376" y="483"/>
      <point x="269" y="483" type="curve" smooth="yes"/>
      <point x="162" y="483"/>
      <point x="52" y="404"/>
      <point x="52" y="233" type="curve" smooth="yes"/>
      <point x="52" y="62"/>
      <point x="162" y="-13"/>
    </contour>
    <contour>
      <point x="269" y="7" type="curve" smooth="yes"/>
      <point x="158" y="7"/>
      <point x="84" y="92"/>
      <point x="84" y="233" type="curve" smooth="yes"/>
      <point x="84" y="374"/>
      <point x="158" y="463"/>
      <point x="269" y="463" type="curve" smooth="yes"/>
      <point x="380" y="463"/>
      <point x="454" y="374"/>
      <point x="454" y="233" type="curve" smooth="yes"/>
      <point x="454" y="92"/>
      <point x="380" y="7"/>
    </contour>
    <contour>
      <point x="149" y="631" type="line"/>
      <point x="389" y="631" type="line"/>
      <point x="389" y="657" type="line"/>
      <point x="149" y="657" type="line"/>
    </contour>
  </outline>
</glyph>
<glyph name="Ohungarumlaut" format="1">
  <advance width="706"/>
  <unicode hex="0150"/>
  <outline>
    <contour>
      <point x="95" y="338" type="curve" smooth="yes"/>
      <point x="95" y="518"/>
      <point x="193" y="668"/>
      <point x="353" y="668" type="curve" smooth="yes"/>
      <point x="513" y="668"/>
      <point x="611" y="518"/>
      <point x="611" y="338" type="curve" smooth="yes"/>
      <point x="611" y="158"/>
      <point x="513" y="9"/>
      <point x="353" y="9" type="curve" smooth="yes"/>
      <point x="193" y="9"/>
      <point x="95" y="158"/>
    </contour>
    <contour>
      <point x="353" y="690" type="curve" smooth="yes"/>
      <point x="188" y="690"/>
      <point x="63" y="550"/>
      <point x="63" y="338" type="curve" smooth="yes"/>
      <point x="63" y="126"/>
      <point x="188" y="-13"/>
      <point x="353" y="-13" type="curve" smooth="yes"/>
      <point x="518" y="-13"/>
      <point x="643" y="126"/>
      <point x="643" y="338" type="curve" smooth="yes"/>
      <point x="643" y="550"/>
      <point x="518" y="690"/>
    </contour>
    <contour>
      <point x="268" y="734" type="line"/>
      <point x="280" y="725" type="line"/>
      <point x="376" y="826" type="line" smooth="yes"/>
      <point x="386" y="837"/>
      <point x="389" y="841"/>
      <point x="389" y="851" type="curve" smooth="yes"/>
      <point x="389" y="858"/>
      <point x="383" y="866"/>
      <point x="374" y="866" type="curve" smooth="yes"/>
      <point x="366" y="866"/>
      <point x="358" y="861"/>
      <point x="349" y="848" type="curve" smooth="yes"/>
    </contour>
    <contour>
      <point x="399" y="734" type="line"/>
      <point x="411" y="725" type="line"/>
      <point x="507" y="826" type="line" smooth="yes"/>
      <point x="517" y="837"/>
      <point x="520" y="841"/>
      <point x="520" y="851" type="curve" smooth="yes"/>
      <point x="520" y="858"/>
      <point x="514" y="866"/>
      <point x="505" y="866" type="curve" smooth="yes"/>
      <point x="497" y="866"/>
      <point x="489" y="861"/>
      <point x="480" y="848" type="curve" smooth="yes"/>
    </contour>
  </outline>
</glyph>
<glyph name="racute" format="1">
  <advance width="405"/>
  <unicode hex="0155"/>
  <outline>
    <contour>
      <point x="132" y="0" type="curve"/>
      <point x="166" y="0" type="line"/>
      <point x="164" y="45"/>
      <point x="163" y="148"/>
      <point x="163" y="210" type="curve" smooth="yes"/>
      <point x="163" y="339" type="line"/>
      <point x="161" y="472" type="line"/>
      <point x="151" y="478" type="line"/>
      <point x="39" y="466" type="line"/>
      <point x="39" y="446" type="line"/>
      <point x="132" y="446" type="line"/>
      <point x="134" y="395"/>
      <point x="135" y="329"/>
      <point x="135" y="259" type="curve" smooth="yes"/>
      <point x="135" y="210" type="line" smooth="yes"/>
      <point x="135" y="148"/>
      <point x="134" y="45"/>
    </contour>
    <contour>
      <point x="43" y="0" type="line"/>
      <point x="259" y="0" type="line"/>
      <point x="259" y="20" type="line"/>
      <point x="152" y="26" type="line"/>
      <point x="143" y="26" type="line"/>
      <point x="43" y="20" type="line"/>
    </contour>
    <contour>
      <point x="162" y="308" type="line"/>
      <point x="209" y="416"/>
      <point x="268" y="467"/>
      <point x="346" y="467" type="curve"/>
      <point x="297" y="472" type="line"/>
      <point x="317" y="455" type="line" smooth="yes"/>
      <point x="337" y="438"/>
      <point x="349" y="428"/>
      <point x="367" y="428" type="curve" smooth="yes"/>
      <point x="387" y="428"/>
      <point x="397" y="436"/>
      <point x="397" y="456" type="curve"/>
      <point x="391" y="470"/>
      <point x="365" y="483"/>
      <point x="331" y="483" type="curve" smooth="yes"/>
      <point x="257" y="483"/>
      <point x="187" y="419"/>
      <point x="159" y="333" type="curve"/>
    </contour>
    <contour>
      <point x="177" y="572" type="curve"/>
      <point x="188" y="563" type="line"/>
      <point x="230" y="606"/>
      <point x="271" y="650"/>
      <point x="300" y="681" type="curve" smooth="yes"/>
      <point x="320" y="702"/>
      <point x="329" y="711"/>
      <point x="329" y="721" type="curve" smooth="yes"/>
      <point x="329" y="732"/>
      <point x="321" y="738"/>
      <point x="312" y="738" type="curve" smooth="yes"/>
      <point x="302" y="738"/>
      <point x="296" y="730"/>
      <point x="279" y="707" type="curve" smooth="yes"/>
      <point x="251" y="671"/>
      <point x="214" y="621"/>
    </contour>
  </outline>
</glyph>
<glyph name="tcaron" format="1">
  <advance width="332"/>
  <unicode hex="0165"/>
  <outline>
    <contour>
      <point x="139" y="470" type="line"/>
      <point x="139" y="446" type="line"/>
      <point x="298" y="446" type="line"/>
      <point x="298" y="470" type="line"/>
    </contour>
    <contour>
      <point x="153" y="106" type="curve" smooth="yes"/>
      <point x="153" y="451" type="line"/>
      <point x="157" y="619" type="line"/>
      <point x="135" y="619" type="line"/>
      <point x="124" y="458" type="line"/>
      <point x="145" y="471" type="line"/>
      <point x="15" y="466" type="line"/>
      <point x="15" y="446" type="line"/>
      <point x="125" y="446" type="line"/>
      <point x="125" y="174" type="line" smooth="yes"/>
      <point x="125" y="147"/>
      <point x="124" y="129"/>
      <point x="124" y="110" type="curve" smooth="yes"/>
      <point x="122" y="30"/>
      <point x="148" y="-13"/>
      <point x="221" y="-13" type="curve" smooth="yes"/>
      <point x="256" y="-13"/>
      <point x="284" y="-4"/>
      <point x="307" y="15" type="curve"/>
      <point x="300" y="29" type="line"/>
      <point x="275" y="17"/>
      <point x="257" y="11"/>
      <point x="224" y="11" type="curve" smooth="yes"/>
      <point x="177" y="11"/>
      <point x="153" y="39"/>
    </contour>
    <contour>
      <point x="283" y="754" type="curve" smooth="yes"/>
      <point x="276" y="754"/>
      <point x="270" y="752"/>
      <point x="265" y="748" type="curve"/>
      <point x="263" y="530" type="line"/>
      <point x="278" y="530" type="line"/>
      <point x="286" y="602" type="line" smooth="yes"/>
      <point x="292" y="659"/>
      <point x="299" y="704"/>
      <point x="299" y="732" type="curve" smooth="yes"/>
      <point x="299" y="747"/>
      <point x="294" y="754"/>
    </contour>
  </outline>
</glyph>
<glyph name="Utilde" format="1">
  <advance width="737"/>
  <unicode hex="0168"/>
  <outline>
    <contour>
      <point x="594" y="650" type="line"/>
      <point x="689" y="657" type="line"/>
      <point x="689" y="677" type="line"/>
      <point x="453" y="677" type="line"/>
      <point x="453" y="657" type="line"/>
      <point x="580" y="650" type="line"/>
    </contour>
    <contour>
      <point x="157" y="650" type="line"/>
      <point x="171" y="650" type="line"/>
      <point x="288" y="657" type="line"/>
      <point x="288" y="677" type="line"/>
      <point x="50" y="677" type="line"/>
      <point x="50" y="657" type="line"/>
    </contour>
    <contour>
      <point x="178" y="256" type="curve" smooth="yes"/>
      <point x="178" y="361" type="line" smooth="yes"/>
      <point x="178" y="469"/>
      <point x="178" y="573"/>
      <point x="180" y="677" type="curve"/>
      <point x="146" y="677" type="line"/>
      <point x="148" y="573"/>
      <point x="148" y="467"/>
      <point x="148" y="361" type="curve" smooth="yes"/>
      <point x="148" y="249" type="line" smooth="yes"/>
      <point x="148" y="61"/>
      <point x="234" y="-13"/>
      <point x="370" y="-13" type="curve" smooth="yes"/>
      <point x="528" y="-13"/>
      <point x="599" y="82"/>
      <point x="599" y="248" type="curve" smooth="yes"/>
      <point x="599" y="677" type="line"/>
      <point x="575" y="677" type="line"/>
      <point x="575" y="274" type="line" smooth="yes"/>
      <point x="575" y="87"/>
      <point x="515" y="13"/>
      <point x="370" y="13" type="curve" smooth="yes"/>
      <point x="254" y="13"/>
      <point x="178" y="80"/>
    </contour>
    <contour>
      <point x="204" y="753" type="curve"/>
      <point x="220" y="748" type="line"/>
      <point x="234" y="796"/>
      <point x="256" y="822"/>
      <point x="292" y="822" type="curve" smooth="yes"/>
      <point x="322" y="822"/>
      <point x="338" y="806"/>
      <point x="359" y="783" type="curve" smooth="yes"/>
      <point x="377" y="762"/>
      <point x="401" y="741"/>
      <point x="440" y="741" type="curve" smooth="yes"/>
      <point x="490" y="741"/>
      <point x="523" y="779"/>
      <point x="532" y="832" type="curve"/>
      <point x="516" y="837" type="line"/>
      <point x="502" y="789"/>
      <point x="480" y="764"/>
      <point x="444" y="764" type="curve" smooth="yes"/>
      <point x="414" y="764"/>
      <point x="398" y="779"/>
      <point x="377" y="802" type="curve" smooth="yes"/>
      <point x="358" y="824"/>
      <point x="333" y="845"/>
      <point x="295" y="845" type="curve" smooth="yes"/>
      <point x="246" y="845"/>
      <point x="213" y="807"/>
    </contour>
  </outline>
</glyph>
<glyph name="utilde" format="1">
  <advance width="604"/>
  <unicode hex="0169"/>
  <outline>
    <contour>
      <point x="153" y="324" type="line"/>
      <point x="157" y="462" type="line"/>
      <point x="148" y="474" type="line"/>
      <point x="39" y="468" type="line"/>
      <point x="39" y="448" type="line"/>
      <point x="140" y="441" type="line"/>
      <point x="127" y="452" type="line"/>
      <point x="125" y="175" type="line" smooth="yes"/>
      <point x="124" y="33"/>
      <point x="168" y="-13"/>
      <point x="261" y="-13" type="curve" smooth="yes"/>
      <point x="344" y="-13"/>
      <point x="404" y="39"/>
      <point x="452" y="103" type="curve"/>
      <point x="446" y="122" type="line"/>
      <point x="395" y="54"/>
      <point x="333" y="15"/>
      <point x="266" y="15" type="curve" smooth="yes"/>
      <point x="194" y="15"/>
      <point x="153" y="57"/>
      <point x="153" y="178" type="curve" smooth="yes"/>
    </contour>
    <contour>
      <point x="553" y="0" type="line"/>
      <point x="553" y="20" type="line"/>
      <point x="474" y="25" type="line"/>
      <point x="474" y="324" type="line"/>
      <point x="478" y="462" type="line"/>
      <point x="469" y="474" type="line"/>
      <point x="360" y="468" type="line"/>
      <point x="360" y="447" type="line"/>
      <point x="446" y="442" type="line"/>
      <point x="446" y="110" type="line"/>
      <point x="443" y="-6" type="line"/>
    </contour>
    <contour>
      <point x="154" y="600" type="curve"/>
      <point x="169" y="595" type="line"/>
      <point x="181" y="643"/>
      <point x="201" y="669"/>
      <point x="234" y="669" type="curve" smooth="yes"/>
      <point x="261" y="669"/>
      <point x="274" y="653"/>
      <point x="293" y="630" type="curve" smooth="yes"/>
      <point x="309" y="609"/>
      <point x="332" y="588"/>
      <point x="367" y="588" type="curve" smooth="yes"/>
      <point x="412" y="588"/>
      <point x="442" y="626"/>
      <point x="450" y="679" type="curve"/>
      <point x="435" y="684" type="line"/>
      <point x="423" y="636"/>
      <point x="403" y="611"/>
      <point x="370" y="611" type="curve" smooth="yes"/>
      <point x="343" y="611"/>
      <point x="330" y="626"/>
      <point x="311" y="649" type="curve" smooth="yes"/>
      <point x="294" y="671"/>
      <point x="270" y="692"/>
      <point x="237" y="692" type="curve" smooth="yes"/>
      <point x="192" y="692"/>
      <point x="162" y="654"/>
    </contour>
  </outline>
</glyph>
<glyph name="Ubreve" format="1">
  <advance width="737"/>
  <unicode hex="016C"/>
  <outline>
    <contour>
      <point x="594" y="650" type="line"/>
      <point x="689" y="657" type="line"/>
      <point x="689" y="677" type="line"/>
      <point x="453" y="677" type="line"/>
      <point x="453" y="657" type="line"/>
      <point x="580" y="650" type="line"/>
    </contour>
    <contour>
      <point x="157" y="650" type="line"/>
      <point x="171" y="650" type="line"/>
      <point x="288" y="657" type="line"/>
      <point x="288" y="677" type="line"/>
      <point x="50" y="677" type="line"/>
      <point x="50" y="657" type="line"/>
    </contour>
    <contour>
      <point x="178" y="256" type="curve" smooth="yes"/>
      <point x="178" y="361" type="line" smooth="yes"/>
      <point x="178" y="469"/>
      <point x="178" y="573"/>
      <point x="180" y="677" type="curve"/>
      <point x="146" y="677" type="line"/>
      <point x="148" y="573"/>
      <point x="148" y="467"/>
      <point x="148" y="361" type="curve" smooth="yes"/>
      <point x="148" y="249" type="line" smooth="yes"/>
      <point x="148" y="61"/>
      <point x="234" y="-13"/>
      <point x="370" y="-13" type="curve" smooth="yes"/>
      <point x="528" y="-13"/>
      <point x="599" y="82"/>
      <point x="599" y="248" type="curve" smooth="yes"/>
      <point x="599" y="677" type="line"/>
      <point x="575" y="677" type="line"/>
      <point x="575" y="274" type="line" smooth="yes"/>
      <point x="575" y="87"/>
      <point x="515" y="13"/>
      <point x="370" y="13" type="curve" smooth="yes"/>
      <point x="254" y="13"/>
      <point x="178" y="80"/>
    </contour>
    <contour>
      <point x="234" y="854" type="line"/>
      <point x="246" y="799"/>
      <point x="287" y="737"/>
      <point x="368" y="737" type="curve" smooth="yes"/>
      <point x="449" y="737"/>
      <point x="490" y="799"/>
      <point x="502" y="854" type="curve"/>
      <point x="487" y="859" type="line"/>
      <point x="469" y="801"/>
      <point x="431" y="764"/>
      <point x="368" y="764" type="curve" smooth="yes"/>
      <point x="305" y="764"/>
      <point x="267" y="801"/>
      <point x="249" y="859" type="curve"/>
    </contour>
  </outline>
</glyph>
<glyph name="Uring" format="1">
  <advance width="737"/>
  <unicode hex="016E"/>
  <outline>
    <contour>
      <point x="594" y="650" type="line"/>
      <point x="689" y="657" type="line"/>
      <point x="689" y="677" type="line"/>
      <point x="453" y="677" type="line"/>
      <point x="453" y="657" type="line"/>
      <point x="580" y="650" type="line"/>
    </contour>
    <contour>
      <point x="157" y="650" type="line"/>
      <point x="171" y="650" type="line"/>
      <point x="288" y="657" type="line"/>
      <point x="288" y="677" type="line"/>
      <point x="50" y="677" type="line"/>
      <point x="50" y="657" type="line"/>
    </contour>
    <contour>
      <point x="178" y="256" type="curve" smooth="yes"/>
      <point x="178" y="361" type="line" smooth="yes"/>
      <point x="178" y="469"/>
      <point x="178" y="573"/>
      <point x="180" y="677" type="curve"/>
      <point x="146" y="677" type="line"/>
      <point x="148" y="573"/>
      <point x="148" y="467"/>
      <point x="148" y="361" type="curve" smooth="yes"/>
      <point x="148" y="249" type="line" smooth="yes"/>
      <point x="148" y="61"/>
      <point x="234" y="-13"/>
      <point x="370" y="-13" type="curve" smooth="yes"/>
      <point x="528" y="-13"/>
      <point x="599" y="82"/>
      <point x="599" y="248" type="curve" smooth="yes"/>
      <point x="599" y="677" type="line"/>
      <point x="575" y="677" type="line"/>
      <point x="575" y="274" type="line" smooth="yes"/>
      <point x="575" y="87"/>
      <point x="515" y="13"/>
      <point x="370" y="13" type="curve" smooth="yes"/>
      <point x="254" y="13"/>
      <point x="178" y="80"/>
    </contour>
    <contour>
      <point x="375" y="721" type="curve" smooth="yes"/>
      <point x="417" y="721"/>
      <point x="457" y="754"/>
      <point x="457" y="804" type="curve" smooth="yes"/>
      <point x="457" y="854"/>
      <point x="417" y="887"/>
      <point x="375" y="887" type="curve" smooth="yes"/>
      <point x="333" y="887"/>
      <point x="293" y="854"/>
      <point x="293" y="804" type="curve" smooth="yes"/>
      <point x="293" y="754"/>
      <point x="333" y="721"/>
    </contour>
    <contour>
      <point x="375" y="741" type="curve" smooth="yes"/>
      <point x="341" y="741"/>
      <point x="316" y="771"/>
      <point x="316" y="804" type="curve" smooth="yes"/>
      <point x="316" y="837"/>
      <point x="341" y="867"/>
      <point x="375" y="867" type="curve" smooth="yes"/>
      <point x="409" y="867"/>
      <point x="434" y="837"/>
      <point x="434" y="804" type="curve" smooth="yes"/>
      <point x="434" y="771"/>
      <point x="409" y="741"/>
    </contour>
  </outline>
</glyph>
<glyph name="Uhungarumlaut" format="1">
  <advance width="737"/>
  <unicode hex="0170"/>
  <outline>
    <contour>
      <point x="594" y="650" type="line"/>
      <point x="689" y="657" type="line"/>
      <point x="689" y="677" type="line"/>
      <point x="453" y="677" type="line"/>
      <point x="453" y="657" type="line"/>
      <point x="580" y="650" type="line"/>
    </contour>
    <contour>
      <point x="157" y="650" type="line"/>
      <point x="171" y="650" type="line"/>
      <point x="288" y="657" type="line"/>
      <point x="288" y="677" type="line"/>
      <point x="50" y="677" type="line"/>
      <point x="50" y="657" type="line"/>
    </contour>
    <contour>
      <point x="178" y="256" type="curve" smooth="yes"/>
      <point x="178" y="361" type="line" smooth="yes"/>
      <point x="178" y="469"/>
      <point x="178" y="573"/>
      <point x="180" y="677" type="curve"/>
      <point x="146" y="677" type="line"/>
      <point x="148" y="573"/>
      <point x="148" y="467"/>
      <point x="148" y="361" type="curve" smooth="yes"/>
      <point x="148" y="249" type="line" smooth="yes"/>
      <point x="148" y="61"/>
      <point x="234" y="-13"/>
      <point x="370" y="-13" type="curve" smooth="yes"/>
      <point x="528" y="-13"/>
      <point x="599" y="82"/>
      <point x="599" y="248" type="curve" smooth="yes"/>
      <point x="599" y="677" type="line"/>
      <point x="575" y="677" type="line"/>
      <point x="575" y="274" type="line" smooth="yes"/>
      <point x="575" y="87"/>
      <point x="515" y="13"/>
      <point x="370" y="13" type="curve" smooth="yes"/>
      <point x="254" y="13"/>
      <point x="178" y="80"/>
    </contour>
    <contour>
      <point x="294" y="734" type="line"/>
      <point x="306" y="725" type="line"/>
      <point x="402" y="826" type="line" smooth="yes"/>
      <point x="412" y="837"/>
      <point x="415" y="841"/>
      <point x="415" y="851" type="curve" smooth="yes"/>
      <point x="415" y="858"/>
      <point x="409" y="866"/>
      <point x="400" y="866" type="curve" smooth="yes"/>
      <point x="392" y="866"/>
      <point x="384" y="861"/>
      <point x="375" y="848" type="curve" smooth="yes"/>
    </contour>
    <contour>
      <point x="425" y="734" type="line"/>
      <point x="437" y="725" type="line"/>
      <point x="533" y="826" type="line" smooth="yes"/>
      <point x="543" y="837"/>
      <point x="546" y="841"/>
      <point x="546" y="851" type="curve" smooth="yes"/>
      <point x="546" y="858"/>
      <point x="540" y="866"/>
      <point x="531" y="866" type="curve" smooth="yes"/>
      <point x="523" y="866"/>
      <point x="515" y="861"/>
      <point x="506" y="848" type="curve" smooth="yes"/>
    </contour>
  </outline>
</glyph>
<glyph name="uogonek" format="1">
  <advance width="604"/>
  <unicode hex="0173"/>
  <outline>
    <contour>
      <point x="399" y="-129" type="curve" smooth="yes"/>
      <point x="399" y="-188"/>
      <point x="438" y="-219"/>
      <point x="485" y="-219" type="curve" smooth="yes"/>
      <point x="523" y="-219"/>
      <point x="553" y="-203"/>
      <point x="570" y="-179" type="curve"/>
      <point x="560" y="-169" type="line"/>
      <point x="536" y="-189"/>
      <point x="518" y="-195"/>
      <point x="494" y="-195" type="curve" smooth="yes"/>
      <point x="455" y="-195"/>
      <point x="427" y="-169"/>
      <point x="427" y="-118" type="curve" smooth="yes"/>
      <point x="427" y="-79"/>
      <point x="453" y="-38"/>
      <point x="512" y="4" type="curve"/>
      <point x="493" y="4" type="line"/>
      <point x="438" y="-33"/>
      <point x="399" y="-76"/>
    </contour>
    <contour>
      <point x="153" y="324" type="line"/>
      <point x="157" y="462" type="line"/>
      <point x="148" y="474" type="line"/>
      <point x="39" y="468" type="line"/>
      <point x="39" y="448" type="line"/>
      <point x="140" y="441" type="line"/>
      <point x="127" y="452" type="line"/>
      <point x="125" y="175" type="line" smooth="yes"/>
      <point x="124" y="33"/>
      <point x="168" y="-13"/>
      <point x="261" y="-13" type="curve" smooth="yes"/>
      <point x="344" y="-13"/>
      <point x="404" y="39"/>
      <point x="452" y="103" type="curve"/>
      <point x="446" y="122" type="line"/>
      <point x="395" y="54"/>
      <point x="333" y="15"/>
      <point x="266" y="15" type="curve" smooth="yes"/>
      <point x="194" y="15"/>
      <point x="153" y="57"/>
      <point x="153" y="178" type="curve" smooth="yes"/>
    </contour>
    <contour>
      <point x="553" y="0" type="line"/>
      <point x="553" y="20" type="line"/>
      <point x="474" y="25" type="line"/>
      <point x="474" y="324" type="line"/>
      <point x="478" y="462" type="line"/>
      <point x="469" y="474" type="line"/>
      <point x="360" y="468" type="line"/>
      <point x="360" y="447" type="line"/>
      <point x="446" y="442" type="line"/>
      <point x="446" y="110" type="line"/>
      <point x="443" y="-6" type="line"/>
    </contour>
    <contour>
      <point x="292" y="500" type="move" name="aboveLC"/>
    </contour>
  </outline>
</glyph>
<glyph name="zdotaccent" format="1">
  <advance width="457"/>
  <unicode hex="017C"/>
  <outline>
    <contour>
      <point x="59" y="470" type="line"/>
      <point x="53" y="345" type="line"/>
      <point x="74" y="341" type="line"/>
      <point x="92" y="450" type="line"/>
      <point x="367" y="450" type="line"/>
      <point x="54" y="20" type="line"/>
      <point x="54" y="0" type="line"/>
      <point x="411" y="0" type="line"/>
      <point x="418" y="139" type="line"/>
      <point x="397" y="139" type="line"/>
      <point x="376" y="20" type="line"/>
      <point x="87" y="20" type="line"/>
      <point x="401" y="450" type="line"/>
      <point x="401" y="470" type="line"/>
    </contour>
    <contour>
      <point x="248" y="625" type="curve" smooth="yes"/>
      <point x="264" y="625"/>
      <point x="280" y="638"/>
      <point x="280" y="657" type="curve" smooth="yes"/>
      <point x="280" y="676"/>
      <point x="264" y="689"/>
      <point x="248" y="689" type="curve" smooth="yes"/>
      <point x="232" y="689"/>
      <point x="216" y="676"/>
      <point x="216" y="657" type="curve" smooth="yes"/>
      <point x="216" y="638"/>
      <point x="232" y="625"/>
    </contour>
  </outline>
</glyph>
<glyph name="Zcaron" format="1">
  <advance width="555"/>
  <unicode hex="017D"/>
  <outline>
    <contour>
      <point x="67" y="514" type="line"/>
      <point x="86" y="655" type="line"/>
      <point x="472" y="655" type="line"/>
      <point x="30" y="20" type="line"/>
      <point x="30" y="0" type="line"/>
      <point x="515" y="0" type="line"/>
      <point x="525" y="163" type="line"/>
      <point x="503" y="163" type="line"/>
      <point x="482" y="22" type="line"/>
      <point x="66" y="22" type="line"/>
      <point x="506" y="657" type="line"/>
      <point x="506" y="677" type="line"/>
      <point x="53" y="677" type="line"/>
      <point x="45" y="514" type="line"/>
    </contour>
    <contour>
      <point x="174" y="865" type="line"/>
      <point x="163" y="854" type="line"/>
      <point x="274" y="740" type="line"/>
      <point x="294" y="740" type="line"/>
      <point x="405" y="854" type="line"/>
      <point x="394" y="865" type="line"/>
      <point x="275" y="764" type="line"/>
      <point x="293" y="764" type="line"/>
    </contour>
  </outline>
</glyph>
<glyph name="zcaron" format="1">
  <advance width="457"/>
  <unicode hex="017E"/>
  <outline>
    <contour>
      <point x="59" y="470" type="line"/>
      <point x="53" y="345" type="line"/>
      <point x="74" y="341" type="line"/>
      <point x="92" y="450" type="line"/>
      <point x="367" y="450" type="line"/>
      <point x="54" y="20" type="line"/>
      <point x="54" y="0" type="line"/>
      <point x="411" y="0" type="line"/>
      <point x="418" y="139" type="line"/>
      <point x="397" y="139" type="line"/>
      <point x="376" y="20" type="line"/>
      <point x="87" y="20" type="line"/>
      <point x="401" y="450" type="line"/>
      <point x="401" y="470" type="line"/>
    </contour>
    <contour>
      <point x="128" y="716" type="line"/>
      <point x="118" y="706" type="line"/>
      <point x="236" y="570" type="line"/>
      <point x="256" y="570" type="line"/>
      <point x="374" y="706" type="line"/>
      <point x="364" y="716" type="line"/>
      <point x="237" y="599" type="line"/>
      <point x="255" y="599" type="line"/>
    </contour>
  </outline>
</glyph>
<glyph name="Acaron" format="1">
  <advance width="653"/>
  <unicode hex="01CD"/>
  <outline>
    <contour>
      <point x="12" y="0" type="line"/>
      <point x="210" y="0" type="line"/>
      <point x="210" y="20" type="line"/>
      <point x="113" y="26" type="line"/>
      <point x="99" y="26" type="line"/>
      <point x="12" y="20" type="line"/>
    </contour>
    <contour>
      <point x="173" y="247" type="line"/>
      <point x="468" y="247" type="line"/>
      <point x="460" y="267" type="line"/>
      <point x="182" y="267" type="line"/>
    </contour>
    <contour>
      <point x="403" y="0" type="line"/>
      <point x="651" y="0" type="line"/>
      <point x="651" y="20" type="line"/>
      <point x="537" y="26" type="line"/>
      <point x="523" y="26" type="line"/>
      <point x="403" y="20" type="line"/>
    </contour>
    <contour>
      <point x="85" y="0" type="line"/>
      <point x="114" y="0" type="line"/>
      <point x="315" y="636" type="line"/>
      <point x="524" y="0" type="line"/>
      <point x="556" y="0" type="line"/>
      <point x="327" y="684" type="line"/>
      <point x="307" y="684" type="line"/>
    </contour>
    <contour>
      <point x="206" y="865" type="line"/>
      <point x="195" y="854" type="line"/>
      <point x="306" y="740" type="line"/>
      <point x="326" y="740" type="line"/>
      <point x="437" y="854" type="line"/>
      <point x="426" y="865" type="line"/>
      <point x="307" y="764" type="line"/>
      <point x="325" y="764" type="line"/>
    </contour>
  </outline>
</glyph>
<glyph name="Ocaron" format="1">
  <advance width="706"/>
  <unicode hex="01D1"/>
  <outline>
    <contour>
      <point x="95" y="338" type="curve" smooth="yes"/>
      <point x="95" y="518"/>
      <point x="193" y="668"/>
      <point x="353" y="668" type="curve" smooth="yes"/>
      <point x="513" y="668"/>
      <point x="611" y="518"/>
      <point x="611" y="338" type="curve" smooth="yes"/>
      <point x="611" y="158"/>
      <point x="513" y="9"/>
      <point x="353" y="9" type="curve" smooth="yes"/>
      <point x="193" y="9"/>
      <point x="95" y="158"/>
    </contour>
    <contour>
      <point x="353" y="690" type="curve" smooth="yes"/>
      <point x="188" y="690"/>
      <point x="63" y="550"/>
      <point x="63" y="338" type="curve" smooth="yes"/>
      <point x="63" y="126"/>
      <point x="188" y="-13"/>
      <point x="353" y="-13" type="curve" smooth="yes"/>
      <point x="518" y="-13"/>
      <point x="643" y="126"/>
      <point x="643" y="338" type="curve" smooth="yes"/>
      <point x="643" y="550"/>
      <point x="518" y="690"/>
    </contour>
    <contour>
      <point x="243" y="865" type="line"/>
      <point x="232" y="854" type="line"/>
      <point x="343" y="740" type="line"/>
      <point x="363" y="740" type="line"/>
      <point x="474" y="854" type="line"/>
      <point x="463" y="865" type="line"/>
      <point x="344" y="764" type="line"/>
      <point x="362" y="764" type="line"/>
    </contour>
  </outline>
</glyph>
<glyph name="Udieresisacute" format="1">
  <advance width="737"/>
  <unicode hex="01D7"/>
  <outline>
    <contour>
      <point x="594" y="650" type="line"/>
      <point x="689" y="657" type="line"/>
      <point x="689" y="677" type="line"/>
      <point x="453" y="677" type="line"/>
      <point x="453" y="657" type="line"/>
      <point x="580" y="650" type="line"/>
    </contour>
    <contour>
      <point x="157" y="650" type="line"/>
      <point x="171" y="650" type="line"/>
      <point x="288" y="657" type="line"/>
      <point x="288" y="677" type="line"/>
      <point x="50" y="677" type="line"/>
      <point x="50" y="657" type="line"/>
    </contour>
    <contour>
      <point x="178" y="256" type="curve" smooth="yes"/>
      <point x="178" y="361" type="line" smooth="yes"/>
      <point x="178" y="469"/>
      <point x="178" y="573"/>
      <point x="180" y="677" type="curve"/>
      <point x="146" y="677" type="line"/>
      <point x="148" y="573"/>
      <point x="148" y="467"/>
      <point x="148" y="361" type="curve" smooth="yes"/>
      <point x="148" y="249" type="line" smooth="yes"/>
      <point x="148" y="61"/>
      <point x="234" y="-13"/>
      <point x="370" y="-13" type="curve" smooth="yes"/>
      <point x="528" y="-13"/>
      <point x="599" y="82"/>
      <point x="599" y="248" type="curve" smooth="yes"/>
      <point x="599" y="677" type="line"/>
      <point x="575" y="677" type="line"/>
      <point x="575" y="274" type="line" smooth="yes"/>
      <point x="575" y="87"/>
      <point x="515" y="13"/>
      <point x="370" y="13" type="curve" smooth="yes"/>
      <point x="254" y="13"/>
      <point x="178" y="80"/>
    </contour>
    <contour>
      <point x="241" y="788" type="curve" smooth="yes"/>
      <point x="241" y="768"/>
      <point x="257" y="756"/>
      <point x="273" y="756" type="curve" smooth="yes"/>
      <point x="290" y="756"/>
      <point x="305" y="768"/>
      <point x="305" y="788" type="curve" smooth="yes"/>
      <point x="305" y="808"/>
      <point x="290" y="820"/>
      <point x="273" y="820" type="curve" smooth="yes"/>
      <point x="257" y="820"/>
      <point x="241" y="808"/>
    </contour>
    <contour>
      <point x="362" y="814" type="line"/>
      <point x="450" y="877" type="line" smooth="yes"/>
      <point x="480" y="898"/>
      <point x="490" y="904"/>
      <point x="490" y="916" type="curve" smooth="yes"/>
      <point x="490" y="926"/>
      <point x="482" y="933"/>
      <point x="472" y="933" type="curve" smooth="yes"/>
      <point x="462" y="933"/>
      <point x="455" y="928"/>
      <point x="435" y="908" type="curve" smooth="yes"/>
      <point x="352" y="825" type="line"/>
    </contour>
    <contour>
      <point x="447" y="788" type="curve" smooth="yes"/>
      <point x="447" y="768"/>
      <point x="462" y="756"/>
      <point x="479" y="756" type="curve" smooth="yes"/>
      <point x="495" y="756"/>
      <point x="511" y="768"/>
      <point x="511" y="788" type="curve" smooth="yes"/>
      <point x="511" y="808"/>
      <point x="495" y="820"/>
      <point x="479" y="820" type="curve" smooth="yes"/>
      <point x="462" y="820"/>
      <point x="447" y="808"/>
    </contour>
  </outline>
</glyph>
<glyph name="Tcommaaccent" format="1">
  <advance width="594"/>
  <unicode hex="021A"/>
  <outline>
    <contour>
      <point x="290" y="27" type="line"/>
      <point x="163" y="20" type="line"/>
      <point x="163" y="0" type="line"/>
      <point x="431" y="0" type="line"/>
      <point x="431" y="20" type="line"/>
      <point x="304" y="27" type="line"/>
    </contour>
    <contour>
      <point x="282" y="310" type="line" smooth="yes"/>
      <point x="282" y="206"/>
      <point x="282" y="102"/>
      <point x="280" y="0" type="curve"/>
      <point x="314" y="0" type="line"/>
      <point x="312" y="102"/>
      <point x="312" y="206"/>
      <point x="312" y="310" type="curve" smooth="yes"/>
      <point x="312" y="367" type="line" smooth="yes"/>
      <point x="312" y="471"/>
      <point x="312" y="575"/>
      <point x="314" y="677" type="curve"/>
      <point x="280" y="677" type="line"/>
      <point x="282" y="575"/>
      <point x="282" y="471"/>
      <point x="282" y="367" type="curve" smooth="yes"/>
    </contour>
    <contour>
      <point x="545" y="655" type="line"/>
      <point x="531" y="677" type="line"/>
      <point x="550" y="514" type="line"/>
      <point x="574" y="514" type="line"/>
      <point x="564" y="677" type="line"/>
      <point x="30" y="677" type="line"/>
      <point x="20" y="514" type="line"/>
      <point x="44" y="514" type="line"/>
      <point x="63" y="677" type="line"/>
      <point x="49" y="655" type="line"/>
    </contour>
    <contour>
      <point x="325" y="-104" type="curve" smooth="yes"/>
      <point x="325" y="-95"/>
      <point x="323" y="-84"/>
      <point x="320" y="-78" type="curve"/>
      <point x="312" y="-70"/>
      <point x="300" y="-67"/>
      <point x="290" y="-67" type="curve" smooth="yes"/>
      <point x="273" y="-67"/>
      <point x="259" y="-76"/>
      <point x="259" y="-96" type="curve" smooth="yes"/>
      <point x="259" y="-113"/>
      <point x="277" y="-130"/>
      <point x="304" y="-137" type="curve"/>
      <point x="299" y="-127" type="line"/>
      <point x="289" y="-164"/>
      <point x="260" y="-197"/>
      <point x="212" y="-215" type="curve"/>
      <point x="218" y="-231" type="line"/>
      <point x="275" y="-215"/>
      <point x="325" y="-165"/>
    </contour>
  </outline>
</glyph>
<glyph name="tcommaaccent" format="1">
  <advance width="332"/>
  <unicode hex="021B"/>
  <outline>
    <contour>
      <point x="139" y="470" type="line"/>
      <point x="139" y="446" type="line"/>
      <point x="298" y="446" type="line"/>
      <point x="298" y="470" type="line"/>
    </contour>
    <contour>
      <point x="153" y="106" type="curve" smooth="yes"/>
      <point x="153" y="451" type="line"/>
      <point x="157" y="619" type="line"/>
      <point x="135" y="619" type="line"/>
      <point x="124" y="458" type="line"/>
      <point x="145" y="471" type="line"/>
      <point x="15" y="466" type="line"/>
      <point x="15" y="446" type="line"/>
      <point x="125" y="446" type="line"/>
      <point x="125" y="174" type="line" smooth="yes"/>
      <point x="125" y="147"/>
      <point x="124" y="129"/>
      <point x="124" y="110" type="curve" smooth="yes"/>
      <point x="122" y="30"/>
      <point x="148" y="-13"/>
      <point x="221" y="-13" type="curve" smooth="yes"/>
      <point x="256" y="-13"/>
      <point x="284" y="-4"/>
      <point x="307" y="15" type="curve"/>
      <point x="300" y="29" type="line"/>
      <point x="275" y="17"/>
      <point x="257" y="11"/>
      <point x="224" y="11" type="curve" smooth="yes"/>
      <point x="177" y="11"/>
      <point x="153" y="39"/>
    </contour>
    <contour>
      <point x="243" y="-104" type="curve" smooth="yes"/>
      <point x="243" y="-95"/>
      <point x="241" y="-84"/>
      <point x="238" y="-78" type="curve"/>
      <point x="230" y="-70"/>
      <point x="218" y="-67"/>
      <point x="208" y="-67" type="curve" smooth="yes"/>
      <point x="191" y="-67"/>
      <point x="177" y="-76"/>
      <point x="177" y="-96" type="curve" smooth="yes"/>
      <point x="177" y="-113"/>
      <point x="195" y="-130"/>
      <point x="222" y="-137" type="curve"/>
      <point x="217" y="-127" type="line"/>
      <point x="207" y="-164"/>
      <point x="178" y="-197"/>
      <point x="130" y="-215" type="curve"/>
      <point x="136" y="-231" type="line"/>
      <point x="193" y="-215"/>
      <point x="243" y="-165"/>
    </contour>
  </outline>
</glyph>
<glyph name="caron" format="1">
  <advance width="400"/>
  <unicode hex="02C7"/>
  <outline>
    <contour>
      <point x="82" y="716" type="line"/>
      <point x="72" y="706" type="line"/>
      <point x="190" y="570" type="line"/>
      <point x="210" y="570" type="line"/>
      <point x="328" y="706" type="line"/>
      <point x="318" y="716" type="line"/>
      <point x="191" y="599" type="line"/>
      <point x="209" y="599" type="line"/>
    </contour>
    <contour>
      <point x="200" y="500" type="move" name="_aboveLC"/>
    </contour>
  </outline>
</glyph>
<glyph name="verticallinelowmod" format="1">
  <advance width="88"/>
  <unicode hex="02CC"/>
  <outline>
    <contour>
      <point x="28" y="-264" type="line"/>
      <point x="60" y="-264" type="line"/>
      <point x="54" y="-76" type="line"/>
      <point x="34" y="-76" type="line"/>
    </contour>
  </outline>
</glyph>
<glyph name="ring" format="1">
  <advance width="400"/>
  <unicode hex="02DA"/>
  <outline>
    <contour>
      <point x="200" y="589" type="curve" smooth="yes"/>
      <point x="163" y="589"/>
      <point x="137" y="620"/>
      <point x="137" y="656" type="curve" smooth="yes"/>
      <point x="137" y="692"/>
      <point x="163" y="723"/>
      <point x="200" y="723" type="curve" smooth="yes"/>
      <point x="237" y="723"/>
      <point x="263" y="692"/>
      <point x="263" y="656" type="curve" smooth="yes"/>
      <point x="263" y="620"/>
      <point x="237" y="589"/>
    </contour>
    <contour>
      <point x="200" y="569" type="curve" smooth="yes"/>
      <point x="244" y="569"/>
      <point x="286" y="603"/>
      <point x="286" y="656" type="curve" smooth="yes"/>
      <point x="286" y="709"/>
      <point x="244" y="743"/>
      <point x="200" y="743" type="curve" smooth="yes"/>
      <point x="156" y="743"/>
      <point x="114" y="709"/>
      <point x="114" y="656" type="curve" smooth="yes"/>
      <point x="114" y="603"/>
      <point x="156" y="569"/>
    </contour>
    <contour>
      <point x="200" y="500" type="move" name="_aboveLC"/>
    </contour>
  </outline>
</glyph>
<glyph name="ogonek" format="1">
  <advance width="400"/>
  <unicode hex="02DB"/>
  <outline>
    <contour>
      <point x="123" y="-133" type="curve" smooth="yes"/>
      <point x="123" y="-192"/>
      <point x="162" y="-223"/>
      <point x="209" y="-223" type="curve" smooth="yes"/>
      <point x="247" y="-223"/>
      <point x="277" y="-207"/>
      <point x="294" y="-183" type="curve"/>
      <point x="284" y="-173" type="line"/>
      <point x="260" y="-193"/>
      <point x="242" y="-199"/>
      <point x="218" y="-199" type="curve" smooth="yes"/>
      <point x="179" y="-199"/>
      <point x="151" y="-173"/>
      <point x="151" y="-122" type="curve" smooth="yes"/>
      <point x="151" y="-81"/>
      <point x="178" y="-29"/>
      <point x="217" y="5" type="curve"/>
      <point x="198" y="5" type="line"/>
      <point x="162" y="-26"/>
      <point x="123" y="-77"/>
    </contour>
    <contour>
      <point x="202" y="0" type="move" name="_ogonek"/>
    </contour>
  </outline>
</glyph>
<glyph name="tilde" format="1">
  <advance width="400"/>
  <unicode hex="02DC"/>
  <outline>
    <contour>
      <point x="54" y="600" type="curve"/>
      <point x="69" y="595" type="line"/>
      <point x="81" y="643"/>
      <point x="101" y="669"/>
      <point x="134" y="669" type="curve" smooth="yes"/>
      <point x="161" y="669"/>
      <point x="174" y="653"/>
      <point x="193" y="630" type="curve" smooth="yes"/>
      <point x="209" y="609"/>
      <point x="232" y="588"/>
      <point x="267" y="588" type="curve" smooth="yes"/>
      <point x="312" y="588"/>
      <point x="342" y="626"/>
      <point x="350" y="679" type="curve"/>
      <point x="335" y="684" type="line"/>
      <point x="323" y="636"/>
      <point x="303" y="611"/>
      <point x="270" y="611" type="curve" smooth="yes"/>
      <point x="243" y="611"/>
      <point x="230" y="626"/>
      <point x="211" y="649" type="curve" smooth="yes"/>
      <point x="194" y="671"/>
      <point x="170" y="692"/>
      <point x="137" y="692" type="curve" smooth="yes"/>
      <point x="92" y="692"/>
      <point x="62" y="654"/>
    </contour>
    <contour>
      <point x="202" y="500" type="move" name="_aboveLC"/>
    </contour>
  </outline>
</glyph>
<glyph name="dieresisbelowcmb" format="1">
  <unicode hex="0324"/>
  <outline>
    <contour>
      <point x="94" y="-146" type="curve" smooth="yes"/>
      <point x="109" y="-146"/>
      <point x="123" y="-135"/>
      <point x="123" y="-116" type="curve" smooth="yes"/>
      <point x="123" y="-98"/>
      <point x="109" y="-87"/>
      <point x="94" y="-87" type="curve" smooth="yes"/>
      <point x="79" y="-87"/>
      <point x="65" y="-98"/>
      <point x="65" y="-116" type="curve" smooth="yes"/>
      <point x="65" y="-135"/>
      <point x="79" y="-146"/>
    </contour>
    <contour>
      <point x="-94" y="-146" type="curve" smooth="yes"/>
      <point x="-79" y="-146"/>
      <point x="-65" y="-135"/>
      <point x="-65" y="-116" type="curve" smooth="yes"/>
      <point x="-65" y="-98"/>
      <point x="-79" y="-87"/>
      <point x="-94" y="-87" type="curve" smooth="yes"/>
      <point x="-109" y="-87"/>
      <point x="-123" y="-98"/>
      <point x="-123" y="-116" type="curve" smooth="yes"/>
      <point x="-123" y="-135"/>
      <point x="-109" y="-146"/>
    </contour>
    <contour>
      <point x="0" y="-22" type="move" name="_belowLC"/>
    </contour>
  </outline>
</glyph>
<glyph name="brevebelowcmb" format="1">
  <unicode hex="032E"/>
  <outline>
    <contour>
      <point x="-141" y="-74" type="line"/>
      <point x="-129" y="-157"/>
      <point x="-75" y="-215"/>
      <point x="0" y="-215" type="curve" smooth="yes"/>
      <point x="75" y="-215"/>
      <point x="129" y="-157"/>
      <point x="141" y="-74" type="curve"/>
      <point x="126" y="-70" type="line"/>
      <point x="106" y="-139"/>
      <point x="69" y="-188"/>
      <point x="0" y="-188" type="curve" smooth="yes"/>
      <point x="-69" y="-188"/>
      <point x="-106" y="-139"/>
      <point x="-126" y="-70" type="curve"/>
    </contour>
    <contour>
      <point x="0" y="-22" type="move" name="_belowLC"/>
    </contour>
  </outline>
</glyph>
<glyph name="numeralsign" format="1">
  <advance width="228"/>
  <unicode hex="0374"/>
  <outline>
    <contour>
      <point x="81" y="471" type="line"/>
      <point x="96" y="469" type="line"/>
      <point x="104" y="514"/>
      <point x="111" y="558"/>
      <point x="115" y="582" type="curve" smooth="yes"/>
      <point x="128" y="665"/>
      <point x="133" y="701"/>
      <point x="133" y="723" type="curve" smooth="yes"/>
      <point x="133" y="738"/>
      <point x="125" y="747"/>
      <point x="113" y="747" type="curve" smooth="yes"/>
      <point x="104" y="747"/>
      <point x="97" y="743"/>
      <point x="92" y="738" type="curve"/>
    </contour>
  </outline>
</glyph>
<glyph name="Alphatonos" format="1">
  <advance width="655"/>
  <unicode hex="0386"/>
  <outline>
    <contour>
      <point x="14" y="0" type="line"/>
      <point x="212" y="0" type="line"/>
      <point x="212" y="20" type="line"/>
      <point x="115" y="26" type="line"/>
      <point x="101" y="26" type="line"/>
      <point x="14" y="20" type="line"/>
    </contour>
    <contour>
      <point x="175" y="247" type="line"/>
      <point x="470" y="247" type="line"/>
      <point x="462" y="267" type="line"/>
      <point x="184" y="267" type="line"/>
    </contour>
    <contour>
      <point x="405" y="0" type="line"/>
      <point x="653" y="0" type="line"/>
      <point x="653" y="20" type="line"/>
      <point x="539" y="26" type="line"/>
      <point x="525" y="26" type="line"/>
      <point x="405" y="20" type="line"/>
    </contour>
    <contour>
      <point x="87" y="0" type="line"/>
      <point x="116" y="0" type="line"/>
      <point x="317" y="636" type="line"/>
      <point x="526" y="0" type="line"/>
      <point x="558" y="0" type="line"/>
      <point x="329" y="684" type="line"/>
      <point x="309" y="684" type="line"/>
    </contour>
    <contour>
      <point x="32" y="480" type="curve"/>
      <point x="46" y="476" type="line"/>
      <point x="67" y="525"/>
      <point x="88" y="572"/>
      <point x="106" y="621" type="curve" smooth="yes"/>
      <point x="110" y="632"/>
      <point x="113" y="640"/>
      <point x="113" y="650" type="curve" smooth="yes"/>
      <point x="113" y="660"/>
      <point x="107" y="667"/>
      <point x="96" y="667" type="curve" smooth="yes"/>
      <point x="87" y="667"/>
      <point x="78" y="660"/>
      <point x="63" y="605" type="curve" smooth="yes"/>
      <point x="58" y="587"/>
      <point x="45" y="533"/>
    </contour>
  </outline>
</glyph>
<glyph name="anoteleia" format="1">
  <advance width="300"/>
  <unicode hex="0387"/>
  <outline>
    <contour>
      <point x="150" y="413" type="curve" smooth="yes"/>
      <point x="171" y="413"/>
      <point x="184" y="430"/>
      <point x="184" y="446" type="curve" smooth="yes"/>
      <point x="184" y="465"/>
      <point x="171" y="479"/>
      <point x="150" y="479" type="curve" smooth="yes"/>
      <point x="129" y="479"/>
      <point x="116" y="465"/>
      <point x="116" y="446" type="curve" smooth="yes"/>
      <point x="116" y="430"/>
      <point x="129" y="413"/>
    </contour>
  </outline>
</glyph>
<glyph name="Upsilontonos" format="1">
  <advance width="739"/>
  <unicode hex="038E"/>
  <outline>
    <contour>
      <point x="415" y="27" type="line"/>
      <point x="288" y="20" type="line"/>
      <point x="288" y="0" type="line"/>
      <point x="556" y="0" type="line"/>
      <point x="556" y="20" type="line"/>
      <point x="429" y="27" type="line"/>
    </contour>
    <contour>
      <point x="227" y="650" type="line"/>
      <point x="241" y="650" type="line"/>
      <point x="358" y="657" type="line"/>
      <point x="358" y="677" type="line"/>
      <point x="135" y="677" type="line"/>
      <point x="135" y="657" type="line"/>
    </contour>
    <contour>
      <point x="620" y="650" type="line"/>
      <point x="713" y="657" type="line"/>
      <point x="713" y="677" type="line"/>
      <point x="490" y="677" type="line"/>
      <point x="490" y="657" type="line"/>
      <point x="606" y="650" type="line"/>
    </contour>
    <contour>
      <point x="405" y="0" type="curve"/>
      <point x="439" y="0" type="line"/>
      <point x="437" y="97"/>
      <point x="437" y="115"/>
      <point x="437" y="289" type="curve"/>
      <point x="407" y="289" type="line"/>
      <point x="407" y="115"/>
      <point x="407" y="97"/>
    </contour>
    <contour>
      <point x="427" y="253" type="line"/>
      <point x="640" y="677" type="line"/>
      <point x="614" y="677" type="line"/>
      <point x="417" y="279" type="line"/>
      <point x="432" y="283" type="line"/>
      <point x="235" y="677" type="line"/>
      <point x="203" y="677" type="line"/>
      <point x="418" y="250" type="line"/>
    </contour>
    <contour>
      <point x="-10" y="480" type="curve"/>
      <point x="4" y="476" type="line"/>
      <point x="25" y="525"/>
      <point x="46" y="572"/>
      <point x="64" y="621" type="curve" smooth="yes"/>
      <point x="68" y="632"/>
      <point x="71" y="640"/>
      <point x="71" y="650" type="curve" smooth="yes"/>
      <point x="71" y="660"/>
      <point x="65" y="667"/>
      <point x="54" y="667" type="curve" smooth="yes"/>
      <point x="45" y="667"/>
      <point x="36" y="660"/>
      <point x="21" y="605" type="curve" smooth="yes"/>
      <point x="16" y="587"/>
      <point x="3" y="533"/>
    </contour>
  </outline>
</glyph>
<glyph name="etatonos" format="1">
  <advance width="534"/>
  <unicode hex="03AE"/>
  <outline>
    <contour>
      <point x="112" y="-2" type="line"/>
      <point x="122" y="-8" type="line"/>
      <point x="144" y="0" type="line"/>
      <point x="142" y="355" type="line" smooth="yes"/>
      <point x="141" y="466"/>
      <point x="119" y="480"/>
      <point x="81" y="480" type="curve" smooth="yes"/>
      <point x="57" y="480"/>
      <point x="40" y="471"/>
      <point x="34" y="464" type="curve"/>
      <point x="39" y="452" type="line"/>
      <point x="48" y="454"/>
      <point x="57" y="455"/>
      <point x="66" y="455" type="curve" smooth="yes"/>
      <point x="103" y="455"/>
      <point x="119" y="437"/>
      <point x="119" y="377" type="curve" smooth="yes"/>
      <point x="117" y="124" type="line"/>
    </contour>
    <contour>
      <point x="422" y="-184" type="line"/>
      <point x="432" y="-190" type="line"/>
      <point x="454" y="-182" type="line"/>
      <point x="450" y="321" type="line" smooth="yes"/>
      <point x="449" y="440"/>
      <point x="387" y="483"/>
      <point x="321" y="483" type="curve" smooth="yes"/>
      <point x="265" y="483"/>
      <point x="161" y="439"/>
      <point x="133" y="331" type="curve"/>
      <point x="138" y="323" type="line"/>
      <point x="178" y="417"/>
      <point x="250" y="451"/>
      <point x="310" y="451" type="curve" smooth="yes"/>
      <point x="382" y="451"/>
      <point x="431" y="408"/>
      <point x="430" y="310" type="curve" smooth="yes"/>
      <point x="427" y="-58" type="line"/>
    </contour>
    <contour>
      <point x="271" y="568" type="curve"/>
      <point x="286" y="563" type="line"/>
      <point x="308" y="612"/>
      <point x="327" y="660"/>
      <point x="332" y="673" type="curve" smooth="yes"/>
      <point x="349" y="720"/>
      <point x="352" y="728"/>
      <point x="352" y="738" type="curve" smooth="yes"/>
      <point x="352" y="748"/>
      <point x="346" y="755"/>
      <point x="335" y="755" type="curve" smooth="yes"/>
      <point x="326" y="755"/>
      <point x="317" y="748"/>
      <point x="300" y="686" type="curve" smooth="yes"/>
      <point x="297" y="675"/>
      <point x="284" y="621"/>
    </contour>
  </outline>
</glyph>
<glyph name="upsilondieresistonos" format="1">
  <advance width="533"/>
  <unicode hex="03B0"/>
  <outline>
    <contour>
      <point x="109" y="168" type="curve" smooth="yes"/>
      <point x="109" y="37"/>
      <point x="187" y="-13"/>
      <point x="289" y="-13" type="curve" smooth="yes"/>
      <point x="403" y="-13"/>
      <point x="473" y="68"/>
      <point x="473" y="251" type="curve" smooth="yes"/>
      <point x="473" y="336"/>
      <point x="454" y="414"/>
      <point x="438" y="475" type="curve"/>
      <point x="434" y="480"/>
      <point x="426" y="483"/>
      <point x="418" y="483" type="curve" smooth="yes"/>
      <point x="407" y="483"/>
      <point x="401" y="472"/>
      <point x="401" y="460" type="curve" smooth="yes"/>
      <point x="401" y="434"/>
      <point x="420" y="394"/>
      <point x="461" y="308" type="curve"/>
      <point x="453" y="365" type="line"/>
      <point x="441" y="370" type="line"/>
      <point x="449" y="320"/>
      <point x="452" y="290"/>
      <point x="452" y="249" type="curve" smooth="yes"/>
      <point x="452" y="79"/>
      <point x="390" y="10"/>
      <point x="291" y="10" type="curve" smooth="yes"/>
      <point x="189" y="10"/>
      <point x="137" y="59"/>
      <point x="137" y="174" type="curve" smooth="yes"/>
      <point x="137" y="263"/>
      <point x="147" y="309"/>
      <point x="147" y="380" type="curve" smooth="yes"/>
      <point x="147" y="450"/>
      <point x="128" y="480"/>
      <point x="81" y="480" type="curve" smooth="yes"/>
      <point x="58" y="480"/>
      <point x="42" y="471"/>
      <point x="36" y="464" type="curve"/>
      <point x="41" y="452" type="line"/>
      <point x="48" y="454"/>
      <point x="57" y="455"/>
      <point x="66" y="455" type="curve" smooth="yes"/>
      <point x="105" y="455"/>
      <point x="121" y="439"/>
      <point x="121" y="377" type="curve" smooth="yes"/>
      <point x="121" y="323"/>
      <point x="109" y="254"/>
    </contour>
    <contour>
      <point x="266" y="567" type="line"/>
      <point x="286" y="615"/>
      <point x="304" y="663"/>
      <point x="309" y="676" type="curve" smooth="yes"/>
      <point x="326" y="724"/>
      <point x="329" y="732"/>
      <point x="329" y="742" type="curve" smooth="yes"/>
      <point x="329" y="752"/>
      <point x="323" y="759"/>
      <point x="312" y="759" type="curve" smooth="yes"/>
      <point x="303" y="759"/>
      <point x="295" y="752"/>
      <point x="280" y="699" type="curve" smooth="yes"/>
      <point x="275" y="680"/>
      <point x="261" y="626"/>
      <point x="248" y="572" type="curve"/>
    </contour>
    <contour>
      <point x="378" y="645" type="curve" smooth="yes"/>
      <point x="393" y="645"/>
      <point x="407" y="656"/>
      <point x="407" y="674" type="curve" smooth="yes"/>
      <point x="407" y="692"/>
      <point x="393" y="703"/>
      <point x="378" y="703" type="curve" smooth="yes"/>
      <point x="363" y="703"/>
      <point x="349" y="692"/>
      <point x="349" y="674" type="curve" smooth="yes"/>
      <point x="349" y="656"/>
      <point x="363" y="645"/>
    </contour>
    <contour>
      <point x="192" y="645" type="curve" smooth="yes"/>
      <point x="207" y="645"/>
      <point x="221" y="656"/>
      <point x="221" y="674" type="curve" smooth="yes"/>
      <point x="221" y="692"/>
      <point x="207" y="703"/>
      <point x="192" y="703" type="curve" smooth="yes"/>
      <point x="177" y="703"/>
      <point x="163" y="692"/>
      <point x="163" y="674" type="curve" smooth="yes"/>
      <point x="163" y="656"/>
      <point x="177" y="645"/>
    </contour>
  </outline>
</glyph>
<glyph name="omicrontonos" format="1">
  <advance width="514"/>
  <unicode hex="03CC"/>
  <outline>
    <contour>
      <point x="257" y="-13" type="curve" smooth="yes"/>
      <point x="347" y="-13"/>
      <point x="462" y="57"/>
      <point x="462" y="238" type="curve" smooth="yes"/>
      <point x="462" y="400"/>
      <point x="377" y="483"/>
      <point x="258" y="483" type="curve" smooth="yes"/>
      <point x="169" y="483"/>
      <point x="52" y="407"/>
      <point x="52" y="238" type="curve" smooth="yes"/>
      <point x="52" y="56"/>
      <point x="156" y="-13"/>
    </contour>
    <contour>
      <point x="257" y="10" type="curve" smooth="yes"/>
      <point x="169" y="10"/>
      <point x="82" y="79"/>
      <point x="82" y="246" type="curve" smooth="yes"/>
      <point x="82" y="377"/>
      <point x="161" y="461"/>
      <point x="261" y="461" type="curve" smooth="yes"/>
      <point x="374" y="461"/>
      <point x="432" y="362"/>
      <point x="432" y="225" type="curve" smooth="yes"/>
      <point x="432" y="104"/>
      <point x="368" y="10"/>
    </contour>
    <contour>
      <point x="252" y="568" type="curve"/>
      <point x="267" y="563" type="line"/>
      <point x="289" y="612"/>
      <point x="308" y="660"/>
      <point x="313" y="673" type="curve" smooth="yes"/>
      <point x="330" y="720"/>
      <point x="333" y="728"/>
      <point x="333" y="738" type="curve" smooth="yes"/>
      <point x="333" y="748"/>
      <point x="327" y="755"/>
      <point x="316" y="755" type="curve" smooth="yes"/>
      <point x="307" y="755"/>
      <point x="298" y="748"/>
      <point x="281" y="686" type="curve" smooth="yes"/>
      <point x="278" y="675"/>
      <point x="265" y="621"/>
    </contour>
  </outline>
</glyph>
<glyph name="upsilontonos" format="1">
  <advance width="533"/>
  <unicode hex="03CD"/>
  <outline>
    <contour>
      <point x="109" y="168" type="curve" smooth="yes"/>
      <point x="109" y="37"/>
      <point x="187" y="-13"/>
      <point x="289" y="-13" type="curve" smooth="yes"/>
      <point x="403" y="-13"/>
      <point x="473" y="68"/>
      <point x="473" y="251" type="curve" smooth="yes"/>
      <point x="473" y="336"/>
      <point x="454" y="414"/>
      <point x="438" y="475" type="curve"/>
      <point x="434" y="480"/>
      <point x="426" y="483"/>
      <point x="418" y="483" type="curve" smooth="yes"/>
      <point x="407" y="483"/>
      <point x="401" y="472"/>
      <point x="401" y="460" type="curve" smooth="yes"/>
      <point x="401" y="434"/>
      <point x="420" y="394"/>
      <point x="461" y="308" type="curve"/>
      <point x="453" y="365" type="line"/>
      <point x="441" y="370" type="line"/>
      <point x="449" y="320"/>
      <point x="452" y="290"/>
      <point x="452" y="249" type="curve" smooth="yes"/>
      <point x="452" y="79"/>
      <point x="390" y="10"/>
      <point x="291" y="10" type="curve" smooth="yes"/>
      <point x="189" y="10"/>
      <point x="137" y="59"/>
      <point x="137" y="174" type="curve" smooth="yes"/>
      <point x="137" y="263"/>
      <point x="147" y="309"/>
      <point x="147" y="380" type="curve" smooth="yes"/>
      <point x="147" y="450"/>
      <point x="128" y="480"/>
      <point x="81" y="480" type="curve" smooth="yes"/>
      <point x="58" y="480"/>
      <point x="42" y="471"/>
      <point x="36" y="464" type="curve"/>
      <point x="41" y="452" type="line"/>
      <point x="48" y="454"/>
      <point x="57" y="455"/>
      <point x="66" y="455" type="curve" smooth="yes"/>
      <point x="105" y="455"/>
      <point x="121" y="439"/>
      <point x="121" y="377" type="curve" smooth="yes"/>
      <point x="121" y="323"/>
      <point x="109" y="254"/>
    </contour>
    <contour>
      <point x="258" y="568" type="curve"/>
      <point x="273" y="563" type="line"/>
      <point x="295" y="612"/>
      <point x="314" y="660"/>
      <point x="319" y="673" type="curve" smooth="yes"/>
      <point x="336" y="720"/>
      <point x="339" y="728"/>
      <point x="339" y="738" type="curve" smooth="yes"/>
      <point x="339" y="748"/>
      <point x="333" y="755"/>
      <point x="322" y="755" type="curve" smooth="yes"/>
      <point x="313" y="755"/>
      <point x="304" y="748"/>
      <point x="287" y="686" type="curve" smooth="yes"/>
      <point x="284" y="675"/>
      <point x="271" y="621"/>
    </contour>
  </outline>
</glyph>
<glyph name="omegatonos" format="1">
  <advance width="703"/>
  <unicode hex="03CE"/>
  <outline>
    <contour>
      <point x="221" y="-13" type="curve" smooth="yes"/>
      <point x="298" y="-13"/>
      <point x="347" y="34"/>
      <point x="354" y="101" type="curve"/>
      <point x="347" y="101" type="line"/>
      <point x="353" y="34"/>
      <point x="409" y="-13"/>
      <point x="478" y="-13" type="curve" smooth="yes"/>
      <point x="549" y="-13"/>
      <point x="651" y="38"/>
      <point x="651" y="220" type="curve" smooth="yes"/>
      <point x="651" y="358"/>
      <point x="584" y="449"/>
      <point x="458" y="482" type="curve"/>
      <point x="452" y="467" type="line"/>
      <point x="569" y="429"/>
      <point x="621" y="349"/>
      <point x="621" y="220" type="curve" smooth="yes"/>
      <point x="621" y="64"/>
      <point x="543" y="8"/>
      <point x="482" y="8" type="curve" smooth="yes"/>
      <point x="421" y="8"/>
      <point x="362" y="47"/>
      <point x="362" y="122" type="curve" smooth="yes"/>
      <point x="362" y="153"/>
      <point x="368" y="229"/>
      <point x="371" y="307" type="curve"/>
      <point x="365" y="311" type="line"/>
      <point x="335" y="306" type="line"/>
      <point x="335" y="230"/>
      <point x="339" y="153"/>
      <point x="339" y="120" type="curve" smooth="yes"/>
      <point x="339" y="45"/>
      <point x="285" y="8"/>
      <point x="224" y="8" type="curve" smooth="yes"/>
      <point x="159" y="8"/>
      <point x="82" y="71"/>
      <point x="82" y="219" type="curve" smooth="yes"/>
      <point x="82" y="349"/>
      <point x="131" y="429"/>
      <point x="250" y="467" type="curve"/>
      <point x="245" y="482" type="line"/>
      <point x="118" y="449"/>
      <point x="52" y="355"/>
      <point x="52" y="221" type="curve" smooth="yes"/>
      <point x="52" y="47"/>
      <point x="150" y="-13"/>
    </contour>
    <contour>
      <point x="346" y="568" type="curve"/>
      <point x="361" y="563" type="line"/>
      <point x="383" y="612"/>
      <point x="402" y="660"/>
      <point x="407" y="673" type="curve" smooth="yes"/>
      <point x="424" y="720"/>
      <point x="427" y="728"/>
      <point x="427" y="738" type="curve" smooth="yes"/>
      <point x="427" y="748"/>
      <point x="421" y="755"/>
      <point x="410" y="755" type="curve" smooth="yes"/>
      <point x="401" y="755"/>
      <point x="392" y="748"/>
      <point x="375" y="686" type="curve" smooth="yes"/>
      <point x="372" y="675"/>
      <point x="359" y="621"/>
    </contour>
  </outline>
</glyph>
<glyph name="Ishort" format="1">
  <advance width="800"/>
  <unicode hex="0419"/>
  <outline>
    <contour>
      <point x="58" y="0" type="line"/>
      <point x="306" y="0" type="line"/>
      <point x="306" y="20" type="line"/>
      <point x="189" y="27" type="line"/>
      <point x="175" y="27" type="line"/>
      <point x="58" y="20" type="line"/>
    </contour>
    <contour>
      <point x="58" y="657" type="line"/>
      <point x="175" y="650" type="line"/>
      <point x="189" y="650" type="line"/>
      <point x="306" y="657" type="line"/>
      <point x="306" y="677" type="line"/>
      <point x="58" y="677" type="line"/>
    </contour>
    <contour>
      <point x="165" y="0" type="curve"/>
      <point x="197" y="0" type="line"/>
      <point x="197" y="367" type="line" smooth="yes"/>
      <point x="197" y="471"/>
      <point x="197" y="575"/>
      <point x="199" y="677" type="curve"/>
      <point x="165" y="677" type="line"/>
      <point x="167" y="575"/>
      <point x="167" y="471"/>
      <point x="167" y="367" type="curve" smooth="yes"/>
      <point x="167" y="310" type="line" smooth="yes"/>
      <point x="167" y="206"/>
      <point x="167" y="102"/>
    </contour>
    <contour>
      <point x="182" y="36" type="line"/>
      <point x="619" y="603" type="line"/>
      <point x="619" y="641" type="line"/>
      <point x="182" y="73" type="line"/>
    </contour>
    <contour>
      <point x="494" y="0" type="line"/>
      <point x="742" y="0" type="line"/>
      <point x="742" y="20" type="line"/>
      <point x="626" y="27" type="line"/>
      <point x="612" y="27" type="line"/>
      <point x="494" y="20" type="line"/>
    </contour>
    <contour>
      <point x="494" y="657" type="line"/>
      <point x="612" y="650" type="line"/>
      <point x="626" y="650" type="line"/>
      <point x="742" y="657" type="line"/>
      <point x="742" y="677" type="line"/>
      <point x="494" y="677" type="line"/>
    </contour>
    <contour>
      <point x="601" y="0" type="curve"/>
      <point x="635" y="0" type="line"/>
      <point x="633" y="102"/>
      <point x="633" y="206"/>
      <point x="633" y="310" type="curve" smooth="yes"/>
      <point x="633" y="367" type="line" smooth="yes"/>
      <point x="633" y="471"/>
      <point x="633" y="575"/>
      <point x="635" y="677" type="curve"/>
      <point x="603" y="677" type="line"/>
      <point x="603" y="310" type="line" smooth="yes"/>
      <point x="603" y="206"/>
      <point x="603" y="102"/>
    </contour>
    <contour>
      <point x="400" y="738" type="curve" smooth="yes"/>
      <point x="471" y="738"/>
      <point x="541" y="778"/>
      <point x="541" y="864" type="curve"/>
      <point x="536" y="877"/>
      <point x="529" y="881"/>
      <point x="521" y="881" type="curve" smooth="yes"/>
      <point x="505" y="881"/>
      <point x="498" y="867"/>
      <point x="498" y="853" type="curve" smooth="yes"/>
      <point x="498" y="829"/>
      <point x="503" y="807"/>
      <point x="506" y="787" type="curve"/>
      <point x="520" y="821" type="line"/>
      <point x="483" y="773"/>
      <point x="451" y="758"/>
      <point x="400" y="758" type="curve" smooth="yes"/>
      <point x="349" y="758"/>
      <point x="317" y="773"/>
      <point x="280" y="821" type="curve"/>
      <point x="294" y="787" type="line"/>
      <point x="297" y="807"/>
      <point x="302" y="829"/>
      <point x="302" y="853" type="curve" smooth="yes"/>
      <point x="302" y="867"/>
      <point x="295" y="881"/>
      <point x="279" y="881" type="curve" smooth="yes"/>
      <point x="271" y="881"/>
      <point x="264" y="877"/>
      <point x="259" y="864" type="curve"/>
      <point x="259" y="778"/>
      <point x="329" y="738"/>
    </contour>
  </outline>
</glyph>
<glyph name="yi" format="1">
  <advance width="303"/>
  <unicode hex="0457"/>
  <outline>
    <contour>
      <point x="137" y="0" type="curve"/>
      <point x="171" y="0" type="line"/>
      <point x="169" y="45"/>
      <point x="168" y="148"/>
      <point x="168" y="210" type="curve" smooth="yes"/>
      <point x="168" y="356" type="line"/>
      <point x="170" y="472" type="line"/>
      <point x="160" y="478" type="line"/>
      <point x="44" y="466" type="line"/>
      <point x="44" y="446" type="line"/>
      <point x="137" y="446" type="line"/>
      <point x="139" y="395"/>
      <point x="140" y="329"/>
      <point x="140" y="259" type="curve" smooth="yes"/>
      <point x="140" y="210" type="line" smooth="yes"/>
      <point x="140" y="148"/>
      <point x="139" y="45"/>
    </contour>
    <contour>
      <point x="48" y="0" type="line"/>
      <point x="251" y="0" type="line"/>
      <point x="251" y="20" type="line"/>
      <point x="157" y="26" type="line"/>
      <point x="148" y="26" type="line"/>
      <point x="48" y="20" type="line"/>
    </contour>
    <contour>
      <point x="232" y="644" type="curve" smooth="yes"/>
      <point x="247" y="644"/>
      <point x="261" y="655"/>
      <point x="261" y="674" type="curve" smooth="yes"/>
      <point x="261" y="692"/>
      <point x="247" y="703"/>
      <point x="232" y="703" type="curve" smooth="yes"/>
      <point x="217" y="703"/>
      <point x="203" y="692"/>
      <point x="203" y="674" type="curve" smooth="yes"/>
      <point x="203" y="655"/>
      <point x="217" y="644"/>
    </contour>
    <contour>
      <point x="44" y="644" type="curve" smooth="yes"/>
      <point x="59" y="644"/>
      <point x="73" y="655"/>
      <point x="73" y="674" type="curve" smooth="yes"/>
      <point x="73" y="692"/>
      <point x="59" y="703"/>
      <point x="44" y="703" type="curve" smooth="yes"/>
      <point x="29" y="703"/>
      <point x="15" y="692"/>
      <point x="15" y="674" type="curve" smooth="yes"/>
      <point x="15" y="655"/>
      <point x="29" y="644"/>
    </contour>
  </outline>
</glyph>
<glyph name="kje" format="1">
  <advance width="519"/>
  <unicode hex="045C"/>
  <outline>
    <contour>
      <point x="45" y="0" type="line"/>
      <point x="251" y="0" type="line"/>
      <point x="251" y="20" type="line"/>
      <point x="153" y="26" type="line"/>
      <point x="143" y="26" type="line"/>
      <point x="45" y="20" type="line"/>
    </contour>
    <contour>
      <point x="45" y="450" type="line"/>
      <point x="143" y="444" type="line"/>
      <point x="153" y="444" type="line"/>
      <point x="251" y="450" type="line"/>
      <point x="251" y="470" type="line"/>
      <point x="45" y="470" type="line"/>
    </contour>
    <contour>
      <point x="131" y="0" type="curve"/>
      <point x="165" y="0" type="line"/>
      <point x="163" y="45"/>
      <point x="162" y="148"/>
      <point x="162" y="242" type="curve" smooth="yes"/>
      <point x="162" y="252" type="line" smooth="yes"/>
      <point x="162" y="322"/>
      <point x="163" y="425"/>
      <point x="165" y="470" type="curve"/>
      <point x="131" y="470" type="line"/>
      <point x="133" y="425"/>
      <point x="134" y="322"/>
      <point x="134" y="260" type="curve" smooth="yes"/>
      <point x="134" y="210" type="line" smooth="yes"/>
      <point x="134" y="148"/>
      <point x="133" y="45"/>
    </contour>
    <contour>
      <point x="378" y="25" type="line" smooth="yes"/>
      <point x="388" y="1"/>
      <point x="397" y="-5"/>
      <point x="444" y="-5" type="curve" smooth="yes"/>
      <point x="459" y="-5"/>
      <point x="475" y="-4"/>
      <point x="494" y="0" type="curve"/>
      <point x="494" y="18" type="line"/>
      <point x="396" y="24" type="line"/>
      <point x="410" y="16" type="line"/>
      <point x="359" y="144" type="line" smooth="yes"/>
      <point x="327" y="225"/>
      <point x="303" y="245"/>
      <point x="253" y="251" type="curve"/>
      <point x="253" y="243" type="line"/>
      <point x="297" y="250"/>
      <point x="318" y="284"/>
      <point x="349" y="363" type="curve" smooth="yes"/>
      <point x="369" y="415"/>
      <point x="381" y="430"/>
      <point x="407" y="455" type="curve"/>
      <point x="374" y="442" type="line"/>
      <point x="385" y="437"/>
      <point x="404" y="432"/>
      <point x="429" y="432" type="curve" smooth="yes"/>
      <point x="453" y="432"/>
      <point x="467" y="441"/>
      <point x="467" y="458" type="curve" smooth="yes"/>
      <point x="467" y="474"/>
      <point x="455" y="480"/>
      <point x="438" y="483" type="curve"/>
      <point x="393" y="472"/>
      <point x="364" y="453"/>
      <point x="332" y="372" type="curve" smooth="yes"/>
      <point x="293" y="272"/>
      <point x="274" y="256"/>
      <point x="218" y="256" type="curve" smooth="yes"/>
      <point x="148" y="256" type="line"/>
      <point x="148" y="237" type="line"/>
      <point x="216" y="237" type="line" smooth="yes"/>
      <point x="278" y="237"/>
      <point x="297" y="228"/>
      <point x="326" y="156" type="curve" smooth="yes"/>
    </contour>
    <contour>
      <point x="260" y="572" type="curve"/>
      <point x="271" y="563" type="line"/>
      <point x="313" y="606"/>
      <point x="354" y="650"/>
      <point x="383" y="681" type="curve" smooth="yes"/>
      <point x="403" y="702"/>
      <point x="412" y="711"/>
      <point x="412" y="721" type="curve" smooth="yes"/>
      <point x="412" y="732"/>
      <point x="404" y="738"/>
      <point x="395" y="738" type="curve" smooth="yes"/>
      <point x="385" y="738"/>
      <point x="379" y="730"/>
      <point x="362" y="707" type="curve" smooth="yes"/>
      <point x="334" y="671"/>
      <point x="297" y="621"/>
    </contour>
  </outline>
</glyph>
<glyph name="igravecyr" format="1">
  <advance width="638"/>
  <unicode hex="045D"/>
  <outline>
    <contour>
      <point x="45" y="0" type="line"/>
      <point x="251" y="0" type="line"/>
      <point x="251" y="20" type="line"/>
      <point x="153" y="26" type="line"/>
      <point x="143" y="26" type="line"/>
      <point x="45" y="20" type="line"/>
    </contour>
    <contour>
      <point x="45" y="450" type="line"/>
      <point x="143" y="444" type="line"/>
      <point x="153" y="444" type="line"/>
      <point x="251" y="450" type="line"/>
      <point x="251" y="470" type="line"/>
      <point x="45" y="470" type="line"/>
    </contour>
    <contour>
      <point x="131" y="0" type="curve"/>
      <point x="161" y="0" type="line"/>
      <point x="161" y="470" type="line"/>
      <point x="131" y="470" type="line"/>
      <point x="133" y="425"/>
      <point x="134" y="322"/>
      <point x="134" y="260" type="curve" smooth="yes"/>
      <point x="134" y="210" type="line" smooth="yes"/>
      <point x="134" y="148"/>
      <point x="133" y="45"/>
    </contour>
    <contour>
      <point x="136" y="56" type="line"/>
      <point x="151" y="44" type="line"/>
      <point x="494" y="414" type="line"/>
      <point x="480" y="427" type="line"/>
    </contour>
    <contour>
      <point x="385" y="0" type="line"/>
      <point x="593" y="0" type="line"/>
      <point x="593" y="20" type="line"/>
      <point x="494" y="26" type="line"/>
      <point x="484" y="26" type="line"/>
      <point x="385" y="20" type="line"/>
    </contour>
    <contour>
      <point x="385" y="450" type="line"/>
      <point x="484" y="444" type="line"/>
      <point x="494" y="444" type="line"/>
      <point x="593" y="450" type="line"/>
      <point x="593" y="470" type="line"/>
      <point x="385" y="470" type="line"/>
    </contour>
    <contour>
      <point x="477" y="0" type="line"/>
      <point x="506" y="0" type="line"/>
      <point x="504" y="45"/>
      <point x="503" y="148"/>
      <point x="503" y="210" type="curve" smooth="yes"/>
      <point x="503" y="260" type="line" smooth="yes"/>
      <point x="503" y="322"/>
      <point x="504" y="425"/>
      <point x="506" y="470" type="curve"/>
      <point x="477" y="470" type="line"/>
    </contour>
    <contour>
      <point x="346" y="572" type="line"/>
      <point x="310" y="621"/>
      <point x="273" y="671"/>
      <point x="245" y="707" type="curve" smooth="yes"/>
      <point x="227" y="730"/>
      <point x="221" y="738"/>
      <point x="211" y="738" type="curve" smooth="yes"/>
      <point x="202" y="738"/>
      <point x="194" y="732"/>
      <point x="194" y="721" type="curve" smooth="yes"/>
      <point x="194" y="711"/>
      <point x="203" y="702"/>
      <point x="223" y="681" type="curve" smooth="yes"/>
      <point x="252" y="651"/>
      <point x="293" y="607"/>
      <point x="335" y="563" type="curve"/>
    </contour>
  </outline>
</glyph>
<glyph name="ushort" format="1">
  <advance width="492"/>
  <unicode hex="045E"/>
  <outline>
    <contour>
      <point x="415" y="444" type="line"/>
      <point x="493" y="450" type="line"/>
      <point x="493" y="470" type="line"/>
      <point x="310" y="470" type="line"/>
      <point x="310" y="450" type="line"/>
      <point x="406" y="444" type="line"/>
    </contour>
    <contour>
      <point x="84" y="444" type="line"/>
      <point x="180" y="450" type="line"/>
      <point x="180" y="470" type="line"/>
      <point x="-14" y="470" type="line"/>
      <point x="-14" y="450" type="line"/>
      <point x="75" y="444" type="line"/>
    </contour>
    <contour>
      <point x="256" y="6" type="line"/>
      <point x="83" y="470" type="line"/>
      <point x="50" y="470" type="line"/>
      <point x="242" y="-26" type="line"/>
    </contour>
    <contour>
      <point x="51" y="-255" type="curve" smooth="yes"/>
      <point x="120" y="-255"/>
      <point x="187" y="-196"/>
      <point x="232" y="-75" type="curve" smooth="yes"/>
      <point x="434" y="470" type="line"/>
      <point x="408" y="470" type="line"/>
      <point x="243" y="13" type="line"/>
      <point x="211" y="-73" type="line" smooth="yes"/>
      <point x="174" y="-173"/>
      <point x="113" y="-236"/>
      <point x="51" y="-236" type="curve"/>
      <point x="68" y="-248" type="line"/>
      <point x="88" y="-244" type="line"/>
      <point x="65" y="-227" type="line" smooth="yes"/>
      <point x="47" y="-214"/>
      <point x="29" y="-205"/>
      <point x="13" y="-205" type="curve" smooth="yes"/>
      <point x="-3" y="-205"/>
      <point x="-16" y="-212"/>
      <point x="-19" y="-225" type="curve"/>
      <point x="-11" y="-247"/>
      <point x="21" y="-255"/>
    </contour>
    <contour>
      <point x="263" y="585" type="curve" smooth="yes"/>
      <point x="337" y="585"/>
      <point x="405" y="625"/>
      <point x="405" y="711" type="curve"/>
      <point x="400" y="724"/>
      <point x="393" y="728"/>
      <point x="384" y="728" type="curve" smooth="yes"/>
      <point x="370" y="728"/>
      <point x="362" y="714"/>
      <point x="362" y="700" type="curve" smooth="yes"/>
      <point x="362" y="676"/>
      <point x="367" y="654"/>
      <point x="370" y="634" type="curve"/>
      <point x="383" y="668" type="line"/>
      <point x="347" y="621"/>
      <point x="314" y="605"/>
      <point x="263" y="605" type="curve" smooth="yes"/>
      <point x="212" y="605"/>
      <point x="179" y="621"/>
      <point x="143" y="668" type="curve"/>
      <point x="156" y="634" type="line"/>
      <point x="159" y="654"/>
      <point x="164" y="676"/>
      <point x="164" y="700" type="curve" smooth="yes"/>
      <point x="164" y="714"/>
      <point x="156" y="728"/>
      <point x="142" y="728" type="curve" smooth="yes"/>
      <point x="133" y="728"/>
      <point x="126" y="724"/>
      <point x="121" y="711" type="curve"/>
      <point x="121" y="625"/>
      <point x="189" y="585"/>
    </contour>
  </outline>
</glyph>
<glyph name="Zedescender" format="1">
  <advance width="538"/>
  <unicode hex="0498"/>
  <outline>
    <contour>
      <point x="94" y="57" type="curve"/>
      <point x="113" y="33" type="line"/>
      <point x="81" y="109" type="line" smooth="yes"/>
      <point x="76" y="120"/>
      <point x="69" y="125"/>
      <point x="60" y="125" type="curve" smooth="yes"/>
      <point x="48" y="125"/>
      <point x="40" y="117"/>
      <point x="40" y="106" type="curve"/>
      <point x="67" y="38"/>
      <point x="114" y="-13"/>
      <point x="245" y="-13" type="curve" smooth="yes"/>
      <point x="398" y="-13"/>
      <point x="488" y="68"/>
      <point x="488" y="175" type="curve" smooth="yes"/>
      <point x="488" y="273"/>
      <point x="426" y="355"/>
      <point x="264" y="357" type="curve"/>
      <point x="264" y="349" type="line"/>
      <point x="396" y="360"/>
      <point x="463" y="434"/>
      <point x="463" y="519" type="curve" smooth="yes"/>
      <point x="463" y="622"/>
      <point x="407" y="690"/>
      <point x="260" y="690" type="curve" smooth="yes"/>
      <point x="183" y="690"/>
      <point x="127" y="676"/>
      <point x="69" y="642" type="curve"/>
      <point x="72" y="522" type="line"/>
      <point x="94" y="522" type="line"/>
      <point x="104" y="647" type="line"/>
      <point x="89" y="641" type="line"/>
      <point x="89" y="629" type="line"/>
      <point x="134" y="657"/>
      <point x="191" y="668"/>
      <point x="257" y="668" type="curve" smooth="yes"/>
      <point x="394" y="668"/>
      <point x="435" y="605"/>
      <point x="435" y="522" type="curve" smooth="yes"/>
      <point x="435" y="425"/>
      <point x="362" y="363"/>
      <point x="224" y="363" type="curve" smooth="yes"/>
      <point x="208" y="363" type="line"/>
      <point x="208" y="343" type="line"/>
      <point x="237" y="343" type="line" smooth="yes"/>
      <point x="399" y="343"/>
      <point x="458" y="277"/>
      <point x="458" y="178" type="curve" smooth="yes"/>
      <point x="458" y="74"/>
      <point x="368" y="9"/>
      <point x="243" y="9" type="curve" smooth="yes"/>
      <point x="172" y="9"/>
      <point x="130" y="21"/>
    </contour>
    <contour>
      <point x="212" y="-203" type="line"/>
      <point x="233" y="-210"/>
      <point x="252" y="-214"/>
      <point x="270" y="-214" type="curve" smooth="yes"/>
      <point x="325" y="-214"/>
      <point x="357" y="-184"/>
      <point x="357" y="-141" type="curve" smooth="yes"/>
      <point x="357" y="-90"/>
      <point x="334" y="-49"/>
      <point x="296" y="0" type="curve"/>
      <point x="278" y="0" type="line"/>
      <point x="315" y="-57"/>
      <point x="327" y="-93"/>
      <point x="327" y="-137" type="curve" smooth="yes"/>
      <point x="327" y="-172"/>
      <point x="305" y="-195"/>
      <point x="264" y="-195" type="curve" smooth="yes"/>
      <point x="252" y="-195"/>
      <point x="235" y="-192"/>
      <point x="216" y="-188" type="curve"/>
    </contour>
  </outline>
</glyph>
<glyph name="zedescender" format="1">
  <advance width="412"/>
  <unicode hex="0499"/>
  <outline>
    <contour>
      <point x="75" y="44" type="curve"/>
      <point x="103" y="10" type="line"/>
      <point x="81" y="78" type="line" smooth="yes"/>
      <point x="77" y="92"/>
      <point x="70" y="98"/>
      <point x="58" y="99" type="curve" smooth="yes"/>
      <point x="47" y="100"/>
      <point x="39" y="94"/>
      <point x="35" y="81" type="curve"/>
      <point x="58" y="15"/>
      <point x="121" y="-13"/>
      <point x="195" y="-13" type="curve" smooth="yes"/>
      <point x="313" y="-13"/>
      <point x="372" y="56"/>
      <point x="372" y="127" type="curve" smooth="yes"/>
      <point x="372" y="199"/>
      <point x="324" y="251"/>
      <point x="226" y="257" type="curve"/>
      <point x="221" y="251" type="line"/>
      <point x="319" y="256"/>
      <point x="355" y="309"/>
      <point x="355" y="365" type="curve" smooth="yes"/>
      <point x="355" y="441"/>
      <point x="302" y="483"/>
      <point x="198" y="483" type="curve" smooth="yes"/>
      <point x="150" y="483"/>
      <point x="108" y="471"/>
      <point x="62" y="443" type="curve"/>
      <point x="64" y="347" type="line"/>
      <point x="86" y="347" type="line"/>
      <point x="95" y="452" type="line"/>
      <point x="79" y="440" type="line"/>
      <point x="79" y="424" type="line"/>
      <point x="121" y="454"/>
      <point x="157" y="463"/>
      <point x="195" y="463" type="curve" smooth="yes"/>
      <point x="287" y="463"/>
      <point x="327" y="427"/>
      <point x="327" y="366" type="curve" smooth="yes"/>
      <point x="327" y="298"/>
      <point x="285" y="264"/>
      <point x="194" y="264" type="curve" smooth="yes"/>
      <point x="154" y="264" type="line"/>
      <point x="154" y="243" type="line"/>
      <point x="196" y="243" type="line" smooth="yes"/>
      <point x="296" y="243"/>
      <point x="341" y="202"/>
      <point x="341" y="130" type="curve" smooth="yes"/>
      <point x="341" y="55"/>
      <point x="287" y="7"/>
      <point x="197" y="7" type="curve" smooth="yes"/>
      <point x="152" y="7"/>
      <point x="116" y="14"/>
    </contour>
    <contour>
      <point x="149" y="-203" type="line"/>
      <point x="170" y="-210"/>
      <point x="189" y="-214"/>
      <point x="207" y="-214" type="curve" smooth="yes"/>
      <point x="262" y="-214"/>
      <point x="294" y="-184"/>
      <point x="294" y="-141" type="curve" smooth="yes"/>
      <point x="294" y="-90"/>
      <point x="271" y="-49"/>
      <point x="233" y="0" type="curve"/>
      <point x="215" y="0" type="line"/>
      <point x="252" y="-57"/>
      <point x="264" y="-93"/>
      <point x="264" y="-137" type="curve" smooth="yes"/>
      <point x="264" y="-172"/>
      <point x="242" y="-195"/>
      <point x="201" y="-195" type="curve" smooth="yes"/>
      <point x="189" y="-195"/>
      <point x="172" y="-192"/>
      <point x="153" y="-188" type="curve"/>
    </contour>
  </outline>
</glyph>
<glyph name="Abrevecyr" format="1">
  <advance width="653"/>
  <unicode hex="04D0"/>
  <outline>
    <contour>
      <point x="12" y="0" type="line"/>
      <point x="210" y="0" type="line"/>
      <point x="210" y="20" type="line"/>
      <point x="113" y="26" type="line"/>
      <point x="99" y="26" type="line"/>
      <point x="12" y="20" type="line"/>
    </contour>
    <contour>
      <point x="173" y="247" type="line"/>
      <point x="468" y="247" type="line"/>
      <point x="460" y="267" type="line"/>
      <point x="182" y="267" type="line"/>
    </contour>
    <contour>
      <point x="403" y="0" type="line"/>
      <point x="651" y="0" type="line"/>
      <point x="651" y="20" type="line"/>
      <point x="537" y="26" type="line"/>
      <point x="523" y="26" type="line"/>
      <point x="403" y="20" type="line"/>
    </contour>
    <contour>
      <point x="85" y="0" type="line"/>
      <point x="114" y="0" type="line"/>
      <point x="315" y="636" type="line"/>
      <point x="524" y="0" type="line"/>
      <point x="556" y="0" type="line"/>
      <point x="327" y="684" type="line"/>
      <point x="307" y="684" type="line"/>
    </contour>
    <contour>
      <point x="313" y="738" type="curve" smooth="yes"/>
      <point x="384" y="738"/>
      <point x="454" y="778"/>
      <point x="454" y="864" type="curve"/>
      <point x="449" y="877"/>
      <point x="442" y="881"/>
      <point x="434" y="881" type="curve" smooth="yes"/>
      <point x="418" y="881"/>
      <point x="411" y="867"/>
      <point x="411" y="853" type="curve" smooth="yes"/>
      <point x="411" y="829"/>
      <point x="416" y="807"/>
      <point x="419" y="787" type="curve"/>
      <point x="433" y="821" type="line"/>
      <point x="396" y="773"/>
      <point x="364" y="758"/>
      <point x="313" y="758" type="curve" smooth="yes"/>
      <point x="262" y="758"/>
      <point x="230" y="773"/>
      <point x="193" y="821" type="curve"/>
      <point x="207" y="787" type="line"/>
      <point x="210" y="807"/>
      <point x="215" y="829"/>
      <point x="215" y="853" type="curve" smooth="yes"/>
      <point x="215" y="867"/>
      <point x="208" y="881"/>
      <point x="192" y="881" type="curve" smooth="yes"/>
      <point x="184" y="881"/>
      <point x="177" y="877"/>
      <point x="172" y="864" type="curve"/>
      <point x="172" y="778"/>
      <point x="242" y="738"/>
    </contour>
  </outline>
</glyph>
<glyph name="Iebreve" format="1">
  <advance width="601"/>
  <unicode hex="04D6"/>
  <outline>
    <contour>
      <point x="175" y="650" type="line"/>
      <point x="182" y="650" type="line"/>
      <point x="182" y="677" type="line"/>
      <point x="58" y="677" type="line"/>
      <point x="58" y="657" type="line"/>
    </contour>
    <contour>
      <point x="175" y="27" type="line"/>
      <point x="58" y="20" type="line"/>
      <point x="58" y="0" type="line"/>
      <point x="182" y="0" type="line"/>
      <point x="182" y="27" type="line"/>
    </contour>
    <contour>
      <point x="167" y="310" type="line" smooth="yes"/>
      <point x="167" y="206"/>
      <point x="167" y="102"/>
      <point x="165" y="0" type="curve"/>
      <point x="199" y="0" type="line"/>
      <point x="197" y="102"/>
      <point x="197" y="206"/>
      <point x="197" y="340" type="curve" smooth="yes"/>
      <point x="197" y="347" type="line" smooth="yes"/>
      <point x="197" y="471"/>
      <point x="197" y="575"/>
      <point x="199" y="677" type="curve"/>
      <point x="165" y="677" type="line"/>
      <point x="167" y="575"/>
      <point x="167" y="471"/>
      <point x="167" y="367" type="curve" smooth="yes"/>
    </contour>
    <contour>
      <point x="394" y="332" type="line"/>
      <point x="404" y="234" type="line"/>
      <point x="423" y="234" type="line"/>
      <point x="423" y="450" type="line"/>
      <point x="404" y="450" type="line"/>
      <point x="394" y="352" type="line"/>
    </contour>
    <contour>
      <point x="403" y="353" type="line"/>
      <point x="182" y="353" type="line"/>
      <point x="182" y="331" type="line"/>
      <point x="403" y="331" type="line"/>
    </contour>
    <contour>
      <point x="518" y="524" type="line"/>
      <point x="542" y="524" type="line"/>
      <point x="532" y="677" type="line"/>
      <point x="182" y="677" type="line"/>
      <point x="182" y="655" type="line"/>
      <point x="502" y="655" type="line"/>
    </contour>
    <contour>
      <point x="532" y="153" type="line"/>
      <point x="516" y="22" type="line"/>
      <point x="182" y="22" type="line"/>
      <point x="182" y="0" type="line"/>
      <point x="546" y="0" type="line"/>
      <point x="556" y="153" type="line"/>
    </contour>
    <contour>
      <point x="315" y="738" type="curve" smooth="yes"/>
      <point x="386" y="738"/>
      <point x="456" y="778"/>
      <point x="456" y="864" type="curve"/>
      <point x="451" y="877"/>
      <point x="444" y="881"/>
      <point x="436" y="881" type="curve" smooth="yes"/>
      <point x="420" y="881"/>
      <point x="413" y="867"/>
      <point x="413" y="853" type="curve" smooth="yes"/>
      <point x="413" y="829"/>
      <point x="418" y="807"/>
      <point x="421" y="787" type="curve"/>
      <point x="435" y="821" type="line"/>
      <point x="398" y="773"/>
      <point x="366" y="758"/>
      <point x="315" y="758" type="curve" smooth="yes"/>
      <point x="264" y="758"/>
      <point x="232" y="773"/>
      <point x="195" y="821" type="curve"/>
      <point x="209" y="787" type="line"/>
      <point x="212" y="807"/>
      <point x="217" y="829"/>
      <point x="217" y="853" type="curve" smooth="yes"/>
      <point x="217" y="867"/>
      <point x="210" y="881"/>
      <point x="194" y="881" type="curve" smooth="yes"/>
      <point x="186" y="881"/>
      <point x="179" y="877"/>
      <point x="174" y="864" type="curve"/>
      <point x="174" y="778"/>
      <point x="244" y="738"/>
    </contour>
  </outline>
</glyph>
<glyph name="Odieresiscyr" format="1">
  <advance width="706"/>
  <unicode hex="04E6"/>
  <outline>
    <contour>
      <point x="95" y="338" type="curve" smooth="yes"/>
      <point x="95" y="518"/>
      <point x="193" y="668"/>
      <point x="353" y="668" type="curve" smooth="yes"/>
      <point x="513" y="668"/>
      <point x="611" y="518"/>
      <point x="611" y="338" type="curve" smooth="yes"/>
      <point x="611" y="158"/>
      <point x="513" y="9"/>
      <point x="353" y="9" type="curve" smooth="yes"/>
      <point x="193" y="9"/>
      <point x="95" y="158"/>
    </contour>
    <contour>
      <point x="353" y="690" type="curve" smooth="yes"/>
      <point x="188" y="690"/>
      <point x="63" y="550"/>
      <point x="63" y="338" type="curve" smooth="yes"/>
      <point x="63" y="126"/>
      <point x="188" y="-13"/>
      <point x="353" y="-13" type="curve" smooth="yes"/>
      <point x="518" y="-13"/>
      <point x="643" y="126"/>
      <point x="643" y="338" type="curve" smooth="yes"/>
      <point x="643" y="550"/>
      <point x="518" y="690"/>
    </contour>
    <contour>
      <point x="250" y="756" type="curve" smooth="yes"/>
      <point x="267" y="756"/>
      <point x="282" y="768"/>
      <point x="282" y="788" type="curve" smooth="yes"/>
      <point x="282" y="808"/>
      <point x="267" y="820"/>
      <point x="250" y="820" type="curve" smooth="yes"/>
      <point x="234" y="820"/>
      <point x="218" y="808"/>
      <point x="218" y="788" type="curve" smooth="yes"/>
      <point x="218" y="768"/>
      <point x="234" y="756"/>
    </contour>
    <contour>
      <point x="456" y="756" type="curve" smooth="yes"/>
      <point x="472" y="756"/>
      <point x="488" y="768"/>
      <point x="488" y="788" type="curve" smooth="yes"/>
      <point x="488" y="808"/>
      <point x="472" y="820"/>
      <point x="456" y="820" type="curve" smooth="yes"/>
      <point x="439" y="820"/>
      <point x="424" y="808"/>
      <point x="424" y="788" type="curve" smooth="yes"/>
      <point x="424" y="768"/>
      <point x="439" y="756"/>
    </contour>
  </outline>
</glyph>
<glyph name="obarcyr" format="1">
  <advance width="538"/>
  <unicode hex="04E9"/>
  <outline>
    <contour>
      <point x="67" y="232" type="line"/>
      <point x="472" y="232" type="line"/>
      <point x="472" y="253" type="line"/>
      <point x="67" y="253" type="line"/>
    </contour>
    <contour>
      <point x="269" y="7" type="curve" smooth="yes"/>
      <point x="160" y="7"/>
      <point x="82" y="92"/>
      <point x="82" y="233" type="curve" smooth="yes"/>
      <point x="82" y="374"/>
      <point x="160" y="463"/>
      <point x="269" y="463" type="curve" smooth="yes"/>
      <point x="378" y="463"/>
      <point x="456" y="374"/>
      <point x="456" y="233" type="curve" smooth="yes"/>
      <point x="456" y="92"/>
      <point x="378" y="7"/>
    </contour>
    <contour>
      <point x="269" y="-13" type="curve" smooth="yes"/>
      <point x="384" y="-13"/>
      <point x="486" y="56"/>
      <point x="486" y="233" type="curve" smooth="yes"/>
      <point x="486" y="410"/>
      <point x="384" y="483"/>
      <point x="269" y="483" type="curve" smooth="yes"/>
      <point x="154" y="483"/>
      <point x="52" y="410"/>
      <point x="52" y="233" type="curve" smooth="yes"/>
      <point x="52" y="56"/>
      <point x="154" y="-13"/>
    </contour>
    <contour>
      <point x="269" y="500" type="move" name="aboveLC"/>
    </contour>
  </outline>
</glyph>
<glyph name="umacroncyr" format="1">
  <advance width="492"/>
  <unicode hex="04EF"/>
  <outline>
    <contour>
      <point x="415" y="444" type="line"/>
      <point x="493" y="450" type="line"/>
      <point x="493" y="470" type="line"/>
      <point x="310" y="470" type="line"/>
      <point x="310" y="450" type="line"/>
      <point x="406" y="444" type="line"/>
    </contour>
    <contour>
      <point x="84" y="444" type="line"/>
      <point x="180" y="450" type="line"/>
      <point x="180" y="470" type="line"/>
      <point x="-14" y="470" type="line"/>
      <point x="-14" y="450" type="line"/>
      <point x="75" y="444" type="line"/>
    </contour>
    <contour>
      <point x="256" y="6" type="line"/>
      <point x="83" y="470" type="line"/>
      <point x="50" y="470" type="line"/>
      <point x="242" y="-26" type="line"/>
    </contour>
    <contour>
      <point x="51" y="-255" type="curve" smooth="yes"/>
      <point x="120" y="-255"/>
      <point x="187" y="-196"/>
      <point x="232" y="-75" type="curve" smooth="yes"/>
      <point x="434" y="470" type="line"/>
      <point x="408" y="470" type="line"/>
      <point x="243" y="13" type="line"/>
      <point x="211" y="-73" type="line" smooth="yes"/>
      <point x="174" y="-173"/>
      <point x="113" y="-236"/>
      <point x="51" y="-236" type="curve"/>
      <point x="68" y="-248" type="line"/>
      <point x="88" y="-244" type="line"/>
      <point x="65" y="-227" type="line" smooth="yes"/>
      <point x="47" y="-214"/>
      <point x="29" y="-205"/>
      <point x="13" y="-205" type="curve" smooth="yes"/>
      <point x="-3" y="-205"/>
      <point x="-16" y="-212"/>
      <point x="-19" y="-225" type="curve"/>
      <point x="-11" y="-247"/>
      <point x="21" y="-255"/>
    </contour>
    <contour>
      <point x="130" y="631" type="line"/>
      <point x="370" y="631" type="line"/>
      <point x="370" y="657" type="line"/>
      <point x="130" y="657" type="line"/>
    </contour>
  </outline>
</glyph>
<glyph name="Uacutedblcyr" format="1">
  <advance width="547"/>
  <unicode hex="04F2"/>
  <outline>
    <contour>
      <point x="4" y="657" type="line"/>
      <point x="96" y="650" type="line"/>
      <point x="110" y="650" type="line"/>
      <point x="222" y="657" type="line"/>
      <point x="222" y="677" type="line"/>
      <point x="4" y="677" type="line"/>
    </contour>
    <contour>
      <point x="290" y="163" type="line"/>
      <point x="304" y="194" type="line"/>
      <point x="106" y="677" type="line"/>
      <point x="72" y="677" type="line"/>
    </contour>
    <contour>
      <point x="88" y="22" type="curve"/>
      <point x="92" y="-3"/>
      <point x="114" y="-13"/>
      <point x="139" y="-13" type="curve" smooth="yes"/>
      <point x="206" y="-13"/>
      <point x="256" y="43"/>
      <point x="320" y="205" type="curve" smooth="yes"/>
      <point x="507" y="677" type="line"/>
      <point x="478" y="677" type="line"/>
      <point x="289" y="185" type="line"/>
      <point x="252" y="97"/>
      <point x="209" y="23"/>
      <point x="153" y="12" type="curve"/>
      <point x="168" y="-1" type="line"/>
      <point x="195" y="10" type="line"/>
      <point x="162" y="40"/>
      <point x="147" y="46"/>
      <point x="127" y="46" type="curve" smooth="yes"/>
      <point x="109" y="46"/>
      <point x="93" y="38"/>
    </contour>
    <contour>
      <point x="366" y="657" type="line"/>
      <point x="472" y="650" type="line"/>
      <point x="486" y="650" type="line"/>
      <point x="579" y="657" type="line"/>
      <point x="579" y="677" type="line"/>
      <point x="366" y="677" type="line"/>
    </contour>
    <contour>
      <point x="197" y="734" type="line"/>
      <point x="209" y="725" type="line"/>
      <point x="305" y="826" type="line" smooth="yes"/>
      <point x="315" y="837"/>
      <point x="318" y="841"/>
      <point x="318" y="851" type="curve" smooth="yes"/>
      <point x="318" y="858"/>
      <point x="312" y="866"/>
      <point x="303" y="866" type="curve" smooth="yes"/>
      <point x="295" y="866"/>
      <point x="287" y="861"/>
      <point x="278" y="848" type="curve" smooth="yes"/>
    </contour>
    <contour>
      <point x="328" y="734" type="line"/>
      <point x="340" y="725" type="line"/>
      <point x="436" y="826" type="line" smooth="yes"/>
      <point x="446" y="837"/>
      <point x="449" y="841"/>
      <point x="449" y="851" type="curve" smooth="yes"/>
      <point x="449" y="858"/>
      <point x="443" y="866"/>
      <point x="434" y="866" type="curve" smooth="yes"/>
      <point x="426" y="866"/>
      <point x="418" y="861"/>
      <point x="409" y="848" type="curve" smooth="yes"/>
    </contour>
  </outline>
</glyph>
<glyph name="uacutedblcyr" format="1">
  <advance width="492"/>
  <unicode hex="04F3"/>
  <outline>
    <contour>
      <point x="415" y="444" type="line"/>
      <point x="493" y="450" type="line"/>
      <point x="493" y="470" type="line"/>
      <point x="310" y="470" type="line"/>
      <point x="310" y="450" type="line"/>
      <point x="406" y="444" type="line"/>
    </contour>
    <contour>
      <point x="84" y="444" type="line"/>
      <point x="180" y="450" type="line"/>
      <point x="180" y="470" type="line"/>
      <point x="-14" y="470" type="line"/>
      <point x="-14" y="450" type="line"/>
      <point x="75" y="444" type="line"/>
    </contour>
    <contour>
      <point x="256" y="6" type="line"/>
      <point x="83" y="470" type="line"/>
      <point x="50" y="470" type="line"/>
      <point x="242" y="-26" type="line"/>
    </contour>
    <contour>
      <point x="51" y="-255" type="curve" smooth="yes"/>
      <point x="120" y="-255"/>
      <point x="187" y="-196"/>
      <point x="232" y="-75" type="curve" smooth="yes"/>
      <point x="434" y="470" type="line"/>
      <point x="408" y="470" type="line"/>
      <point x="243" y="13" type="line"/>
      <point x="211" y="-73" type="line" smooth="yes"/>
      <point x="174" y="-173"/>
      <point x="113" y="-236"/>
      <point x="51" y="-236" type="curve"/>
      <point x="68" y="-248" type="line"/>
      <point x="88" y="-244" type="line"/>
      <point x="65" y="-227" type="line" smooth="yes"/>
      <point x="47" y="-214"/>
      <point x="29" y="-205"/>
      <point x="13" y="-205" type="curve" smooth="yes"/>
      <point x="-3" y="-205"/>
      <point x="-16" y="-212"/>
      <point x="-19" y="-225" type="curve"/>
      <point x="-11" y="-247"/>
      <point x="21" y="-255"/>
    </contour>
    <contour>
      <point x="166" y="567" type="line"/>
      <point x="180" y="560" type="line"/>
      <point x="261" y="697" type="line" smooth="yes"/>
      <point x="267" y="708"/>
      <point x="271" y="717"/>
      <point x="271" y="725" type="curve" smooth="yes"/>
      <point x="271" y="734"/>
      <point x="264" y="741"/>
      <point x="255" y="741" type="curve" smooth="yes"/>
      <point x="243" y="741"/>
      <point x="237" y="730"/>
      <point x="229" y="712" type="curve" smooth="yes"/>
    </contour>
    <contour>
      <point x="299" y="567" type="line"/>
      <point x="313" y="560" type="line"/>
      <point x="394" y="697" type="line" smooth="yes"/>
      <point x="400" y="708"/>
      <point x="404" y="717"/>
      <point x="404" y="725" type="curve" smooth="yes"/>
      <point x="404" y="734"/>
      <point x="397" y="741"/>
      <point x="388" y="741" type="curve" smooth="yes"/>
      <point x="376" y="741"/>
      <point x="370" y="730"/>
      <point x="362" y="712" type="curve" smooth="yes"/>
    </contour>
  </outline>
</glyph>
<glyph name="Gmacron" format="1">
  <advance width="685"/>
  <unicode hex="1E20"/>
  <outline>
    <contour>
      <point x="577" y="293" type="line"/>
      <point x="591" y="293" type="line"/>
      <point x="677" y="300" type="line"/>
      <point x="677" y="320" type="line"/>
      <point x="447" y="320" type="line"/>
      <point x="447" y="300" type="line"/>
    </contour>
    <contour>
      <point x="599" y="99" type="line" smooth="yes"/>
      <point x="599" y="193"/>
      <point x="600" y="257"/>
      <point x="602" y="320" type="curve"/>
      <point x="566" y="320" type="line"/>
      <point x="568" y="246"/>
      <point x="569" y="173"/>
      <point x="569" y="99" type="curve" smooth="yes"/>
      <point x="569" y="52" type="line"/>
      <point x="582" y="68" type="line"/>
      <point x="522" y="27"/>
      <point x="461" y="9"/>
      <point x="388" y="9" type="curve" smooth="yes"/>
      <point x="212" y="9"/>
      <point x="96" y="138"/>
      <point x="96" y="338" type="curve" smooth="yes"/>
      <point x="96" y="537"/>
      <point x="213" y="668"/>
      <point x="394" y="668" type="curve" smooth="yes"/>
      <point x="473" y="668"/>
      <point x="520" y="648"/>
      <point x="576" y="608" type="curve"/>
      <point x="576" y="628" type="line"/>
      <point x="555" y="637" type="line"/>
      <point x="573" y="492" type="line"/>
      <point x="597" y="492" type="line"/>
      <point x="593" y="631" type="line"/>
      <point x="533" y="669"/>
      <point x="477" y="690"/>
      <point x="391" y="690" type="curve" smooth="yes"/>
      <point x="199" y="690"/>
      <point x="64" y="548"/>
      <point x="64" y="338" type="curve" smooth="yes"/>
      <point x="64" y="129"/>
      <point x="194" y="-13"/>
      <point x="390" y="-13" type="curve" smooth="yes"/>
      <point x="468" y="-13"/>
      <point x="525" y="3"/>
      <point x="599" y="48" type="curve"/>
    </contour>
    <contour>
      <point x="239" y="767" type="line"/>
      <point x="531" y="767" type="line"/>
      <point x="531" y="793" type="line"/>
      <point x="239" y="793" type="line"/>
    </contour>
  </outline>
</glyph>
<glyph name="ldotbelow" format="1">
  <advance width="303"/>
  <unicode hex="1E37"/>
  <outline>
    <contour>
      <point x="157" y="26" type="line"/>
      <point x="148" y="26" type="line"/>
      <point x="38" y="20" type="line"/>
      <point x="38" y="0" type="line"/>
      <point x="266" y="0" type="line"/>
      <point x="266" y="20" type="line"/>
    </contour>
    <contour>
      <point x="49" y="736" type="line"/>
      <point x="49" y="716" type="line"/>
      <point x="140" y="716" type="line"/>
      <point x="140" y="210" type="line" smooth="yes"/>
      <point x="140" y="148"/>
      <point x="139" y="45"/>
      <point x="137" y="0" type="curve"/>
      <point x="171" y="0" type="line"/>
      <point x="169" y="45"/>
      <point x="168" y="148"/>
      <point x="168" y="210" type="curve" smooth="yes"/>
      <point x="168" y="598" type="line"/>
      <point x="170" y="740" type="line"/>
      <point x="156" y="748" type="line"/>
    </contour>
    <contour>
      <point x="153" y="-165" type="curve" smooth="yes"/>
      <point x="169" y="-165"/>
      <point x="185" y="-152"/>
      <point x="185" y="-133" type="curve" smooth="yes"/>
      <point x="185" y="-114"/>
      <point x="169" y="-101"/>
      <point x="153" y="-101" type="curve" smooth="yes"/>
      <point x="137" y="-101"/>
      <point x="121" y="-114"/>
      <point x="121" y="-133" type="curve" smooth="yes"/>
      <point x="121" y="-152"/>
      <point x="137" y="-165"/>
    </contour>
  </outline>
</glyph>
<glyph name="macute" format="1">
  <advance width="889"/>
  <unicode hex="1E3F"/>
  <outline>
    <contour>
      <point x="349" y="483" type="curve" smooth="yes"/>
      <point x="286" y="483"/>
      <point x="226" y="447"/>
      <point x="149" y="354" type="curve"/>
      <point x="156" y="337" type="line"/>
      <point x="239" y="435"/>
      <point x="301" y="455"/>
      <point x="347" y="455" type="curve" smooth="yes"/>
      <point x="396" y="455"/>
      <point x="438" y="416"/>
      <point x="438" y="315" type="curve" smooth="yes"/>
      <point x="438" y="210" type="line" smooth="yes"/>
      <point x="438" y="146"/>
      <point x="437" y="45"/>
      <point x="435" y="0" type="curve"/>
      <point x="469" y="0" type="line"/>
      <point x="467" y="45"/>
      <point x="466" y="146"/>
      <point x="466" y="210" type="curve" smooth="yes"/>
      <point x="466" y="314" type="line" smooth="yes"/>
      <point x="466" y="439"/>
      <point x="418" y="483"/>
    </contour>
    <contour>
      <point x="646" y="483" type="curve" smooth="yes"/>
      <point x="582" y="483"/>
      <point x="518" y="447"/>
      <point x="450" y="365" type="curve"/>
      <point x="458" y="348" type="line"/>
      <point x="532" y="435"/>
      <point x="597" y="455"/>
      <point x="644" y="455" type="curve" smooth="yes"/>
      <point x="700" y="455"/>
      <point x="741" y="417"/>
      <point x="741" y="315" type="curve" smooth="yes"/>
      <point x="741" y="210" type="line" smooth="yes"/>
      <point x="741" y="146"/>
      <point x="740" y="45"/>
      <point x="738" y="0" type="curve"/>
      <point x="772" y="0" type="line"/>
      <point x="770" y="45"/>
      <point x="769" y="146"/>
      <point x="769" y="210" type="curve" smooth="yes"/>
      <point x="769" y="314" type="line" smooth="yes"/>
      <point x="769" y="438"/>
      <point x="723" y="483"/>
    </contour>
    <contour>
      <point x="166" y="0" type="line"/>
      <point x="164" y="45"/>
      <point x="163" y="148"/>
      <point x="163" y="210" type="curve" smooth="yes"/>
      <point x="163" y="366" type="line"/>
      <point x="161" y="472" type="line"/>
      <point x="151" y="478" type="line"/>
      <point x="39" y="466" type="line"/>
      <point x="39" y="446" type="line"/>
      <point x="132" y="446" type="line"/>
      <point x="134" y="395"/>
      <point x="135" y="329"/>
      <point x="135" y="259" type="curve" smooth="yes"/>
      <point x="135" y="210" type="line" smooth="yes"/>
      <point x="135" y="148"/>
      <point x="134" y="45"/>
      <point x="132" y="0" type="curve"/>
    </contour>
    <contour>
      <point x="152" y="26" type="line"/>
      <point x="143" y="26" type="line"/>
      <point x="43" y="20" type="line"/>
      <point x="43" y="0" type="line"/>
      <point x="246" y="0" type="line"/>
      <point x="246" y="20" type="line"/>
    </contour>
    <contour>
      <point x="446" y="26" type="line"/>
      <point x="346" y="20" type="line"/>
      <point x="346" y="0" type="line"/>
      <point x="549" y="0" type="line"/>
      <point x="549" y="20" type="line"/>
      <point x="455" y="26" type="line"/>
    </contour>
    <contour>
      <point x="749" y="26" type="line"/>
      <point x="649" y="20" type="line"/>
      <point x="649" y="0" type="line"/>
      <point x="852" y="0" type="line"/>
      <point x="852" y="20" type="line"/>
      <point x="758" y="26" type="line"/>
    </contour>
    <contour>
      <point x="409" y="572" type="curve"/>
      <point x="420" y="563" type="line"/>
      <point x="462" y="606"/>
      <point x="503" y="650"/>
      <point x="532" y="681" type="curve" smooth="yes"/>
      <point x="552" y="702"/>
      <point x="561" y="711"/>
      <point x="561" y="721" type="curve" smooth="yes"/>
      <point x="561" y="732"/>
      <point x="553" y="738"/>
      <point x="544" y="738" type="curve" smooth="yes"/>
      <point x="534" y="738"/>
      <point x="528" y="730"/>
      <point x="511" y="707" type="curve" smooth="yes"/>
      <point x="483" y="671"/>
      <point x="446" y="621"/>
    </contour>
  </outline>
</glyph>
<glyph name="Ndotaccent" format="1">
  <advance width="732"/>
  <unicode hex="1E44"/>
  <outline>
    <contour>
      <point x="48" y="0" type="line"/>
      <point x="276" y="0" type="line"/>
      <point x="276" y="20" type="line"/>
      <point x="159" y="27" type="line"/>
      <point x="145" y="27" type="line"/>
      <point x="48" y="20" type="line"/>
    </contour>
    <contour>
      <point x="139" y="0" type="line"/>
      <point x="163" y="0" type="line"/>
      <point x="163" y="654" type="line"/>
      <point x="139" y="654" type="line"/>
    </contour>
    <contour>
      <point x="466" y="657" type="line"/>
      <point x="583" y="650" type="line"/>
      <point x="597" y="650" type="line"/>
      <point x="694" y="657" type="line"/>
      <point x="694" y="677" type="line"/>
      <point x="466" y="677" type="line"/>
    </contour>
    <contour>
      <point x="582" y="-7" type="line"/>
      <point x="602" y="-7" type="line"/>
      <point x="602" y="677" type="line"/>
      <point x="578" y="677" type="line"/>
      <point x="578" y="48" type="line"/>
      <point x="155" y="677" type="line"/>
      <point x="38" y="677" type="line"/>
      <point x="38" y="657" type="line"/>
      <point x="137" y="653" type="line"/>
    </contour>
    <contour>
      <point x="356" y="759" type="curve" smooth="yes"/>
      <point x="372" y="759"/>
      <point x="388" y="772"/>
      <point x="388" y="791" type="curve" smooth="yes"/>
      <point x="388" y="810"/>
      <point x="372" y="823"/>
      <point x="356" y="823" type="curve" smooth="yes"/>
      <point x="340" y="823"/>
      <point x="324" y="810"/>
      <point x="324" y="791" type="curve" smooth="yes"/>
      <point x="324" y="772"/>
      <point x="340" y="759"/>
    </contour>
  </outline>
</glyph>
<glyph name="Ndotbelow" format="1">
  <advance width="732"/>
  <unicode hex="1E46"/>
  <outline>
    <contour>
      <point x="48" y="0" type="line"/>
      <point x="276" y="0" type="line"/>
      <point x="276" y="20" type="line"/>
      <point x="159" y="27" type="line"/>
      <point x="145" y="27" type="line"/>
      <point x="48" y="20" type="line"/>
    </contour>
    <contour>
      <point x="139" y="0" type="line"/>
      <point x="163" y="0" type="line"/>
      <point x="163" y="654" type="line"/>
      <point x="139" y="654" type="line"/>
    </contour>
    <contour>
      <point x="466" y="657" type="line"/>
      <point x="583" y="650" type="line"/>
      <point x="597" y="650" type="line"/>
      <point x="694" y="657" type="line"/>
      <point x="694" y="677" type="line"/>
      <point x="466" y="677" type="line"/>
    </contour>
    <contour>
      <point x="582" y="-7" type="line"/>
      <point x="602" y="-7" type="line"/>
      <point x="602" y="677" type="line"/>
      <point x="578" y="677" type="line"/>
      <point x="578" y="48" type="line"/>
      <point x="155" y="677" type="line"/>
      <point x="38" y="677" type="line"/>
      <point x="38" y="657" type="line"/>
      <point x="137" y="653" type="line"/>
    </contour>
    <contour>
      <point x="375" y="-165" type="curve" smooth="yes"/>
      <point x="391" y="-165"/>
      <point x="407" y="-152"/>
      <point x="407" y="-133" type="curve" smooth="yes"/>
      <point x="407" y="-114"/>
      <point x="391" y="-101"/>
      <point x="375" y="-101" type="curve" smooth="yes"/>
      <point x="359" y="-101"/>
      <point x="343" y="-114"/>
      <point x="343" y="-133" type="curve" smooth="yes"/>
      <point x="343" y="-152"/>
      <point x="359" y="-165"/>
    </contour>
  </outline>
</glyph>
